<svg width="21" height="25" fill="none" xmlns="http://www.w3.org/2000/svg"><path d="M10.439 24.443c.402-.04.782-.201 1.088-.464l8.219-7.045a1.956 1.956 0 00.263-2.8 1.959 1.959 0 00-2.807-.172l-6.947 5.957-6.946-5.957a1.959 1.959 0 00-2.807.172 1.956 1.956 0 00.263 2.8l8.218 7.045c.402.345.928.512 1.456.464zm0-13.126c.402-.04.782-.202 1.088-.465l8.219-7.044a1.955 1.955 0 00.263-2.8 1.959 1.959 0 00-2.807-.172l-6.947 5.956L3.31.836a1.959 1.959 0 00-2.807.171 1.955 1.955 0 00.263 2.8l8.218 7.045c.402.346.928.512 1.456.465z" fill="#fff"/></svg>