<svg width="1011" height="501" fill="none" xmlns="http://www.w3.org/2000/svg"><path d="M1018.15 165.037L447.759-360.327v-394.127L28.651-777.486c-3.236 7.617-23.973 29.57-20.738 41.806 3.896 14.635 23.494 9.957 29.187 19.373 6.653 11.097-4.794 56.202-8.21 69.217-6.533 24.652-21.456 44.624-25.772 69.276-7.252 41.386 7.432 38.087 35.241 63.939 46.868 43.604 9.29 88.83 21.097 140.052 9.589 41.747 51.483 63.279 66.826 105.024 11.867 32.15 28.168 40.366 53.461 63.879-.6-14.275-13.365-56.381 10.608-52.662 23.794 3.659 14.624 38.806 19.179 53.502 3.835 12.236 30.985 36.707 8.45 47.984-7.491 3.719-28.828-11.097-37.398-15.055 6.053 18.894 2.217 38.507 11.807 56.561 11.447 21.532 23.793 13.255 38.957 24.951 15.642 12.056 13.964 25.911 7.012 44.145-7.252 19.014-14.744 16.075-3.236 38.988 8.33 16.554 22.474 37.547 34.641 50.142 7.072 7.318 14.744 8.997 21.816 18.354 5.873 7.797 3.596 17.994 10.608 25.011 11.987 12.056 32.305 12.236 41.774 28.011 10.549 17.573-1.438 30.829 29.608 29.209 1.618 35.149 8.27 66.998 7.911 102.145 17.32 6.897 45.309-1.32 63.469-4.979 18.04 24.351 41.354 7.438 61.972 20.694 8.99 5.758 7.132 20.153 12.586 25.191 11.207 10.317 19.477 3.839 33.383 7.438 10.308 2.639 18.279 10.196 28.108 12.955 9.29 2.579 24.573-3.479 31.465 4.739 8.271 9.836-5.574 27.83 6.893 35.747 10.368 6.598 25.231-9.117 35.301-6.838 11.746 2.699 45.429 33.469 53.7 43.605 9.409 11.576 18.879 33.169 24.213 48.044 8.33 23.271 7.192 34.668 24.392 51.702 10.968 10.857.539 11.636 18.399 14.815 11.687 2.099 27.149-6.358 38.957-7.677 24.574-2.699 49.386 1.979 73.599-2.639 22.536-4.319 44.051-11.397 67.185-14.695 20.018-2.879 55.258-.66 72.998-10.197 19.24-10.256 20.98-33.469-6.83-29.149-2.22-14.815 7.67-35.269-3.36-45.524 15.34-20.993 20.92-35.808 23.32-61.479 1.07-11.277 1.55-23.753 7.13-33.23 5.45-9.357 20.79-14.935 23.79-22.972 4.62-12.476-2.76-18.054-8.39-25.011-3.6-4.499-13.84-2.34-16.78-6.298-5.46-7.258-.06-14.755-3.06-22.073-8.75-21.173-19.18-29.51-25.77-53.502.18 4.019.36 8.097.12 12.056" stroke="#fff" stroke-width="2.019" stroke-linecap="round" stroke-linejoin="round" opacity=".298"/><path d="M736.471 84.755c-8.652 23.609 11.611 31.894 27.829 47.324 4.805 4.572 5.264 12.126.206 16.696-10.877 9.826-52.118-4.469-49.502 8.484 2.702 13.378 37.569 32.096 39.141 33.376 13.799 11.24 18.294 39.757 10.693 55.392-5.408 11.125-41.263 7.375-52.542 3.67-73.859-24.261-40.578-21.368-123.545-28.901-6.351-.577-13.007-.872-19.107.989-6.283 1.918-6.083 9.783-3.975 14.036 6.986 14.091 38.26 37.993 29.844 56.516-2.582 5.684-8.634 9.274-11.358 14.891-2.135 4.399-1.898 9.594-2.847 14.391" stroke="#fff" stroke-width="2.019"/><path fill-rule="evenodd" clip-rule="evenodd" d="M579.344 329.169a6.563 6.563 0 100-13.126 6.563 6.563 0 100 13.126zm88.35 37.36a3.029 3.029 0 100-6.058 3.029 3.029 0 000 6.058zm64.623 109.05a3.029 3.029 0 100-6.058 3.029 3.029 0 000 6.058zm-363.5-245.362a3.03 3.03 0 10-.001-6.06 3.03 3.03 0 00.001 6.06zM736.861 91.884a6.563 6.563 0 100-13.127 6.563 6.563 0 000 13.127z" fill="#4AF6CD"/><path d="M402.551 313.853l-2.261 11.131h-1.971l-2.052-9.321-2.068 9.321h-1.923l-2.261-11.131h1.502l1.793 9.79 2.149-9.79h1.632l2.197 9.79 1.858-9.79h1.405zm8.214 6.624c0 .248-.011.501-.032.759h-5.429c.065.937.302 1.627.711 2.068.409.442.937.663 1.583.663.41 0 .787-.06 1.131-.178a4.562 4.562 0 001.083-.566l.646.889c-.905.711-1.896 1.066-2.973 1.066-1.184 0-2.111-.387-2.778-1.163-.657-.775-.986-1.842-.986-3.199 0-.883.14-1.664.42-2.342.291-.69.7-1.228 1.228-1.616.538-.388 1.169-.581 1.89-.581 1.131 0 1.998.371 2.601 1.114.603.743.905 1.772.905 3.086zm-1.47-.436c0-.84-.167-1.481-.501-1.923-.334-.441-.835-.662-1.503-.662-1.217 0-1.879.894-1.987 2.682h3.991v-.097zm6.154-3.764c.581 0 1.104.08 1.567.242.463.161.905.404 1.325.727l-.63.937a5.05 5.05 0 00-1.115-.549 3.345 3.345 0 00-1.099-.178c-.484 0-.867.102-1.147.307a.929.929 0 00-.42.808c0 .344.129.614.388.807.269.194.748.383 1.438.566.948.237 1.653.56 2.116.969.474.409.711.97.711 1.68 0 .84-.329 1.481-.986 1.923-.646.441-1.437.662-2.374.662-1.293 0-2.364-.371-3.215-1.114l.791-.905c.722.549 1.519.824 2.391.824.56 0 1.002-.113 1.325-.34a1.11 1.11 0 00.501-.953c0-.291-.059-.522-.178-.694-.118-.183-.323-.34-.614-.469-.291-.14-.716-.285-1.276-.436-.905-.237-1.562-.555-1.971-.953-.399-.399-.598-.905-.598-1.519 0-.441.129-.84.388-1.195a2.54 2.54 0 011.099-.841 3.959 3.959 0 011.583-.306zm9.528 8.32a3.272 3.272 0 01-1.906.581c-.722 0-1.287-.204-1.696-.614-.399-.42-.598-1.023-.598-1.809v-5.138h-1.486v-1.147h1.486v-1.922l1.486-.178v2.1h2.02l-.162 1.147h-1.858v5.073c0 .442.076.765.226.97.162.193.426.29.792.29.334 0 .711-.113 1.131-.339l.565.986zm8.643-10.938c.743 0 1.379.108 1.906.323.528.205 1.04.528 1.535.97l-.84.937a4.555 4.555 0 00-1.244-.727 3.396 3.396 0 00-1.292-.243c-.582 0-1.061.135-1.438.404-.377.27-.566.663-.566 1.18 0 .323.065.597.194.824.13.215.367.414.711.597.356.183.867.377 1.535.582.7.215 1.282.447 1.745.695a2.93 2.93 0 011.114 1.034c.291.43.437.98.437 1.648 0 .646-.162 1.217-.485 1.712-.312.495-.77.883-1.373 1.163-.593.28-1.298.42-2.117.42-1.54 0-2.8-.479-3.78-1.438l.84-.937c.452.367.91.647 1.373.84.463.184.98.275 1.551.275.69 0 1.26-.167 1.713-.501.452-.344.678-.84.678-1.486 0-.366-.07-.668-.21-.905-.14-.247-.382-.468-.727-.662-.334-.194-.824-.388-1.47-.582-1.142-.344-1.976-.759-2.504-1.244-.528-.484-.792-1.141-.792-1.971 0-.56.146-1.061.437-1.502a3.017 3.017 0 011.244-1.034c.538-.248 1.147-.372 1.825-.372zm9.983 2.618c.775 0 1.379.231 1.809.694.442.463.663 1.099.663 1.907v6.106h-1.487v-5.896c0-.604-.118-1.029-.355-1.277-.226-.247-.56-.371-1.002-.371-.441 0-.834.129-1.179.387-.345.259-.668.625-.969 1.099v6.058h-1.487v-11.922l1.487-.162v4.75c.667-.916 1.508-1.373 2.52-1.373zm8.658 0c1.196 0 2.122.398 2.779 1.195.668.797 1.002 1.879 1.002 3.247 0 .883-.151 1.664-.453 2.343-.301.668-.737 1.19-1.308 1.567-.571.366-1.25.549-2.036.549-1.195 0-2.127-.398-2.795-1.195-.667-.797-1.001-1.88-1.001-3.248 0-.883.15-1.658.452-2.326.302-.678.738-1.201 1.309-1.567.57-.377 1.254-.565 2.051-.565zm0 1.195c-1.475 0-2.213 1.088-2.213 3.263 0 2.165.732 3.248 2.197 3.248s2.197-1.088 2.197-3.264c0-2.165-.727-3.247-2.181-3.247zm9.936-1.195c.301 0 .581.032.84.096l-.275 1.454a3.087 3.087 0 00-.743-.096c-.528 0-.953.193-1.276.581-.323.388-.576.991-.76 1.81v4.862h-1.486v-8.514h1.276l.146 1.729c.226-.635.533-1.115.921-1.438.387-.323.84-.484 1.357-.484zm8.473 4.2c0 .248-.011.501-.032.759h-5.429c.065.937.302 1.627.711 2.068.409.442.937.663 1.583.663.41 0 .787-.06 1.131-.178a4.562 4.562 0 001.083-.566l.646.889c-.905.711-1.896 1.066-2.973 1.066-1.184 0-2.111-.387-2.778-1.163-.657-.775-.986-1.842-.986-3.199 0-.883.14-1.664.42-2.342.291-.69.7-1.228 1.228-1.616.538-.388 1.168-.581 1.89-.581 1.131 0 1.998.371 2.601 1.114.603.743.905 1.772.905 3.086zm-1.47-.436c0-.84-.167-1.481-.501-1.923-.334-.441-.835-.662-1.503-.662-1.217 0-1.879.894-1.987 2.682h3.991v-.097zm10.09-7.997v14.524h-.355v-14.524h.355zm19.011 12.94h-1.487l-.387-5.024c-.162-1.971-.253-3.484-.275-4.54l-2.407 8.304h-1.438l-2.536-8.32c0 1.346-.07 2.903-.21 4.669l-.372 4.911h-1.454l.921-11.131h2.068l2.342 8.094 2.23-8.094h2.084l.921 11.131zm8.277-1.987c0 .345.059.603.177.776.119.161.296.285.533.371l-.339 1.034c-.441-.054-.797-.177-1.066-.371s-.469-.496-.598-.905c-.571.851-1.416 1.276-2.536 1.276-.84 0-1.503-.237-1.987-.711-.485-.473-.727-1.093-.727-1.857 0-.905.323-1.6.969-2.085.657-.484 1.583-.727 2.779-.727h1.308v-.63c0-.603-.145-1.034-.436-1.292-.291-.259-.738-.388-1.341-.388-.625 0-1.389.151-2.294.453l-.371-1.083c1.055-.388 2.035-.581 2.94-.581 1.001 0 1.75.247 2.245.743.496.484.744 1.179.744 2.084v3.893zm-3.49 1.067c.851 0 1.519-.442 2.003-1.325v-1.955h-1.114c-1.573 0-2.359.582-2.359 1.745 0 .506.124.888.371 1.147.248.258.614.388 1.099.388zm8.081 1.114c-.55 0-.986-.161-1.309-.484-.312-.334-.468-.797-.468-1.39v-10.259l1.486-.177v10.404c0 .237.038.409.113.517.086.108.226.161.42.161.205 0 .388-.032.549-.097l.388 1.034a2.42 2.42 0 01-1.179.291zm4.523-8.708v8.514h-1.487v-8.514h1.487zm-.76-4.087c.313 0 .566.097.76.291a.986.986 0 01.291.727.986.986 0 01-.291.727c-.194.183-.447.274-.76.274-.301 0-.549-.091-.743-.274a.986.986 0 01-.291-.727c0-.291.097-.533.291-.727.194-.194.442-.291.743-.291zm7.726 3.894c.97 0 1.74.393 2.311 1.179.571.775.856 1.863.856 3.263 0 .883-.135 1.664-.404 2.343-.269.668-.657 1.19-1.163 1.567-.506.366-1.099.549-1.777.549-.894 0-1.648-.377-2.262-1.131l-.145.937h-1.309v-11.939l1.486-.177v4.669c.614-.84 1.417-1.26 2.407-1.26zm-.533 7.722c.657 0 1.169-.264 1.535-.792.377-.538.566-1.368.566-2.488 0-1.152-.173-1.981-.517-2.488-.345-.517-.835-.775-1.471-.775-.754 0-1.416.441-1.987 1.325v4.071c.226.355.501.635.824.84.334.205.684.307 1.05.307zm12.565.985h-1.276l-.113-1.324c-.323.527-.695.915-1.115 1.163-.42.237-.931.355-1.535.355-.743 0-1.324-.226-1.744-.678-.42-.453-.63-1.093-.63-1.923v-6.107h1.486v5.946c0 .581.102.996.307 1.244.204.237.538.355 1.001.355.83 0 1.541-.49 2.133-1.47v-6.075h1.486v8.514zm3.458-2.051c.323 0 .592.107.808.323.215.215.323.479.323.791 0 .334-.097.717-.291 1.147l-1.082 2.472h-1.067l.647-2.682a1.238 1.238 0 01-.34-.404 1.248 1.248 0 01-.113-.533c0-.312.108-.576.323-.791.216-.216.48-.323.792-.323zm11.743-9.274c.668 0 1.228.086 1.68.259.464.172.932.452 1.406.84l-.84.985c-.679-.549-1.395-.824-2.149-.824-.926 0-1.675.356-2.245 1.067-.56.711-.841 1.852-.841 3.425 0 1.529.281 2.66.841 3.392.56.722 1.303 1.083 2.229 1.083.474 0 .889-.081 1.244-.243a6.515 6.515 0 001.131-.678l.759.969c-.344.356-.786.652-1.325.889-.538.237-1.157.355-1.857.355-.905 0-1.713-.221-2.424-.662-.7-.452-1.249-1.109-1.648-1.971-.387-.873-.581-1.917-.581-3.134 0-1.217.204-2.257.614-3.118.409-.873.964-1.53 1.664-1.971a4.297 4.297 0 012.342-.663zm11.076 11.325l-.84-2.795h-4.217l-.84 2.795h-1.551l3.571-11.131h1.938l3.555 11.131h-1.616zm-4.685-4.039h3.473l-1.728-5.816-1.745 5.816zm48.181-244.57c.668 0 1.228.086 1.68.258.464.172.932.453 1.406.84l-.84.986c-.679-.55-1.395-.824-2.149-.824-.926 0-1.675.355-2.245 1.066-.56.71-.84 1.853-.84 3.425 0 1.53.28 2.66.84 3.393.56.721 1.303 1.082 2.229 1.082.474 0 .889-.08 1.244-.242a6.57 6.57 0 001.131-.679l.759.97c-.344.355-.786.651-1.324.888-.539.237-1.158.356-1.858.356-.905 0-1.713-.221-2.424-.663-.7-.452-1.249-1.11-1.648-1.97-.387-.873-.581-1.918-.581-3.135 0-1.217.204-2.256.614-3.118.409-.872.964-1.53 1.664-1.971a4.3 4.3 0 012.342-.662zM615.594 87.7h-1.276l-.113-1.325c-.323.528-.695.915-1.115 1.163-.42.237-.932.356-1.535.356-.743 0-1.325-.227-1.745-.679-.42-.452-.63-1.093-.63-1.922v-6.107h1.487v5.945c0 .582.102.996.307 1.244.204.237.538.355 1.001.355.829 0 1.54-.49 2.133-1.47v-6.074h1.486V87.7zm6.77-8.708c.301 0 .581.032.84.097l-.275 1.454a3.06 3.06 0 00-.743-.097c-.528 0-.953.194-1.276.582-.323.387-.577.99-.76 1.809V87.7h-1.486v-8.514h1.276l.146 1.728c.226-.635.533-1.114.921-1.438.387-.323.84-.484 1.357-.484zm6.232 0c.301 0 .581.032.84.097l-.275 1.454a3.06 3.06 0 00-.743-.097c-.528 0-.953.194-1.276.582-.324.387-.577.99-.76 1.809V87.7h-1.486v-8.514h1.276l.146 1.728c.226-.635.533-1.114.92-1.438a2.058 2.058 0 011.358-.484zm8.473 4.2c0 .248-.011.501-.033.76h-5.428c.065.937.302 1.626.711 2.067.409.442.937.663 1.583.663.409 0 .786-.06 1.131-.178a4.556 4.556 0 001.082-.565l.647.888c-.905.711-1.896 1.067-2.973 1.067-1.185 0-2.111-.388-2.779-1.164-.657-.775-.985-1.841-.985-3.198 0-.884.14-1.664.42-2.343.291-.69.7-1.228 1.228-1.615.538-.388 1.168-.582 1.89-.582 1.131 0 1.998.371 2.601 1.115.603.743.905 1.771.905 3.085zm-1.471-.436c0-.84-.166-1.48-.5-1.922-.334-.442-.835-.663-1.503-.663-1.217 0-1.879.894-1.987 2.682h3.99v-.097zm7.851-3.764c.775 0 1.378.231 1.809.695.442.463.663 1.098.663 1.906V87.7h-1.487v-5.897c0-.603-.113-1.029-.339-1.276-.226-.248-.56-.372-1.002-.372-.452 0-.85.13-1.195.388-.345.258-.668.63-.969 1.114V87.7h-1.487v-8.514h1.277l.129 1.26a3.383 3.383 0 011.115-1.066 2.94 2.94 0 011.486-.388zm9.757 8.32a3.27 3.27 0 01-1.907.582c-.721 0-1.287-.205-1.696-.614-.398-.42-.598-1.023-.598-1.81v-5.137h-1.486v-1.147h1.486v-1.923l1.487-.178v2.1h2.019l-.161 1.148h-1.858v5.073c0 .441.075.764.226.969.161.194.425.29.791.29.334 0 .711-.112 1.131-.339l.566.986zm7.431-10.743v9.79h4.572l-.178 1.34h-5.929V76.57h1.535zm9.219 2.423c1.196 0 2.122.398 2.779 1.195.668.797 1.002 1.88 1.002 3.248 0 .883-.151 1.664-.453 2.342a3.608 3.608 0 01-1.308 1.567c-.571.367-1.25.55-2.036.55-1.195 0-2.127-.399-2.795-1.196-.668-.797-1.001-1.88-1.001-3.247 0-.883.15-1.659.452-2.327.301-.678.738-1.2 1.308-1.567.571-.377 1.255-.565 2.052-.565zm0 1.195c-1.475 0-2.213 1.088-2.213 3.264 0 2.165.732 3.247 2.197 3.247s2.197-1.088 2.197-3.263c0-2.165-.727-3.248-2.181-3.248zm9.338-1.195c.506 0 .969.075 1.389.226.42.14.824.372 1.212.695l-.711.937a3.382 3.382 0 00-.888-.469 2.6 2.6 0 00-.938-.161c-.689 0-1.227.274-1.615.824-.377.549-.566 1.362-.566 2.44 0 1.076.189 1.873.566 2.39.377.506.915.76 1.615.76.334 0 .641-.049.921-.146.28-.108.593-.275.937-.5l.679.969c-.776.624-1.643.937-2.601.937-1.153 0-2.063-.388-2.73-1.164-.657-.775-.986-1.847-.986-3.215 0-.904.151-1.696.452-2.374.302-.679.727-1.207 1.277-1.584.56-.377 1.222-.565 1.987-.565zm10.19 6.72c0 .345.06.604.178.776.119.162.296.285.533.372l-.339 1.034c-.442-.054-.797-.178-1.066-.372-.27-.194-.469-.495-.598-.905-.571.851-1.416 1.277-2.536 1.277-.841 0-1.503-.237-1.988-.711-.484-.474-.727-1.094-.727-1.858 0-.905.323-1.6.97-2.084.657-.485 1.583-.727 2.778-.727h1.309v-.63c0-.603-.145-1.034-.436-1.293-.291-.258-.738-.387-1.341-.387-.625 0-1.389.15-2.294.452l-.372-1.083c1.056-.387 2.036-.581 2.941-.581 1.001 0 1.75.248 2.245.743.496.485.743 1.18.743 2.084v3.894zm-3.489 1.067c.851 0 1.518-.442 2.003-1.325V83.5h-1.115c-1.572 0-2.358.582-2.358 1.745 0 .506.123.889.371 1.147.248.259.614.388 1.099.388zm10.839.533a3.268 3.268 0 01-1.906.582c-.722 0-1.287-.205-1.696-.614-.399-.42-.598-1.023-.598-1.81v-5.137h-1.486v-1.147h1.486v-1.923l1.486-.178v2.1h2.02l-.162 1.148h-1.858v5.073c0 .441.076.764.226.969.162.194.426.29.792.29.334 0 .711-.112 1.131-.339l.565.986zm3.027-8.126V87.7h-1.487v-8.514h1.487zm-.76-4.088c.313 0 .566.097.76.291.194.194.29.436.29.727s-.096.533-.29.727c-.194.183-.447.275-.76.275-.301 0-.549-.092-.743-.275a.986.986 0 01-.291-.727c0-.29.097-.533.291-.727.194-.194.442-.29.743-.29zm7.032 3.894c1.195 0 2.121.398 2.778 1.195.668.797 1.002 1.88 1.002 3.248 0 .883-.151 1.664-.452 2.342-.302.668-.738 1.19-1.309 1.567-.571.367-1.249.55-2.035.55-1.196 0-2.128-.399-2.795-1.196-.668-.797-1.002-1.88-1.002-3.247 0-.883.151-1.659.452-2.327.302-.678.738-1.2 1.309-1.567.571-.377 1.255-.565 2.052-.565zm0 1.195c-1.476 0-2.214 1.088-2.214 3.264 0 2.165.733 3.247 2.198 3.247 1.464 0 2.197-1.088 2.197-3.263 0-2.165-.727-3.248-2.181-3.248zm10.242-1.195c.776 0 1.379.231 1.809.695.442.463.663 1.098.663 1.906V87.7h-1.486v-5.897c0-.603-.114-1.029-.34-1.276-.226-.248-.56-.372-1.001-.372-.453 0-.851.13-1.196.388s-.668.63-.969 1.114V87.7h-1.487v-8.514h1.277l.129 1.26a3.393 3.393 0 011.115-1.066 2.943 2.943 0 011.486-.388z" fill="#fff"/></svg>