<svg width="61" height="48" fill="none" xmlns="http://www.w3.org/2000/svg"><path fill-rule="evenodd" clip-rule="evenodd" d="M59.597 43.861a.52.52 0 01-.035.083.172.172 0 01-.056.073.889.889 0 01-.033.048l-.016.024c-.02.023-.04.05-.061.073a1.282 1.282 0 01-.17.144 2.174 2.174 0 01-.035.022l-.02.011-.015.008a.693.693 0 01-.157.07l-.018.007a.14.14 0 01-.02.006c-.005.002-.01.002-.013.002h-.013a.893.893 0 01-.226.032c-.106 0-.144.016-.144.016-.043.05-.121.304-.171.464l-.005.016c-.183.593-.567 1.827-2.117 1.827-1.325 0-1.984-.888-2.465-1.538l-.004-.005c-.451-.614-.623-.78-.962-.78-.338 0-.508.166-.962.778l-.003.005c-.482.65-1.14 1.538-2.468 1.538-1.326 0-1.984-.889-2.466-1.538l-.004-.005c-.451-.612-.623-.778-.961-.778-.337 0-.508.166-.962.78-.48.65-1.14 1.543-2.47 1.543-1.328 0-1.986-.888-2.468-1.538l-.003-.005c-.452-.612-.624-.778-.962-.778-.339 0-.508.166-.962.778-.48.65-1.138 1.543-2.47 1.543-1.325 0-1.984-.888-2.465-1.538l-.004-.005c-.451-.612-.623-.778-.962-.778-.336 0-.508.166-.962.78-.48.651-1.14 1.543-2.469 1.543-1.326 0-1.984-.888-2.466-1.538l-.003-.004c-.452-.612-.623-.779-.962-.779-.336 0-.508.167-.962.781-.48.65-1.14 1.543-2.47 1.543a1.4 1.4 0 01-1.074-.487c-.656-.754-.524-2.04-.254-4.077l.005-.035c.096-.737.243-1.86.195-2.407-1.757.346-4.25 3.9-5.543 6.484a.937.937 0 01-.84.522c-.019 0-.037 0-.056-.002a.937.937 0 01-.828-.622c-.216-.603-2.065-5.974-.143-8.945.72-1.11 1.886-1.75 3.377-1.847 1.296-.085 1.888-.436 2.001-.714.075-.185-.045-.5-.308-.802-.7-.805-2.267-1.45-4.05-.961-2.471.674-5.242 4.018-6.175 7.454-.327 1.208-.68 3.444.656 4.828a.957.957 0 01-.02 1.343.934.934 0 01-1.33-.02c-1.475-1.525-1.872-3.889-1.122-6.651.971-3.58 4.043-7.844 7.5-8.786 2.575-.703 4.844.266 5.954 1.54.77.88 1 1.894.635 2.782-.317.771-1.202 1.725-3.62 1.884-.9.06-1.528.384-1.92.99-.793 1.224-.61 3.396-.25 5.128 1.411-2.285 3.888-5.605 6.451-5.525.414.015.788.195 1.051.51.264.314.393.72.44 1.223 1.73-1.156 4.257-2.3 9.243-2.808-5.405-22.095 4.755-34.533 5.216-35.081l.011-.01a.384.384 0 01.16-.147c.03-.02.058-.035.088-.052l.02-.012c.02-.012.038-.023.06-.033a.917.917 0 01.136-.045l.033-.009a.9.9 0 01.214-.027l.139.005c.277 0 .538.121.717.335.46.545 10.57 12.92 5.263 34.908 13.88.82 15.578 6.41 15.643 6.654.003.01.003.022.005.031l.014.093c.005.033.01.066.01.1v.014l.002.007v.025l-.004.03v.007l-.001.003a.816.816 0 01-.03.184l-.005.017-.004.011a.563.563 0 01-.02.062zm-20.79-4.314h2.433c5.355-17.673.317-29.587-2.432-34.317v34.317zm-1.88-34.068v34.068h-2.293c-5.252-17.33-.478-29.168 2.292-34.068zM56.599 44.42l.005-.015h-.001c.11-.356.298-.94.762-1.35-1.042-1.33-4.327-4.059-13.863-4.555-.207.752-.43 1.514-.675 2.288a.943.943 0 01-.896.662H33.94a.943.943 0 01-.896-.662 70.608 70.608 0 01-.628-2.131c-6.047.574-8.21 2.105-9.863 3.396l-.022.166c-.01.087-.022.175-.035.268-.092.693-.233 1.76-.204 2.33.171-.102.345-.31.627-.695l.004-.004c.482-.65 1.14-1.538 2.468-1.538 1.326 0 1.984.888 2.466 1.538l.003.004c.452.612.624.779.962.779.339 0 .508-.167.962-.779l.004-.004c.481-.65 1.14-1.538 2.468-1.538 1.326 0 1.984.888 2.466 1.538l.003.004c.454.612.626.779.962.779.339 0 .508-.167.962-.779.48-.65 1.138-1.542 2.47-1.542 1.325 0 1.983.888 2.465 1.538l.004.004c.454.615.625.781.964.781.339 0 .508-.166.962-.778l.003-.005c.482-.65 1.14-1.538 2.468-1.538 1.326 0 1.985.888 2.466 1.538l.004.005c.451.612.623.778.962.778.338 0 .51-.166.964-.78.48-.651 1.14-1.543 2.47-1.543 1.327 0 1.986.888 2.468 1.538l.003.004c.454.612.625.779.962.779.106 0 .143-.017.143-.017.044-.05.122-.304.172-.464z" fill="#fff"/><path d="M59.562 43.944l-.44-.238.758.624-.318-.386zm.035-.083l-.462-.19-.007.016-.005.017.474.157zm-.034.083l.448.222-.766-.608.318.386zm-.057.073l-.279-.414-.087.058-.057.09.423.266zm-.033.048l.406.292-.406-.292zm-.016.024l.392.31.01-.012.009-.013-.411-.285zm-.061.073l.355.352.009-.01.009-.009-.373-.333zm-.06.057l-.333-.372-.011.01-.01.01.355.352zm-.074.064l.279.415.008-.006.008-.006-.295-.403zm-.036.023l-.269-.421.27.421zm-.035.022l.225.447.018-.009.016-.01-.259-.428zm-.02.011l-.242-.438.241.438zm-.015.008l-.245-.436.245.436zm-.05.026l-.21-.453-.008.003-.007.004.225.446zm-.029.013l-.186-.464.186.464zm-.033.013l-.171-.47.171.47zm-.027.01l.177.468.004-.002-.181-.466zm-.018.008l.2.458-.2-.458zm-.018.007l.18.467-.18-.467zm-.02.006l-.11-.488-.013.004.123.484zm-.015.002v-.5h-.001l.001.5zm-.011 0l-.122-.484h-.004l.126.485zm-.37.048l-.201-.457-.104.046-.074.086.38.325zm-.171.464l.477.149-.477-.149zm-.005.016l-.477-.149.477.149zm-4.582.289l-.402.297.402-.297zm-.004-.005l-.403.296.001.002.402-.298zm-1.924-.002l.402.298-.402-.298zm-.003.005l-.401-.298.401.297zm-4.934 0l.401-.298-.401.297zm-.004-.005l-.402.297.402-.297zm-1.923.002l-.403-.297.403.297zm-4.938.005l.402-.298-.402.298zm-.003-.005l-.403.297.001.001.402-.298zm-1.924 0l-.402-.297.402.297zm-4.935.005l.401-.298-.401.298zm-.004-.005l-.402.297v.001l.402-.298zm-1.923.003l-.403-.297.402.297zm-4.936.004l.402-.297-.402.297zm-.003-.004l-.403.297h.001l.402-.297zm-1.924.002l-.402-.297.402.297zm-3.544 1.056l.378-.326v-.002l-.378.328zm-.254-4.077l.496.066-.496-.066zm.005-.035l-.496-.065.496.065zm.195-2.407l.498-.044-.05-.554-.545.107.097.491zm-5.543 6.484l-.447-.224-.001.002.448.222zm-.896.52l.063-.496-.018-.003h-.017l-.028.499zm-.828-.622l.471-.168v-.001l-.47.169zm-.143-8.945l-.42-.272.42.272zm3.377-1.847l.032.5-.032-.5zm2.001-.714l.463.188-.463-.188zm-.308-.802l-.377.328.377-.328zm-4.05-.961l.132.482-.132-.482zm-6.175 7.454l-.483-.13.483.13zm.656 4.828l.36-.347-.36.347zm-.02 1.343l.35.357h.001l-.35-.357zm-1.33-.02l.36-.346-.36.347zm-1.122-6.651l.483.13-.483-.13zm7.5-8.786l.131.482-.131-.482zm5.954 1.54l-.377.329.377-.329zm.635 2.782l.462.19-.462-.19zm-3.62 1.884l-.032-.499.033.5zm-1.92.99l-.42-.273v.001l.42.272zm-.25 5.128l-.49.102.256 1.23.66-1.069-.426-.263zm6.451-5.525l.017-.5h-.001l-.016.5zm1.051.51l-.384.32.002.002.382-.321zm.44 1.223l-.498.046.078.835.698-.465-.278-.416zm9.243-2.808l.05.498.572-.059-.137-.558-.485.12zM37.146 1.71l-.355-.352-.015.015-.013.015.383.322zm.011-.01l.312.39-.312-.39zm.015-.014l-.37-.337-.017.019-.015.02.402.298zm.087-.083l.324.38.016-.013.015-.015-.355-.352zm.058-.05l-.279-.414.28.414zm.088-.052l.246.435-.246-.435zm.02-.012l.246.436.011-.006.01-.007-.266-.423zm.06-.033l-.196-.46-.01.004.205.456zm.136-.045l-.072-.495-.025.004-.026.006.123.485zm.033-.009l.16.474.004-.002-.164-.472zm0 0l-.16-.474-.004.002.164.472zm.016-.005l-.11-.488-.014.003-.014.004.138.48zm.198-.022l.017-.5h-.017v.5zm.139.005l-.018.5h.018v-.5zm.717.335l-.384.32.002.002.382-.322zm5.263 34.908l-.486-.117-.14.58.596.036.03-.5zm15.643 6.654l.486-.12-.003-.01-.483.13zm.005.031l.494-.075-.003-.023-.006-.022-.485.12zm.014.093l.495-.07v-.006l-.495.076zm.01.106l-.498.046.001.01.497-.056zm0 .008l-.496.056v.005l.497-.061zm.002.007l.498-.043-.498.043zm0 .025l-.5-.036.5.036zm-.004.03l-.496-.061.496.062zm0 .007l-.497-.063-.002.014v.013l.498.035zm-.001.003l-.499-.035.499.035zm-.012.098l-.489-.103-.002.01-.002.012.493.081zm-.003.022l.49.099-.49-.099zm-.004.018l-.488-.11v.001l.488.11zm-.011.046l.48.141.002-.01.003-.01-.485-.121zm-.005.017l-.48-.142-.001.005.48.136zm-.004.011l-.48-.136.48.136zM41.24 39.547v.5h.37l.108-.355-.478-.145zm-2.432 0h-.5v.5h.5v-.5zm0-34.317l.432-.252-.932-1.604V5.23h.5zm-1.882 34.317v.5h.5v-.5h-.5zm0-34.068h.5v-1.9l-.935 1.654.435.246zm-2.292 34.068l-.479.145.108.355h.37v-.5zm21.97 4.858l.477.148.231-.746-.773.102.065.496zm-.005.015l.477.148-.477-.148zm.004-.015l-.478-.149-.231.746.774-.102-.065-.495zm.762-1.35l.331.373.353-.312-.29-.37-.394.308zM43.502 38.5l.026-.5-.402-.02-.106.387.482.133zm-.675 2.288l.476.15-.476-.15zm-9.783 0l-.477.15.477-.15zm-.628-2.131l.482-.135-.113-.403-.416.04.047.498zm-9.863 3.396l-.308-.394-.161.126-.027.202.496.066zm-.022.166l.496.063-.496-.063zm-.035.268l-.495-.069v.003l.495.066zm-.204 2.33l-.5.025.041.83.714-.425-.255-.43zm.627-.695l-.401-.297-.002.001.404.296zm.004-.004l-.402-.298.402.298zm4.934 0l-.402.297.402-.297zm.003.004l.403-.297-.403.297zm1.924 0l.402.298-.402-.298zm.004-.004l-.402-.298.402.298zm4.934 0l-.402.297.402-.297zm.003.004l.402-.298-.402.298zm1.924 0l.402.298v-.001l-.402-.297zm4.935-.004l.402-.298-.402.298zm.004.004l.402-.297-.402.297zm1.926.003l-.402-.298.402.298zm.003-.005l-.402-.298.402.298zm4.934 0l-.401.298.401-.298zm.004.005l.402-.297v-.001l-.402.298zm1.926-.003l.402.297-.402-.297zm4.938-.004l-.402.297.401-.297zm.003.004l.402-.298-.402.298zm1.105.762l.202.457.104-.046.074-.086-.38-.325zm3.575-.702c.03-.057.053-.113.07-.164l-.95-.314a.05.05 0 01-.001.005l.001-.003.88.476zm-.757-.624l.635.772-.635-.772zm.54.874c.148-.1.21-.236.226-.266l-.896-.444c-.014.027.02-.058.112-.12l.558.83zm.095-.075l.05-.073-.847-.533a.501.501 0 01-.016.023l.813.583zm-.012.017c.002-.005.006-.009.011-.017l-.812-.583a3.188 3.188 0 00-.021.03l.822.57zm-.1.121c.032-.035.06-.07.08-.096l-.783-.621a1.144 1.144 0 01-.043.051l.747.666zm-.097.096c.033-.03.062-.06.08-.077l-.71-.704-.038.037.668.744zm-.114.095a1.15 1.15 0 00.135-.115l-.71-.704-.005.004a.211.211 0 01-.011.01l.591.805zm-.061.042l.045-.03-.558-.83-.026.017.539.843zm-.046.028l.046-.029-.539-.842a1.504 1.504 0 01-.025.016l.518.855zm-.039.022l.005-.003-.45-.893a1.106 1.106 0 00-.037.02l.482.876zm-.01.006l.01-.007-.482-.876a2.216 2.216 0 00-.018.01l.49.873zm-.084.043c.038-.018.07-.036.083-.043l-.489-.873a.701.701 0 01-.015.009c-.003.001-.003.001 0 0l.422.907zm-.054.023a.877.877 0 00.069-.03l-.45-.893.009-.005.372.928zm-.047.018l.047-.018-.372-.928a.62.62 0 01-.018.007l.343.94zm-.018.007l.018-.007-.343-.939a1.541 1.541 0 00-.037.014l.362.932zm.002 0l.003-.002-.01.004-.353-.936-.042.018.402.915zm-.04.016l.04-.016-.402-.916-.003.001.007-.003.359.934zm-.09.027a.65.65 0 00.09-.027l-.358-.934a.341.341 0 01.05-.014l.218.975zm-.122.014s.063.001.135-.017l-.245-.97c.063-.015.117-.014.11-.014v1zm-.002 0h.002v-1h-.002v1zm.11-.014c-.056.014-.103.014-.108.014l-.003-1c-.013 0-.067 0-.132.016l.244.97zm-.347.046c.129 0 .247-.02.352-.047l-.252-.968a.398.398 0 01-.1.015v1zm-.144-.484l.202.458h-.002l-.001.001-.004.002-.007.003-.013.005a.358.358 0 01-.052.015c-.011.002-.006 0 .02 0v-1a1.114 1.114 0 00-.279.035.656.656 0 00-.05.017l-.008.004-.004.001-.002.001h-.001l.202.458zm.306.612a8.186 8.186 0 01.116-.344l.003-.006-.01.018a.4.4 0 01-.035.045l-.76-.65a.754.754 0 00-.117.2c-.021.049-.04.102-.058.151-.035.1-.07.212-.094.29l.955.296zm-.004.016l.004-.015-.955-.297-.004.015.955.297zm-2.594 2.179c.932 0 1.555-.382 1.957-.875.382-.467.547-1.014.637-1.305l-.956-.295c-.093.302-.212.67-.455.968-.222.272-.566.507-1.184.507v1zm-2.868-1.74c.474.639 1.267 1.74 2.867 1.74v-1c-1.05 0-1.574-.675-2.064-1.336l-.803.596zm-.004-.005l.004.005.803-.596-.003-.004-.804.595zm-.56-.578c.043 0 .058.005.062.006a.19.19 0 01.056.037c.088.073.21.218.441.533l.806-.592c-.22-.299-.41-.545-.606-.708a1.122 1.122 0 00-.759-.276v1zm-.56.576c.234-.315.355-.46.443-.533a.192.192 0 01.056-.037.183.183 0 01.061-.006v-1c-.282 0-.523.08-.758.275-.195.163-.385.408-.605.705l.803.596zm-.003.004l.003-.004-.803-.596-.004.005.804.595zm-2.87 1.74c1.602 0 2.396-1.1 2.87-1.74l-.804-.595c-.489.66-1.012 1.336-2.066 1.336v1zm-2.868-1.74c.474.64 1.268 1.74 2.868 1.74v-1c-1.052 0-1.575-.675-2.065-1.335l-.803.595zm-.003-.004l.003.004.803-.595-.003-.005-.803.596zm-.56-.576c.042 0 .057.005.062.006a.193.193 0 01.056.037c.088.073.21.217.441.532l.805-.594c-.22-.298-.41-.543-.606-.706a1.123 1.123 0 00-.758-.275v1zm-.56.577c.233-.315.355-.46.443-.534a.179.179 0 01.056-.037.176.176 0 01.06-.006v-1c-.281 0-.523.08-.757.276-.195.163-.386.408-.607.707l.805.594zm-2.872 1.746c1.604 0 2.4-1.106 2.872-1.746l-.805-.593c-.487.66-1.013 1.339-2.067 1.339v1zm-2.87-1.74c.475.64 1.268 1.74 2.87 1.74v-1c-1.053 0-1.577-.676-2.066-1.336l-.804.596zm-.003-.005l.003.005.804-.596-.004-.004-.803.595zm-.56-.576c.042 0 .057.005.062.007a.195.195 0 01.056.037c.088.073.21.217.441.531l.805-.593c-.22-.298-.41-.543-.605-.707a1.123 1.123 0 00-.76-.275v1zm-.56.576c.233-.315.355-.46.443-.533a.191.191 0 01.055-.037.185.185 0 01.062-.006v-1c-.283 0-.524.08-.758.276-.195.163-.385.407-.606.705l.804.595zm-2.871 1.745c1.606 0 2.4-1.106 2.871-1.746l-.804-.593c-.488.66-1.011 1.339-2.067 1.339v1zm-2.868-1.74c.474.639 1.268 1.74 2.868 1.74v-1c-1.052 0-1.575-.675-2.065-1.336l-.803.596zm-.003-.005l.003.005.803-.596-.003-.005-.803.596zm-.56-.576a.19.19 0 01.062.007.195.195 0 01.056.037c.087.073.209.217.44.531l.806-.593c-.22-.298-.41-.543-.606-.707a1.123 1.123 0 00-.759-.275v1zm-.56.578c.233-.316.355-.46.443-.534a.194.194 0 01.056-.038.179.179 0 01.06-.006v-1c-.282 0-.523.08-.757.276-.195.163-.386.409-.607.708l.805.594zm-2.872 1.745c1.604 0 2.4-1.105 2.872-1.745l-.805-.594c-.487.66-1.013 1.34-2.067 1.34v1zm-2.867-1.74c.473.64 1.267 1.74 2.867 1.74v-1c-1.051 0-1.575-.675-2.064-1.335l-.803.595zm-.004-.004l.004.004.803-.596-.004-.004-.803.596zm-.56-.577c.042 0 .058.005.062.007a.19.19 0 01.056.037c.088.073.21.217.441.532l.805-.594c-.22-.298-.41-.543-.605-.706a1.123 1.123 0 00-.76-.276v1zm-.56.578c.233-.315.356-.46.444-.534a.195.195 0 01.056-.037.178.178 0 01.06-.007v-1c-.282 0-.523.08-.758.277-.195.163-.385.408-.606.707l.804.594zm-2.871 1.746c1.603 0 2.4-1.106 2.871-1.746l-.804-.594c-.488.66-1.013 1.34-2.067 1.34v1zm-1.453-.66a1.9 1.9 0 001.453.66v-1a.9.9 0 01-.697-.313l-.756.653zm-.372-4.47c-.134 1.01-.24 1.88-.224 2.597.016.72.157 1.37.597 1.874l.754-.656c-.217-.25-.337-.62-.352-1.241-.014-.625.08-1.415.217-2.442l-.992-.132zm.005-.034l-.005.035.992.13.004-.035-.991-.13zm.193-2.298c.02.222 0 .597-.043 1.04a38.5 38.5 0 01-.15 1.258l.991.13c.049-.367.11-.84.154-1.292.043-.44.073-.9.044-1.224l-.996.088zm-4.598 6.664c.633-1.265 1.561-2.77 2.541-3.993.49-.612.984-1.143 1.452-1.537.477-.402.884-.625 1.2-.687l-.194-.982c-.562.111-1.125.462-1.65.904-.535.45-1.074 1.035-1.589 1.677a24.758 24.758 0 00-2.654 4.17l.894.448zm-1.287.798c.542 0 1.043-.306 1.288-.8l-.896-.444a.437.437 0 01-.392.244v1zm-.119-.006c.055.007.106.006.12.006v-1h-.014l.018.002-.125.992zm-1.236-.95c.194.544.695.92 1.27.953l.057-.999a.437.437 0 01-.385-.29l-.942.336zm-.092-9.385c-1.064 1.646-1.058 3.889-.806 5.701.256 1.839.785 3.369.898 3.685l.942-.338a18.713 18.713 0 01-.849-3.485c-.246-1.766-.203-3.694.654-5.02l-.84-.543zm3.764-2.074c-1.625.107-2.947.812-3.764 2.074l.84.544c.621-.96 1.633-1.531 2.99-1.62l-.066-.998zm1.57-.403c.021-.051.002.038-.283.155-.26.107-.675.208-1.287.248l.066.998c.683-.045 1.212-.161 1.601-.321.363-.15.697-.375.83-.704l-.926-.376zm-.22-.285c.102.117.162.221.19.294a.238.238 0 01.016.058c0 .002-.002-.025.015-.067l.926.376c.107-.262.05-.532-.023-.724a2.029 2.029 0 00-.372-.595l-.753.658zm-3.542-.808c1.61-.441 2.974.156 3.54.807l.755-.657c-.835-.957-2.602-1.651-4.559-1.114l.264.964zm-5.825 7.103c.446-1.642 1.336-3.274 2.414-4.575 1.085-1.31 2.314-2.229 3.41-2.528l-.262-.965c-1.375.376-2.767 1.466-3.918 2.855-1.16 1.4-2.122 3.157-2.609 4.951l.965.262zm.533 4.35c-.553-.574-.777-1.343-.811-2.154-.035-.812.122-1.617.278-2.196l-.965-.261c-.17.63-.353 1.546-.312 2.5.04.954.309 1.995 1.09 2.805l.72-.695zM9.25 46.88c.567-.557.581-1.47.03-2.046l-.722.693a.457.457 0 01-.009.64l.701.713zm-2.04-.028a1.434 1.434 0 002.04.03l-.7-.716a.434.434 0 01-.622-.008l-.719.694zm-1.246-7.13c-.778 2.865-.393 5.435 1.245 7.13l.72-.695c-1.311-1.356-1.722-3.513-1-6.173l-.965-.262zm7.851-9.137c-1.868.509-3.582 1.896-4.939 3.571-1.362 1.682-2.406 3.704-2.912 5.566l.966.262c.466-1.718 1.442-3.617 2.723-5.198 1.286-1.587 2.836-2.803 4.425-3.237l-.263-.964zm6.463 1.694c-1.235-1.418-3.701-2.448-6.463-1.694l.263.964c2.389-.651 4.461.256 5.446 1.387l.754-.657zm.72 3.3c.454-1.105.14-2.315-.72-3.3l-.753.657c.676.775.824 1.592.549 2.263l.925.38zm-4.048 2.193c1.268-.083 2.18-.378 2.83-.788.657-.414 1.023-.93 1.218-1.405l-.924-.38c-.122.295-.357.643-.827.939-.475.299-1.214.56-2.363.636l.066.998zm-1.535.763c.286-.44.749-.711 1.535-.763l-.066-.998c-1.016.067-1.808.447-2.308 1.216l.839.545zm-.18 4.755c-.175-.846-.304-1.785-.296-2.649.008-.877.156-1.612.476-2.107l-.84-.543c-.472.73-.628 1.693-.636 2.641-.009.96.133 1.974.318 2.861l.979-.203zm5.978-5.923c-1.496-.047-2.886.89-4.025 2.02-1.157 1.145-2.153 2.585-2.867 3.742l.85.525c.698-1.13 1.646-2.492 2.72-3.557 1.093-1.082 2.223-1.764 3.29-1.73l.032-1zm1.42.69a1.914 1.914 0 00-1.419-.69l-.034.999c.274.01.514.127.684.33l.768-.64zm.553 1.495c-.052-.559-.202-1.077-.555-1.497l-.765.643c.173.207.282.5.324.947l.996-.093zm8.694-3.258c-5.052.514-7.66 1.68-9.47 2.889l.556.832c1.651-1.103 4.096-2.225 9.015-2.726l-.101-.995zm4.884-34.906c-.52.619-10.775 13.217-5.32 35.522l.972-.238c-5.353-21.884 4.712-34.163 5.113-34.64l-.765-.644zm.082-.079c-.002.002-.027.022-.054.049l.71.704a.436.436 0 01-.025.023l-.007.006-.624-.782zm-.075.079a.45.45 0 01.057-.063l.018-.016.624.782s.017-.013.034-.029a.552.552 0 00.07-.077l-.803-.597zm.164-.165a1.49 1.49 0 00-.131.126l.738.675a.46.46 0 01.042-.04l-.65-.761zm.104-.084a.881.881 0 00-.134.112l.71.704-.017.013-.559-.83zm.122-.074c-.027.016-.074.041-.122.074l.559.83a.812.812 0 01.054-.033l-.49-.871zm.02-.011l-.02.011.491.871.02-.011-.491-.871zm.1-.054c-.059.026-.106.057-.121.066l.533.846.01-.006a.034.034 0 01.003-.002l-.016.008L37.28 1zm.218-.074a1.415 1.415 0 00-.21.07l.392.92a.423.423 0 01.063-.02l-.245-.97zm-.004.002c-.007.003-.002 0 .005-.001a.378.378 0 01.05-.01l.143.989c.064-.01.119-.03.121-.03l-.319-.948zM37.49.93l.328.944L37.49.93zm.042-.014l-.038.012.32.948.002-.001-.007.002-.277-.96zm.336-.04a1.4 1.4 0 00-.307.033l.219.976a.4.4 0 01.088-.01v-1zm.156.004l-.14-.004-.033 1 .138.004.035-1zm1.083.514a1.432 1.432 0 00-1.1-.514v1c.13 0 .25.056.333.156l.767-.642zm5.366 35.346c5.357-22.197-4.846-34.73-5.367-35.348l-.764.645c.4.475 10.416 12.69 5.159 34.468l.972.235zm15.64 6.407c-.06-.223-.564-1.785-2.836-3.39-2.265-1.599-6.258-3.22-13.26-3.633l-.06.998c6.878.407 10.674 1.991 12.743 3.453 2.064 1.456 2.442 2.811 2.447 2.832l.966-.26zm.007.041l.009.043v.007c0 .001 0 .002 0 0v-.008l-.002-.015a.586.586 0 00-.011-.058l-.971.24a.4.4 0 01-.01-.05l.002.008a.532.532 0 00.013.073l.97-.24zm.023.137l-.014-.092-.988.15.014.093.988-.15zm.015.175c0-.074-.01-.142-.014-.17l-.99.14.003.021.001.012V43.5h1zm-.001-.038a.42.42 0 01.002.038h-1c0 .022 0 .04.002.053l.996-.09zm0-.004l-.001-.007-.994.113v.007l.995-.113zm.002.02a.6.6 0 00-.003-.025l-.992.123c0 .002 0 0 0 0l-.002-.01.997-.087zm.002.05a.578.578 0 00-.002-.05l-.996.088a.396.396 0 01-.002-.037h1zm-.002.056a.787.787 0 00.002-.055h-1v-.018l.998.072zm-.006.056l.006-.056-.998-.073v-.004.009l.992.124zm0 .005v-.005l-.992-.124-.001.006.992.123zm.002-.023v-.003l-.998-.07v.003l.998.07zm-.022.167c.016-.072.02-.141.022-.167l-.998-.07-.001.02-.001.012v-.002l.978.207zm-.002.017a1.12 1.12 0 00.007-.039l-.987-.163v.005l.98.197zm-.007.029l.007-.03-.98-.197-.002.008.975.219zm-.013.056l.014-.056-.976-.219a1.83 1.83 0 01-.009.035l.97.24zm-.01.038l.004-.017-.96-.282-.004.016.96.282zm-.002.006l.003-.011-.962-.273-.004.012.963.272zm-.04.117c.022-.052.035-.101.04-.117l-.963-.271a1.11 1.11 0 00-.005.017l.004-.01.925.381zm-18.82-5.005h-2.431v1h2.432v-1zM38.377 5.48c2.696 4.639 7.691 16.41 2.385 33.92l.957.29c5.404-17.834.324-29.892-2.478-34.713l-.864.503zm.932 34.066V5.23h-1v34.317h1zm-1.882 0V5.479h-1v34.068h1zm-2.792.5h2.292v-1h-2.292v1zM36.49 5.233c-2.821 4.99-7.636 16.97-2.336 34.459l.957-.29c-5.203-17.17-.47-28.867 2.25-33.677l-.87-.492zm19.635 39.023l-.005.016.955.296.005-.015-.955-.297zm.542.644l-.13-.991.13.991zm.365-2.22c-.58.514-.799 1.226-.908 1.576l.955.297c.113-.362.27-.817.616-1.124l-.663-.749zM43.476 39c9.453.491 12.575 3.188 13.495 4.363l.787-.617C56.596 41.262 53.147 38.5 43.528 38l-.052.998zm-.173 1.938c.247-.78.472-1.547.68-2.305l-.963-.266a62.414 62.414 0 01-.67 2.27l.953.301zm-1.372 1.012c.63 0 1.183-.413 1.372-1.011l-.953-.302a.443.443 0 01-.42.313v1zm-7.991 0h7.99v-1h-7.99v1zm-1.373-1.011c.19.598.742 1.01 1.373 1.01v-1a.443.443 0 01-.42-.312l-.953.302zm-.633-2.148c.196.704.405 1.419.633 2.146l.954-.298c-.224-.716-.43-1.42-.623-2.117l-.964.269zm-9.074 3.656c.813-.635 1.725-1.308 3.166-1.898 1.447-.593 3.45-1.11 6.437-1.395l-.095-.995c-3.058.29-5.16.825-6.72 1.464-1.566.642-2.562 1.38-3.403 2.036l.615.788zm.167-.165l.021-.164-.991-.13-.022.168.992.126zm-.036.274c.014-.096.025-.187.036-.274l-.992-.126a21.21 21.21 0 01-.034.262l.99.138zm-.2 2.237c-.025-.513.106-1.524.2-2.24l-.99-.132c-.09.67-.24 1.795-.209 2.421l.999-.05zm-.275-.967c-.297.406-.412.521-.48.562l.511.86c.276-.164.509-.466.776-.83l-.807-.592zm.005-.006l-.003.005.803.595.004-.005-.804-.595zm2.87-1.74c-1.602 0-2.396 1.1-2.87 1.74l.803.595c.49-.66 1.013-1.335 2.067-1.335v-1zm2.868 1.74c-.474-.64-1.268-1.74-2.868-1.74v1c1.051 0 1.575.675 2.064 1.335l.804-.595zm.003.004l-.003-.004-.803.596.003.004.803-.596zm.56.577a.187.187 0 01-.062-.007.196.196 0 01-.056-.037c-.088-.073-.21-.217-.441-.532l-.805.594c.22.298.41.543.606.706.235.196.476.276.758.276v-1zm.56-.577c-.233.315-.355.46-.442.533a.192.192 0 01-.056.037.183.183 0 01-.062.007v1c.283 0 .524-.08.759-.276.195-.163.385-.408.605-.705l-.803-.596zm.004-.004l-.003.005.803.595.003-.005-.803-.595zm2.87-1.74c-1.602 0-2.396 1.1-2.87 1.74l.803.595c.49-.66 1.013-1.335 2.067-1.335v-1zm2.867 1.74c-.473-.64-1.267-1.74-2.867-1.74v1c1.051 0 1.575.675 2.064 1.335l.803-.595zm.004.004l-.004-.004-.803.596.004.004.803-.596zm.56.577a.179.179 0 01-.06-.007.195.195 0 01-.057-.037c-.088-.074-.21-.218-.443-.533l-.803.596c.22.298.41.542.606.705.234.195.475.276.757.276v-1zm.56-.577c-.233.315-.355.46-.443.533a.19.19 0 01-.055.037.182.182 0 01-.062.007v1c.282 0 .524-.08.758-.276.195-.163.385-.408.606-.705l-.804-.596zm2.871-1.744c-1.606 0-2.4 1.105-2.871 1.745l.804.594c.488-.66 1.011-1.34 2.067-1.34v-1zm2.868 1.74c-.474-.64-1.268-1.74-2.868-1.74v1c1.052 0 1.575.675 2.065 1.335l.803-.595zm.004.005l-.004-.005-.803.595.003.005.803-.595zm.562.578a.183.183 0 01-.062-.007.193.193 0 01-.057-.037c-.088-.073-.21-.218-.443-.534l-.805.594c.221.3.412.545.608.708.235.196.477.276.759.276v-1zm.56-.576c-.233.315-.355.46-.443.533a.194.194 0 01-.055.037.185.185 0 01-.062.006v1c.282 0 .524-.08.758-.276.195-.163.385-.407.605-.705l-.803-.595zm.003-.005l-.003.005.803.595.004-.004-.803-.596zm2.87-1.74c-1.602 0-2.395 1.1-2.87 1.74l.804.596c.49-.66 1.013-1.336 2.067-1.336v-1zm2.868 1.74c-.474-.639-1.267-1.74-2.867-1.74v1c1.05 0 1.574.675 2.064 1.336l.803-.596zm.003.005l-.003-.005-.803.596.003.005.803-.596zm.56.576a.184.184 0 01-.062-.007.196.196 0 01-.056-.037c-.087-.073-.209-.217-.44-.531l-.806.593c.22.298.41.543.606.706.235.196.477.276.759.276v-1zm.563-.578c-.233.316-.356.46-.444.534a.192.192 0 01-.056.037.183.183 0 01-.062.007v1c.282 0 .524-.08.759-.276.196-.163.386-.409.607-.708l-.804-.594zm2.871-1.745c-1.603 0-2.4 1.105-2.871 1.745l.804.594c.487-.66 1.013-1.34 2.067-1.34v-1zm2.87 1.74c-.474-.64-1.268-1.74-2.87-1.74v1c1.054 0 1.577.675 2.067 1.335l.803-.595zm.004.004l-.004-.004-.803.596.003.004.803-.596zm.56.577a.178.178 0 01-.06-.007.194.194 0 01-.057-.037c-.088-.074-.21-.218-.443-.533l-.804.596c.221.298.412.542.607.705.234.195.475.276.757.276v-1zm.143.483a42.728 42.728 0 01-.2-.458l.002-.001.004-.002.007-.003a.294.294 0 01.036-.012.276.276 0 01.029-.008c.011-.002.006 0-.021 0v1a1.125 1.125 0 00.28-.035.627.627 0 00.05-.017l.008-.003.004-.002h.001l.001-.001-.2-.458zm-.306-.612a8.186 8.186 0 01-.116.345l-.002.005a.393.393 0 01.044-.063l.76.65c.067-.079.106-.172.118-.2a3.92 3.92 0 00.151-.441l-.955-.296z" fill="#222532"/><path d="M7.288 31.136c-.12-.145-1.211-1.405-2.608-1.405-.647 0-1.57.268-2.298 1.542l-.811 1.424h7.02l-1.303-1.561z" fill="#fff" stroke="#222532"/><path fill-rule="evenodd" clip-rule="evenodd" d="M5.464 34.575l.966.102-.122.973c-.355 2.63-3.102 5.404-3.22 5.522l-1.272 1.272-.315-1.78c-.374-2.093-.108-3.702.788-4.782 1.253-1.511 3.175-1.307 3.175-1.307zM3.735 37.1c-.167.2-.291.453-.378.752.2-.301.392-.617.557-.935a1.64 1.64 0 00-.179.183z" fill="#fff"/><path d="M6.43 34.677l.496.062.064-.506-.507-.054-.053.498zm-.966-.102l-.053.497.053-.497zm.844 1.075l.496.067v-.005l-.496-.062zm-3.22 5.522l.354.354.002-.002-.355-.352zm-1.272 1.272l-.492.087.167.945.679-.678-.354-.354zm-.315-1.78l.492-.087-.492.087zm.788-4.782l.385.32-.385-.32zm1.068 1.97l-.48-.14-.055.186.086.174.449-.22zm.378-.752l.384.32.003-.003-.387-.317zm-.378.752l-.45.22.384.783.482-.727-.416-.276zm.557-.935l.444.23-.777-.603.333.373zm2.569-2.738l-.967-.102-.105.995.967.102.105-.995zm.321 1.533l.122-.973-.992-.125-.122.973.992.125zm-3.36 5.812a16.63 16.63 0 001.571-1.88c.758-1.054 1.594-2.487 1.789-3.927l-.991-.134c-.161 1.19-.876 2.458-1.61 3.478a15.635 15.635 0 01-1.47 1.76l.71.703zM2.17 42.798l1.272-1.272-.707-.707-1.272 1.272.707.707zM1.009 40.75l.315 1.78.985-.174-.316-1.78-.984.175zm.895-5.188c-1.03 1.241-1.281 3.026-.895 5.19l.984-.177c-.361-2.023-.082-3.456.68-4.374l-.769-.64zm3.56-.988l.052-.498h-.012a3.91 3.91 0 00-.372-.01 4.737 4.737 0 00-.891.106c-.711.154-1.618.523-2.337 1.39l.77.638c.535-.645 1.215-.929 1.778-1.05a3.748 3.748 0 01.903-.083l.048.003h.01v.001h-.001l.052-.497zm-1.627 3.417a1.55 1.55 0 01.282-.571l-.767-.642a2.547 2.547 0 00-.476.933l.96.28zm-.031-.36l-.898.44.898-.44zm-.336-.945a9.682 9.682 0 01-.53.889l.833.552c.207-.31.41-.642.585-.981l-.888-.46zm.652.73a1.14 1.14 0 01.125-.127l-.666-.746a2.127 2.127 0 00-.232.239l.773.634z" fill="#222532"/><path fill-rule="evenodd" clip-rule="evenodd" d="M12.706 29.291c0 .992-.801 1.8-1.784 1.8a1.793 1.793 0 01-1.783-1.8c0-.992.8-1.799 1.783-1.799.985 0 1.784.807 1.784 1.8zm-1.686 0a.1.1 0 00-.098-.1.098.098 0 00-.097.1c0 .11.195.11.195 0z" fill="#fff"/><path d="M10.921 31.59a2.295 2.295 0 002.285-2.299h-1c0 .72-.581 1.3-1.284 1.3v1zM8.64 29.291a2.293 2.293 0 002.283 2.3v-1a1.293 1.293 0 01-1.283-1.3h-1zm2.283-2.299a2.293 2.293 0 00-2.283 2.3h1c0-.72.58-1.3 1.283-1.3v-1zm2.284 2.3a2.293 2.293 0 00-2.284-2.3v1c.705 0 1.284.58 1.284 1.3h1zm-2.284.4a.4.4 0 01-.402-.4h1a.6.6 0 00-.598-.6v1zm.403-.4c0 .2-.162.4-.403.4v-1a.598.598 0 00-.597.6h1zm-.805 0c0-.143.072-.266.17-.34a.388.388 0 01.233-.079c.06 0 .147.016.232.079.098.074.17.197.17.34h-1c0 .196.096.36.232.462a.613.613 0 00.732 0 .574.574 0 00.231-.463h-1z" fill="#222532"/></svg>