<svg width="25" height="25" fill="none" xmlns="http://www.w3.org/2000/svg"><path fill-rule="evenodd" clip-rule="evenodd" d="M24.257 24.228a2.307 2.307 0 000-3.264l-4.763-4.762c-.337-.338-.425-.954-.198-1.373 0 0-.016.063.151-.304a9.773 9.773 0 00.87-4.046A9.807 9.807 0 0010.508.671 9.807 9.807 0 00.7 10.479a9.807 9.807 0 009.808 9.81 9.762 9.762 0 004.035-.866c.372-.167.313-.154.313-.154.426-.227 1.037-.142 1.375.197l4.762 4.762a2.307 2.307 0 003.264 0zM15.99 10.479a5.482 5.482 0 11-10.964 0 5.482 5.482 0 0110.964 0z" fill="#fff"/></svg>