<svg width="41" height="25" fill="none" xmlns="http://www.w3.org/2000/svg"><path d="M27.25 5.038l.265-.239c.176-.156.347-.315.515-.473.163-.168.356-.279.526-.421.174-.136.342-.277.513-.403.354-.227.683-.477 1.017-.668.334-.186.645-.391.954-.53.152-.08.298-.155.438-.227l.413-.183c.525-.243.96-.391 1.258-.5.3-.098.462-.148.462-.148l.015-.005c.054-.017.1-.06.117-.117a.183.183 0 00-.117-.229s-.181-.057-.514-.117c-.166-.027-.376-.067-.619-.082-.245-.02-.53-.05-.848-.04-.159.001-.328-.002-.505.008l-.552.05c-.39.027-.797.116-1.242.207-.227.036-.446.107-.676.177l-.714.222c-.466.196-.976.391-1.473.656-.245.138-.497.28-.75.433l-.385.23c-.12.09-.243.178-.366.267-.243.186-.491.374-.745.566-.262.184-.47.424-.71.644l-.708.692c-.213.253-.427.512-.636.778-.207.269-.432.534-.623.82-.183.29-.356.59-.535.89-.17.308-.36.602-.51.927-.148.332-.286.671-.425 1.012-.14.34-.279.682-.408 1.026l-.27.963-.272.97-.153.534-.12.441c-.041.148-.075.297-.122.443l-.16.428-.159.432c-.055.142-.125.277-.188.418a12.544 12.544 0 01-1.993 3.066 14.988 14.988 0 01-2.72 2.404c-.985.683-2.027 1.232-3.05 1.693a23.701 23.701 0 01-2.997 1.093 30.42 30.42 0 01-4.741.971c-1.17.146-1.841.157-1.841.157a.176.176 0 00-.172.152.176.176 0 00.153.197h.004s.686.087 1.888.112c.6.014 1.332.007 2.173-.045a26.86 26.86 0 002.818-.309c2.051-.346 4.465-.972 6.841-2.264 1.185-.643 2.36-1.45 3.408-2.457a15.191 15.191 0 002.72-3.478c.093-.163.193-.32.279-.487l.247-.5c.166-.334.327-.671.461-1.015l.212-.516.052-.129.026-.064.007-.016-.017.052.012-.029.1-.233.399-.925.397-.918c.15-.255.288-.51.423-.764.136-.253.274-.503.397-.758.139-.25.305-.492.451-.737.146-.247.292-.49.428-.737.151-.235.317-.453.468-.68.158-.223.299-.454.452-.674l.49-.613.24-.304a2.31 2.31 0 01.245-.29l.51-.54.242-.267z" fill="#4AF6CD"/><path fill-rule="evenodd" clip-rule="evenodd" d="M39.843 23.916c.643.287 1.017.427 1.017.427.064.023.098.094.072.154a.127.127 0 01-.139.077s-.401-.077-1.09-.253a27.07 27.07 0 01-3.097-1.01c-.2-.077-.406-.157-.615-.244l-.437-.19-.508-.223-.373-.184-.609-.3-.747-.42-.255-.143-.321-.205-.689-.438a25.423 25.423 0 01-.71-.526 74.597 74.597 0 00-.284-.214l-.507-.445-.45-.394-.27-.284a34.033 34.033 0 01-.622-.663l-.408-.522-.203-.262-.104-.13-.025-.032-.014-.017-.033-.056-.005-.008-.042-.064-.33-.505a4.564 4.564 0 00-.101-.155 2.546 2.546 0 01-.226-.385c-.05-.103-.102-.206-.154-.31-.163-.32-.327-.643-.415-.973a29.275 29.275 0 00-.043-.132 7.474 7.474 0 01-.158-.519l-.046-.287c-.02-.132-.042-.262-.063-.393a4.626 4.626 0 00-.016-.132 2.797 2.797 0 01-.023-.207l.004-.345.006-.196c.003-.163.007-.325.032-.486.029-.174.065-.346.101-.515l.032-.151c.026-.146.083-.287.139-.425.028-.07.056-.138.079-.206l.12-.302c.03-.065.068-.127.105-.189.019-.031.038-.062.055-.093.035-.056.068-.111.1-.166.077-.127.151-.252.238-.366l.032-.039c.258-.303.504-.591.805-.806.219-.197.473-.331.712-.458.068-.036.135-.071.2-.107.113-.05.23-.09.343-.128l.12-.04.045-.015c.133-.046.26-.089.396-.103a3.76 3.76 0 011.479-.005c.198.042.367.09.512.131a6.731 6.731 0 01.63.307c.06.036.08.113.044.173a.123.123 0 01-.09.062l-.017.004-.294.043a4.414 4.414 0 01-.332.044 9.205 9.205 0 00-.134.039c-.093.027-.191.056-.294.08a1.333 1.333 0 00-.33.121c-.053.024-.105.049-.158.07-.117.036-.228.107-.342.179a3.414 3.414 0 01-.172.104c-.118.07-.228.163-.338.258-.054.045-.107.091-.162.134a3.16 3.16 0 01-.155.17 1.883 1.883 0 00-.282.347c-.278.364-.47.821-.577 1.316-.007.047-.019.092-.03.138a.9.9 0 00-.039.241l-.006.09a4.525 4.525 0 01-.029.31 1.65 1.65 0 00.002.23c.003.063.007.127.005.19v.052c0 .053 0 .107-.002.16.002.05.01.102.018.153.004.023.008.045.01.068.009.077.016.156.023.235l.021.216c.037.153.07.309.1.467.031.211.09.402.15.596.032.108.066.217.094.33.017.103.078.235.14.367.024.053.049.106.07.157l.248.549.03.068.004.005.003.007.07.118.14.231.284.47a290.938 290.938 0 01.676.885l.766.825c.275.257.548.512.82.764l.284.236c.19.159.38.316.567.47.294.219.584.434.868.643.294.2.582.395.863.583l.84.524c.175.104.348.202.517.298l.29.165c.521.288 1.01.54 1.448.752.44.213.825.39 1.146.534zm-9.602-7.539l-.002-.002.008.015.004.004a.201.201 0 01-.01-.017z" fill="#4AF6CD"/><path d="M32.43 3.117c-.79.163-1.288.37-1.288.37a.092.092 0 00-.057.082.087.087 0 00.087.089c.002 0 .522.003 1.29.092.382.037.822.114 1.285.195.462.104.95.198 1.418.346.118.04.235.072.35.115.112.05.222.1.333.148.222.096.43.202.64.274.213.064.42.119.623.156l.589.094c.186.028.367.038.532.047.16.017.307.027.433.027.253.005.42-.014.42-.014l.008-.001.023-.005a.11.11 0 00.066-.141s-.056-.153-.192-.378a3.56 3.56 0 00-.27-.39 3.658 3.658 0 00-.42-.42 3.796 3.796 0 00-.261-.214c-.098-.06-.195-.13-.303-.188a2.628 2.628 0 00-.696-.314 3.234 3.234 0 00-.804-.129c-.277-.025-.555-.037-.832-.05-.276-.026-.551-.022-.82-.027-.268-.007-.533.02-.787.033-.255.03-.496.044-.726.086-.229.039-.444.076-.642.117zm5.675 6.211c.168.075.3.159.43.22.24.134.408.214.408.214l.01.005a.1.1 0 00.045.01.102.102 0 00.098-.102l-.004-.13c-.005-.083-.01-.21-.043-.362-.037-.15-.082-.339-.175-.534a3.103 3.103 0 00-.36-.63 6.03 6.03 0 00-.26-.321c-.1-.1-.199-.21-.311-.307a3.611 3.611 0 00-.76-.53 4.315 4.315 0 00-.914-.33c-.317-.085-.637-.152-.953-.226a12.83 12.83 0 00-1.855-.296 15.52 15.52 0 00-1.614-.06c-.942.012-1.561.106-1.561.106a.091.091 0 00-.076.07.088.088 0 00.07.104s.607.116 1.491.35c.442.113.95.263 1.484.439.267.086.537.19.812.287.272.1.546.212.811.33.265.122.522.26.759.41.24.15.463.302.688.427.225.122.441.23.658.323l.6.28c.192.091.368.177.523.252zm-.935 2.106a2.344 2.344 0 00-.256-.39 1.637 1.637 0 00-.367-.343c-.141-.1-.313-.161-.482-.227-.171-.057-.344-.112-.51-.174a7.143 7.143 0 00-.99-.277 7.61 7.61 0 00-.875-.13c-.51-.052-.856-.03-.856-.03a.077.077 0 00-.062.042.073.073 0 00.035.098s.304.142.74.37c.217.12.464.262.722.418.126.081.257.163.388.245.132.081.258.175.386.262.122.094.24.197.347.302.101.113.21.21.314.294.102.084.227.14.337.197.11.058.229.1.338.144.104.045.211.082.315.112.104.03.187.066.269.088.161.048.279.068.279.068l.005.002a.097.097 0 00.112-.077s.02-.11.008-.294a1.566 1.566 0 00-.05-.322 2.566 2.566 0 00-.148-.378z" fill="#4AF6CD"/></svg>