<svg width="20" height="25" fill="none" xmlns="http://www.w3.org/2000/svg"><path d="M5.838 16.135a2.729 2.729 0 01-2.725-2.726.58.58 0 011.16 0 1.57 1.57 0 001.567 1.568 1.57 1.57 0 001.568-1.568.58.58 0 011.16 0 2.735 2.735 0 01-2.73 2.726z" fill="#4AF6CD" stroke="#4AF6CD" stroke-width=".505"/><path d="M10.132 16.135a2.729 2.729 0 01-2.726-2.726.58.58 0 011.16 0 1.57 1.57 0 001.568 1.568 1.57 1.57 0 001.567-1.568.58.58 0 011.16 0 2.735 2.735 0 01-2.73 2.726z" fill="#4AF6CD" stroke="#4AF6CD" stroke-width=".505"/><path d="M14.425 16.135a2.729 2.729 0 01-2.725-2.726.58.58 0 011.16 0 1.57 1.57 0 001.567 1.568 1.57 1.57 0 001.568-1.568.58.58 0 011.16 0 2.734 2.734 0 01-2.73 2.726z" fill="#4AF6CD" stroke="#4AF6CD" stroke-width=".505"/><path fill-rule="evenodd" clip-rule="evenodd" d="M.965 15.453c0 5.054 4.112 9.166 9.167 9.166 5.054 0 9.166-4.112 9.168-9.166 0-6.899-8.425-14.413-8.784-14.73A.579.579 0 009.77.707C9.41.997.965 7.903.965 15.452zm9.15-13.521zm0 0C8.48 3.366 2.124 9.327 2.124 15.452c0 4.416 3.591 8.007 8.006 8.007 4.416 0 8.007-3.592 8.007-8.007.002-5.597-6.399-11.992-8.02-13.52z" fill="#4AF6CD"/><path d="M10.132 24.619l.114-.225-.054-.028h-.06v.253zm0 0l-.114.225.053.027h.06v-.252zm9.168-9.166h.253-.253zM10.516.723l-.167.189.168-.19zM9.77.707l.158.197h.001L9.77.706zm.347 1.224l.167.19.502-.442h-.67v.252zm0 0V1.68H9.48l.462.436.173-.184zm8.02 13.521h-.252.252zm-8.004 8.914c-4.916 0-8.914-3.998-8.914-8.913H.713c0 5.193 4.224 9.418 9.419 9.418v-.505zm.114.028l-.229.45.23-.45zm8.802-8.941c-.002 4.915-4.001 8.913-8.916 8.913v.505c5.194 0 9.418-4.224 9.42-9.418h-.504zM10.349.912c.175.154 2.357 2.1 4.494 4.862 2.146 2.774 4.205 6.319 4.205 9.679h.505c0-3.539-2.154-7.2-4.31-9.988-2.165-2.798-4.374-4.768-4.56-4.931l-.334.378zM9.93.903a.327.327 0 01.42.009l.335-.378A.831.831 0 009.61.511l.318.392zm-8.711 14.55c0-3.688 2.066-7.245 4.211-9.938C7.57 2.829 9.754 1.043 9.927.904L9.611.51C9.423.661 7.206 2.474 5.034 5.2 2.868 7.92.713 11.59.713 15.452h.505zm8.73-13.711l.333.379-.333-.38zm.166.442v-.505.505zm.174-.436l-.347.367.347-.367zm-.34-.006c-.824.723-2.837 2.585-4.646 5.04-1.805 2.45-3.433 5.526-3.433 8.67h.505c0-2.981 1.551-5.949 3.334-8.37 1.779-2.414 3.762-4.25 4.573-4.96l-.333-.38zM1.87 15.452c0 4.555 3.705 8.259 8.26 8.259v-.505c-4.276 0-7.755-3.478-7.755-7.754H1.87zm8.26 8.259c4.554 0 8.258-3.704 8.258-8.259h-.504c0 4.276-3.479 7.754-7.755 7.754v.505zm8.258-8.259c.002-2.882-1.64-5.936-3.449-8.434-1.816-2.507-3.834-4.5-4.65-5.27l-.347.367c.806.76 2.799 2.728 4.588 5.2 1.797 2.48 3.355 5.423 3.354 8.137h.505z" fill="#4AF6CD"/></svg>