<svg width="27" height="25" fill="none" xmlns="http://www.w3.org/2000/svg"><path d="M17.762 9.042H.259v2.187h17.503A5.475 5.475 0 0023.23 5.76 5.475 5.475 0 0017.762.291a5.475 5.475 0 00-5.47 5.47h2.188a3.286 3.286 0 013.282-3.282 3.286 3.286 0 013.281 3.281 3.286 3.286 0 01-3.281 3.282zm3.281 4.376H.26v2.187h20.784a3.286 3.286 0 013.282 3.282 3.286 3.286 0 01-3.282 3.281 3.286 3.286 0 01-3.281-3.281h-2.188a5.475 5.475 0 005.47 5.469 5.475 5.475 0 005.468-5.47 5.475 5.475 0 00-5.469-5.468z" fill="#4AF6CD"/></svg>