<svg width="21" height="25" viewBox="0 0 21 25" fill="none" xmlns="http://www.w3.org/2000/svg">
<path d="M10.4386 24.4434C10.8407 24.4037 11.2214 24.2417 11.5271 23.9787L19.7456 16.9343C20.1599 16.6025 20.4213 16.1164 20.4702 15.589C20.5191 15.0616 20.3525 14.5372 20.0085 14.1336C19.6631 13.7316 19.1708 13.4854 18.6418 13.4533C18.1129 13.4212 17.5931 13.6047 17.2018 13.9624L10.2552 19.9185L3.30858 13.9624C2.91722 13.6047 2.39746 13.4212 1.8685 13.4533C1.33955 13.4854 0.847296 13.7315 0.501806 14.1336C0.157838 14.5372 -0.00879806 15.0616 0.0401216 15.589C0.0890413 16.1164 0.350456 16.6025 0.764759 16.9343L8.98326 23.9787C9.38531 24.3242 9.91121 24.4908 10.4386 24.4434V24.4434Z" fill="white"/>
<path d="M10.4386 11.317C10.8407 11.2772 11.2214 11.1152 11.5271 10.8522L19.7456 3.80781C20.1599 3.47607 20.4213 2.98995 20.4702 2.46252C20.5191 1.93509 20.3525 1.41075 20.0085 1.00714C19.6631 0.605101 19.1708 0.358976 18.6418 0.326845C18.1129 0.294742 17.5931 0.478191 17.2018 0.835923L10.2552 6.79199L3.30858 0.835923C2.91722 0.478199 2.39746 0.294754 1.8685 0.326845C1.33955 0.358949 0.847296 0.605077 0.501806 1.00714C0.157838 1.41071 -0.00879806 1.93509 0.0401216 2.46252C0.0890413 2.98995 0.350456 3.47606 0.764759 3.80781L8.98326 10.8522C9.38531 11.1977 9.91121 11.3644 10.4386 11.317V11.317Z" fill="white"/>
</svg>
