<svg width="12" height="14" viewBox="0 0 12 14" fill="none" xmlns="http://www.w3.org/2000/svg">
<path fill-rule="evenodd" clip-rule="evenodd" d="M5.89446 0.679443C7.13162 0.679443 8.33279 1.09719 9.27986 1.85583V1.8558C10.517 2.84619 11.2447 4.25439 11.3327 5.82002C11.417 7.36576 10.8393 8.87808 9.74844 9.96894L6.13234 13.5378C5.99227 13.6766 5.74931 13.6754 5.60924 13.5365L2.04422 9.97151C0.950888 8.87818 0.371984 7.36462 0.457517 5.82006C0.544278 4.25448 1.27318 2.84628 2.50907 1.85583C3.4549 1.09719 4.65734 0.679443 5.89446 0.679443ZM3.46487 6.12147C3.46487 7.46148 4.55446 8.5511 5.89449 8.5511C7.2345 8.5511 8.32536 7.46151 8.32412 6.12147C8.32412 4.78146 7.23453 3.69184 5.89449 3.69184C4.55449 3.69184 3.46487 4.78143 3.46487 6.12147Z" fill="white"/>
</svg>
