<svg width="25" height="52" viewBox="0 0 25 52" fill="none" xmlns="http://www.w3.org/2000/svg">
<g filter="url(#filter0_d)">
<path fill-rule="evenodd" clip-rule="evenodd" d="M5 20.5832C5 7.50237 10.4217 0.445076 12.6388 0.444519C14.8563 0.445076 20.2777 7.50192 20.2777 20.5832C20.2777 33.8001 15.5346 42.7602 15.3333 43.1352L15.1371 43.4998H10.1406L9.94444 43.1352C9.74311 42.7601 5 33.8001 5 20.5832ZM11.9447 2.28832V2.28825L11.9448 2.28821L11.9447 2.28832ZM11.9447 2.28832V24.0558H13.3336V2.28825C15.1113 3.87505 18.8891 9.64781 18.8891 20.5834C18.8891 24.2327 18.5054 27.5625 17.9585 30.4705C17.1547 29.3264 15.6773 27.7691 12.9848 26.2309C6.43809 22.4895 6.51764 17.3522 6.52298 17.1353H6.52124C7.20353 8.41867 10.3648 3.70002 11.9447 2.28832ZM6.5248 24.2243C6.46577 23.4014 6.43105 22.5577 6.41195 21.6984C7.40505 23.5437 9.16716 25.6495 12.2953 27.4376C16.7407 29.9786 17.5018 32.4919 17.5209 32.5552L17.5211 32.5558C17.1808 34.0419 16.8076 35.3909 16.4343 36.5784C15.8492 35.5419 14.818 34.2676 12.9968 33.1826C7.51236 29.9169 6.64613 25.179 6.5248 24.2243ZM13.3335 42.1114H14.2936L14.2934 42.1111C14.5694 41.5416 15.1284 40.3228 15.7639 38.5694C15.6284 37.9912 14.9792 35.9791 12.2847 34.3749C9.83516 32.915 8.22404 31.1772 7.15982 29.5487C8.29698 36.2105 10.3595 40.8232 10.9845 42.1114H11.9446V37.25H13.3335V42.1114Z" fill="white"/>
<path d="M12.6388 0.444519L12.6389 0.319519L12.6388 0.319519L12.6388 0.444519ZM15.3333 43.1352L15.4433 43.1944L15.4434 43.1943L15.3333 43.1352ZM15.1371 43.4998V43.6248H15.2118L15.2471 43.559L15.1371 43.4998ZM10.1406 43.4998L10.0306 43.559L10.0659 43.6248H10.1406V43.4998ZM9.94444 43.1352L9.83431 43.1943L9.83437 43.1944L9.94444 43.1352ZM11.9447 2.28825L11.9044 2.16992L11.8197 2.19875V2.28825H11.9447ZM11.9448 2.28821L12.0281 2.38143L11.9045 2.16987L11.9448 2.28821ZM11.9447 24.0558H11.8197V24.1808H11.9447V24.0558ZM13.3336 24.0558V24.1808H13.4586V24.0558H13.3336ZM13.3336 2.28825L13.4168 2.195L13.2086 2.00913V2.28825H13.3336ZM17.9585 30.4705L17.8563 30.5423L18.0266 30.7848L18.0814 30.4936L17.9585 30.4705ZM12.9848 26.2309L12.9227 26.3394L12.9227 26.3394L12.9848 26.2309ZM6.52298 17.1353L6.64794 17.1384L6.65109 17.0103H6.52298V17.1353ZM6.52124 17.1353L6.39662 17.1256L6.38608 17.2603H6.52124V17.1353ZM6.41195 21.6984L6.52203 21.6391L6.28698 21.7011L6.41195 21.6984ZM6.5248 24.2243L6.39993 24.2333L6.4008 24.2401L6.5248 24.2243ZM12.2953 27.4376L12.2333 27.5461H12.2333L12.2953 27.4376ZM17.5209 32.5552L17.4013 32.5914L17.4013 32.5916L17.5209 32.5552ZM17.5211 32.5558L17.643 32.5837L17.6504 32.5513L17.6407 32.5194L17.5211 32.5558ZM16.4343 36.5784L16.3255 36.6398L16.4671 36.8908L16.5536 36.6159L16.4343 36.5784ZM12.9968 33.1826L13.0608 33.0752L13.0608 33.0752L12.9968 33.1826ZM14.2936 42.1114V42.2364H14.5094L14.402 42.0491L14.2936 42.1114ZM13.3335 42.1114H13.2085V42.2364H13.3335V42.1114ZM14.2934 42.1111L14.1809 42.0565L14.1521 42.116L14.185 42.1733L14.2934 42.1111ZM15.7639 38.5694L15.8814 38.6119L15.894 38.577L15.8856 38.5409L15.7639 38.5694ZM12.2847 34.3749L12.2207 34.4823L12.2208 34.4823L12.2847 34.3749ZM7.15982 29.5487L7.26446 29.4803L7.0366 29.5697L7.15982 29.5487ZM10.9845 42.1114L10.872 42.1659L10.9062 42.2364H10.9845V42.1114ZM11.9446 42.1114V42.2364H12.0696V42.1114H11.9446ZM11.9446 37.25V37.125H11.8196V37.25H11.9446ZM13.3335 37.25H13.4585V37.125H13.3335V37.25ZM12.6388 0.319519C12.3302 0.319596 11.9803 0.441617 11.6092 0.666611C11.2368 0.892478 10.8346 1.22725 10.4191 1.66599C9.58816 2.54358 8.69578 3.84614 7.8753 5.55464C6.23389 8.97254 4.875 14.0258 4.875 20.5832H5.125C5.125 14.0597 6.47694 9.04395 8.10066 5.66287C8.91274 3.97187 9.79149 2.69245 10.6007 1.83787C11.0053 1.41052 11.3904 1.09166 11.7389 0.880377C12.0887 0.668223 12.3932 0.569581 12.6389 0.569519L12.6388 0.319519ZM20.4027 20.5832C20.4027 14.0256 19.0439 8.97232 17.4025 5.55447C16.582 3.846 15.6897 2.54348 14.8587 1.66592C14.4433 1.2272 14.041 0.892446 13.6686 0.66659C13.2975 0.441606 12.9475 0.319596 12.6389 0.319519L12.6388 0.569519C12.8846 0.569581 13.1891 0.66822 13.5389 0.880362C13.8874 1.09163 14.2725 1.41048 14.6772 1.83781C15.4863 2.69236 16.3651 3.97174 17.1772 5.6627C18.8008 9.04373 20.1527 14.0595 20.1527 20.5832H20.4027ZM15.4434 43.1943C15.6499 42.8098 20.4027 33.8287 20.4027 20.5832H20.1527C20.1527 33.7714 15.4194 42.7106 15.2231 43.076L15.4434 43.1943ZM15.2471 43.559L15.4433 43.1944L15.2232 43.076L15.027 43.4405L15.2471 43.559ZM10.1406 43.6248H15.1371V43.3748H10.1406V43.6248ZM9.83437 43.1944L10.0306 43.559L10.2507 43.4405L10.0545 43.076L9.83437 43.1944ZM4.875 20.5832C4.875 33.8287 9.62787 42.8097 9.83431 43.1943L10.0546 43.0761C9.85835 42.7105 5.125 33.7714 5.125 20.5832H4.875ZM11.8197 2.28825V2.28832H12.0697V2.28825H11.8197ZM11.9045 2.16987L11.9044 2.16992L11.9849 2.40659L11.9851 2.40654L11.9045 2.16987ZM12.0279 2.38155L12.0281 2.38143L11.8615 2.19498L11.8614 2.1951L12.0279 2.38155ZM12.0697 24.0558V2.28832H11.8197V24.0558H12.0697ZM13.3336 23.9308H11.9447V24.1808H13.3336V23.9308ZM13.2086 2.28825V24.0558H13.4586V2.28825H13.2086ZM19.0141 20.5834C19.0141 9.62206 15.2277 3.81137 13.4168 2.195L13.2503 2.38151C14.995 3.93873 18.7641 9.67356 18.7641 20.5834H19.0141ZM18.0814 30.4936C18.6295 27.579 19.0141 24.2414 19.0141 20.5834H18.7641C18.7641 24.2239 18.3813 27.5459 17.8357 30.4474L18.0814 30.4936ZM12.9227 26.3394C15.6003 27.8691 17.0636 29.4142 17.8563 30.5423L18.0608 30.3986C17.2458 29.2386 15.7542 27.6691 13.0468 26.1223L12.9227 26.3394ZM6.39802 17.1322C6.39202 17.3759 6.32188 22.5671 12.9227 26.3394L13.0468 26.1223C6.5543 22.412 6.64326 17.3285 6.64794 17.1384L6.39802 17.1322ZM6.52124 17.2603H6.52298V17.0103H6.52124V17.2603ZM11.8614 2.19511C10.2517 3.6335 7.08074 8.38559 6.39662 17.1256L6.64586 17.1451C7.32633 8.45175 10.4779 3.76655 12.028 2.38153L11.8614 2.19511ZM6.28698 21.7011C6.30611 22.562 6.34091 23.4078 6.40012 24.2333L6.64948 24.2154C6.59064 23.395 6.55599 22.5534 6.53692 21.6956L6.28698 21.7011ZM12.3574 27.3291C9.24952 25.5526 7.50405 23.4639 6.52203 21.6391L6.30188 21.7576C7.30606 23.6236 9.08481 25.7464 12.2333 27.5461L12.3574 27.3291ZM17.6406 32.519C17.6125 32.4264 16.8316 29.8866 12.3574 27.3291L12.2333 27.5461C16.6498 30.0706 17.391 32.5574 17.4013 32.5914L17.6406 32.519ZM17.6407 32.5194L17.6405 32.5188L17.4013 32.5916L17.4015 32.5922L17.6407 32.5194ZM16.5536 36.6159C16.9278 35.4253 17.3019 34.0732 17.643 32.5837L17.3993 32.5279C17.0597 34.0107 16.6873 35.3565 16.3151 36.5409L16.5536 36.6159ZM12.9328 33.2899C14.7338 34.363 15.7502 35.6208 16.3255 36.6398L16.5432 36.5169C15.9483 35.4631 14.9022 34.1723 13.0608 33.0752L12.9328 33.2899ZM6.4008 24.2401C6.52473 25.2153 7.40259 29.997 12.9328 33.29L13.0608 33.0752C7.62212 29.8368 6.76753 25.1428 6.6488 24.2086L6.4008 24.2401ZM14.2936 41.9864H13.3335V42.2364H14.2936V41.9864ZM14.185 42.1733L14.1851 42.1736L14.402 42.0491L14.4018 42.0488L14.185 42.1733ZM15.6463 38.5268C15.0126 40.2757 14.4553 41.4904 14.1809 42.0565L14.4059 42.1656C14.6835 41.5928 15.2443 40.37 15.8814 38.6119L15.6463 38.5268ZM12.2208 34.4823C14.8794 36.0652 15.5125 38.0444 15.6422 38.5979L15.8856 38.5409C15.7444 37.938 15.0789 35.893 12.3487 34.2675L12.2208 34.4823ZM7.05518 29.6171C8.12907 31.2604 9.7537 33.012 12.2207 34.4823L12.3487 34.2675C9.91661 32.818 8.31902 31.094 7.26446 29.4803L7.05518 29.6171ZM11.097 42.0568C10.4756 40.776 8.41769 36.1748 7.28304 29.5277L7.0366 29.5697C8.17627 36.2462 10.2435 40.8703 10.872 42.1659L11.097 42.0568ZM11.9446 41.9864H10.9845V42.2364H11.9446V41.9864ZM11.8196 37.25V42.1114H12.0696V37.25H11.8196ZM13.3335 37.125H11.9446V37.375H13.3335V37.125ZM13.4585 42.1114V37.25H13.2085V42.1114H13.4585Z" fill="black"/>
</g>
<defs>
<filter id="filter0_d" x="0.875" y="0.319519" width="23.5277" height="51.3052" filterUnits="userSpaceOnUse" color-interpolation-filters="sRGB">
<feFlood flood-opacity="0" result="BackgroundImageFix"/>
<feColorMatrix in="SourceAlpha" type="matrix" values="0 0 0 0 0 0 0 0 0 0 0 0 0 0 0 0 0 0 127 0"/>
<feOffset dy="4"/>
<feGaussianBlur stdDeviation="2"/>
<feColorMatrix type="matrix" values="0 0 0 0 0 0 0 0 0 0 0 0 0 0 0 0 0 0 0.25 0"/>
<feBlend mode="normal" in2="BackgroundImageFix" result="effect1_dropShadow"/>
<feBlend mode="normal" in="SourceGraphic" in2="effect1_dropShadow" result="shape"/>
</filter>
</defs>
</svg>
