<svg width="52" height="33" viewBox="0 0 52 33" fill="none" xmlns="http://www.w3.org/2000/svg">
<path fill-rule="evenodd" clip-rule="evenodd" d="M49.7499 22.2762V25.0227L49.7495 25.0228C50.3198 25.1388 50.7495 25.6394 50.7495 26.2347V27.2223C50.7495 27.8214 50.3198 28.3201 49.7495 28.4361V28.4612H43.185C42.8217 30.7013 40.8627 32.4195 38.4994 32.4195C36.1361 32.4195 34.1771 30.7013 33.8158 28.4612H16.4348C16.0715 30.7013 14.1126 32.4195 11.7493 32.4195C9.38597 32.4195 7.42505 30.6993 7.06372 28.4612H3.24927L2.50122 28.4631C1.80982 28.4631 1.24927 27.9065 1.24927 27.2242V26.2366C1.24927 25.5524 1.81177 24.9977 2.50122 24.9977H3.24927V13.8668C3.24927 10.4554 6.05402 7.67996 9.50127 7.67996L15.2708 7.67609V5.70271C9.18527 5.12871 4.02882 4.056 2.46827 2.5117C2.23585 2.28365 2.18116 1.93187 2.3335 1.64389C2.48585 1.35783 2.80618 1.19935 3.1304 1.25733C8.1069 2.13867 15.8454 2.25656 22.7554 2.25656C24.2242 2.25656 25.6676 2.2527 27.0543 2.2469C27.4069 2.24584 27.7558 2.24464 28.1007 2.24345L28.1008 2.24345L28.1009 2.24345L28.101 2.24345L28.1013 2.24345L28.1016 2.24344L28.1016 2.24344C29.0153 2.24029 29.9004 2.23724 30.7496 2.23724L37.1871 2.23917H37.189C41.5465 2.23917 44.2301 2.21017 47.7105 2.04202C48.0542 2.02847 48.3726 2.24881 48.4683 2.57932C48.564 2.90984 48.4175 3.26355 48.1148 3.4317C47.6128 3.71002 46.9878 3.969 46.2476 4.20867V5.71046C46.2476 6.37922 45.8882 6.9571 45.2847 7.25861C45.0288 7.38618 44.7593 7.44996 44.4917 7.44996C44.1285 7.44996 43.7671 7.33399 43.4546 7.10399L41.0347 5.32779C37.9527 5.77234 34.1364 6.05453 29.7497 6.15503V7.68191L34.9977 7.67997C38.3417 7.67997 41.4257 8.78747 43.9022 10.6487L44.1073 10.8072C46.1796 12.4209 47.8046 14.5721 48.7675 17.048L48.7733 17.0596L48.787 17.0925C48.8006 17.1307 48.8153 17.1679 48.8299 17.2048L48.83 17.205L48.83 17.205L48.8301 17.2052L48.8301 17.2053L48.8302 17.2054C48.8428 17.2373 48.8553 17.2691 48.8671 17.3012L49.1659 18.0685H49.1229C49.5292 19.4021 49.7499 20.815 49.7499 22.2762ZM36 16.586H46.9315H46.9318C46.0919 14.8716 44.881 13.3505 43.379 12.1329H36C35.8653 12.1329 35.75 12.2469 35.75 12.3803V16.3386C35.75 16.472 35.8653 16.586 36 16.586ZM44.7499 5.71047C44.7499 5.8129 44.705 5.88635 44.6112 5.93274C44.5175 5.97913 44.4335 5.97139 44.3495 5.90954L43.0917 4.9876C43.6816 4.8755 44.2343 4.75567 44.7499 4.63003L44.7499 5.71047ZM26.0907 3.73611L26.0905 3.73611C25.0041 3.73945 23.8891 3.74288 22.7579 3.74288L22.7583 3.74284C18.3188 3.74284 13.5375 3.69259 9.33635 3.42393C13.3713 4.17775 19.1743 4.71118 26.0003 4.71118C32.2733 4.71118 37.7599 4.34786 41.7423 3.70809C40.3849 3.72355 38.9181 3.72935 37.1915 3.72935H37.1896L30.7501 3.72355C29.5821 3.72355 28.3458 3.72742 27.0606 3.73322L26.0907 3.73611ZM16.7714 5.8361C19.7811 6.07383 22.9569 6.19559 25.9999 6.19559C26.7635 6.19559 27.5135 6.18979 28.2499 6.18013V7.67994H16.7714V5.8361ZM8.49989 27.7192C8.49989 29.4935 9.95694 30.9354 11.7499 30.9354C13.5428 30.9354 14.9999 29.4935 14.9999 27.7192C14.9999 25.945 13.5428 24.5031 11.7499 24.5031C9.95694 24.5031 8.49989 25.945 8.49989 27.7192ZM38.4999 30.9354C36.7069 30.9354 35.2499 29.4935 35.2499 27.7192C35.2499 25.945 36.7069 24.5031 38.4999 24.5031C40.2928 24.5031 41.7499 25.945 41.7499 27.7192C41.7499 29.4935 40.2928 30.9354 38.4999 30.9354ZM38.4999 23.0187C40.8632 23.0187 42.8241 24.737 43.1854 26.9771H49.2498V26.4823H44.7498V24.9979H48.2498V22.2785C48.2498 20.8057 47.9999 19.3928 47.5467 18.0708H35.9997C35.0349 18.0708 34.2497 17.2938 34.2497 16.339V12.3807C34.2497 11.4259 35.0349 10.6489 35.9997 10.6489H41.1112C39.2809 9.70378 37.2008 9.16456 34.9977 9.16456H9.50174C6.88064 9.16456 4.74979 11.2751 4.74979 13.867V16.5864H12.2848V18.0708H4.74979V24.9979H5.74979V26.4823H2.74979V26.9771H7.06424C7.42754 24.737 9.38649 23.0187 11.7498 23.0187C14.1131 23.0187 16.074 24.737 16.4353 26.9771H33.8143C34.1776 24.737 36.1366 23.0187 38.4999 23.0187Z" fill="white"/>
<path d="M49.7499 25.0227L49.8335 25.3108L50.0499 25.248V25.0227H49.7499ZM49.7495 25.0228L49.6659 24.7347L49.6897 25.3168L49.7495 25.0228ZM49.7495 28.4361L49.6897 28.1421L49.4495 28.1909V28.4361H49.7495ZM49.7495 28.4612V28.7612H50.0495V28.4612H49.7495ZM43.185 28.4612V28.1612H42.9297L42.8888 28.4132L43.185 28.4612ZM33.8158 28.4612L34.112 28.4134L34.0713 28.1612H33.8158V28.4612ZM16.4348 28.4612V28.1612H16.1796L16.1387 28.4132L16.4348 28.4612ZM7.06372 28.4612L7.35988 28.4134L7.31917 28.1612H7.06372V28.4612ZM3.24927 28.4612V28.1612L3.24849 28.1612L3.24927 28.4612ZM2.50122 28.4631V28.7631L2.50199 28.7631L2.50122 28.4631ZM3.24927 24.9977V25.2977H3.54927V24.9977H3.24927ZM9.50127 7.67996V7.97996L9.50147 7.97996L9.50127 7.67996ZM15.2708 7.67609L15.271 7.97609L15.5708 7.97589V7.67609H15.2708ZM15.2708 5.70271H15.5708V5.42968L15.2989 5.40404L15.2708 5.70271ZM2.46827 2.5117L2.67929 2.29846L2.67838 2.29757L2.46827 2.5117ZM2.3335 1.64389L2.06871 1.50286L2.06832 1.50361L2.3335 1.64389ZM3.1304 1.25733L3.07759 1.55265L3.07809 1.55274L3.1304 1.25733ZM27.0543 2.2469L27.0534 1.9469L27.053 1.9469L27.0543 2.2469ZM28.1007 2.24345L28.1017 2.54345L28.1018 2.54345L28.1007 2.24345ZM28.101 2.24345L28.0999 1.94345L28.0999 1.94345L28.101 2.24345ZM28.1013 2.24345L28.1004 1.94345L28.1003 1.94345L28.1013 2.24345ZM28.1016 2.24344L28.1025 2.54344L28.1027 2.54344L28.1016 2.24344ZM28.1016 2.24344L28.1006 1.94345L28.1005 1.94345L28.1016 2.24344ZM30.7496 2.23724L30.7496 1.93724H30.7496V2.23724ZM37.1871 2.23917L37.187 2.53917H37.1871V2.23917ZM47.7105 2.04202L47.6987 1.74225L47.696 1.74237L47.7105 2.04202ZM48.4683 2.57932L48.7565 2.49588V2.49588L48.4683 2.57932ZM48.1148 3.4317L48.2603 3.69406L48.2605 3.69396L48.1148 3.4317ZM46.2476 4.20867L46.1552 3.92325L45.9476 3.99047V4.20867H46.2476ZM45.2847 7.25861L45.4185 7.52709L45.4188 7.52698L45.2847 7.25861ZM43.4546 7.10399L43.6325 6.86238L43.6322 6.86215L43.4546 7.10399ZM41.0347 5.32779L41.2123 5.08594L41.1133 5.01334L40.9919 5.03086L41.0347 5.32779ZM29.7497 6.15503L29.7429 5.85511L29.4497 5.86182V6.15503H29.7497ZM29.7497 7.68191H29.4497V7.98202L29.7499 7.98191L29.7497 7.68191ZM34.9977 7.67997V7.37997H34.9976L34.9977 7.67997ZM43.9022 10.6487L44.0857 10.4113L44.0825 10.4089L43.9022 10.6487ZM44.1073 10.8072L44.2916 10.5705L44.2908 10.5698L44.1073 10.8072ZM48.7675 17.048L48.4879 17.1568L48.4931 17.1703L48.4997 17.1833L48.7675 17.048ZM48.7733 17.0596L49.0503 16.9444L49.0461 16.9342L49.0411 16.9243L48.7733 17.0596ZM48.787 17.0925L49.0697 16.9921L49.0671 16.9846L49.064 16.9772L48.787 17.0925ZM48.8299 17.2048L48.551 17.3152L48.5514 17.3162L48.8299 17.2048ZM48.83 17.205L49.1098 17.0967L49.1085 17.0935L48.83 17.205ZM48.83 17.205L48.5502 17.3134L48.5515 17.3165L48.83 17.205ZM48.8301 17.2052L49.1098 17.0969L49.1086 17.0938L48.8301 17.2052ZM48.8301 17.2053L48.5503 17.3136L48.5516 17.3167L48.8301 17.2053ZM48.8302 17.2054L49.1091 17.095L49.1087 17.094L48.8302 17.2054ZM48.8671 17.3012L48.5852 17.4041L48.5875 17.4101L48.8671 17.3012ZM49.1659 18.0685V18.3685H49.6047L49.4455 17.9597L49.1659 18.0685ZM49.1229 18.0685V17.7685H48.7179L48.836 18.156L49.1229 18.0685ZM46.9318 16.586V16.886H47.4128L47.2012 16.454L46.9318 16.586ZM43.379 12.1329L43.568 11.8998L43.4854 11.8329H43.379V12.1329ZM44.6112 5.93274L44.4782 5.66385L44.4782 5.66385L44.6112 5.93274ZM44.7499 5.71047L44.4499 5.71047V5.71047H44.7499ZM44.3495 5.90954L44.5274 5.66798L44.5269 5.66758L44.3495 5.90954ZM43.0917 4.9876L43.0357 4.69288L42.3579 4.82169L42.9144 5.22956L43.0917 4.9876ZM44.7499 4.63003L45.0499 4.63004L45.0499 4.24816L44.6789 4.33856L44.7499 4.63003ZM26.0905 3.73611L26.0914 4.03611L26.0917 4.0361L26.0905 3.73611ZM26.0907 3.73611L26.0898 3.43611L26.0895 3.43611L26.0907 3.73611ZM22.7579 3.74288L22.7307 3.44411L22.7579 4.04288V3.74288ZM22.7583 3.74284L22.7855 4.04161L22.7583 3.44284V3.74284ZM9.33635 3.42393L9.35549 3.12454L9.28125 3.71883L9.33635 3.42393ZM41.7423 3.70809L41.7899 4.00429L41.7389 3.40811L41.7423 3.70809ZM37.1896 3.72935L37.1893 4.02935H37.1896V3.72935ZM30.7501 3.72355L30.7504 3.42355H30.7501V3.72355ZM27.0606 3.73322L27.0615 4.03322L27.062 4.03321L27.0606 3.73322ZM16.7714 5.8361L16.795 5.53703L16.4714 5.51147V5.8361H16.7714ZM28.2499 6.18013H28.5499V5.87617L28.246 5.88016L28.2499 6.18013ZM28.2499 7.67994V7.97994H28.5499V7.67994H28.2499ZM16.7714 7.67994H16.4714V7.97994H16.7714V7.67994ZM43.1854 26.9771L42.8893 27.0248L42.93 27.2771H43.1854V26.9771ZM49.2498 26.9771V27.2771H49.5498V26.9771H49.2498ZM49.2498 26.4823H49.5498V26.1823H49.2498V26.4823ZM44.7498 26.4823H44.4498V26.7823H44.7498V26.4823ZM44.7498 24.9979V24.6979H44.4498V24.9979H44.7498ZM48.2498 24.9979V25.2979H48.5498V24.9979H48.2498ZM47.5467 18.0708L47.8305 17.9735L47.7611 17.7708H47.5467V18.0708ZM41.1112 10.6489V10.9489L41.2489 10.3824L41.1112 10.6489ZM4.74979 16.5864H4.44979V16.8864H4.74979V16.5864ZM12.2848 16.5864H12.5848V16.2864H12.2848V16.5864ZM12.2848 18.0708V18.3708H12.5848V18.0708H12.2848ZM4.74979 18.0708V17.7708H4.44979V18.0708H4.74979ZM4.74979 24.9979H4.44979V25.2979H4.74979V24.9979ZM5.74979 24.9979H6.04979V24.6979H5.74979V24.9979ZM5.74979 26.4823V26.7823H6.04979V26.4823H5.74979ZM2.74979 26.4823V26.1823H2.44979V26.4823H2.74979ZM2.74979 26.9771H2.44979V27.2771H2.74979V26.9771ZM7.06424 26.9771V27.2771H7.31951L7.36037 27.0251L7.06424 26.9771ZM16.4353 26.9771L16.1392 27.0248L16.1799 27.2771H16.4353V26.9771ZM33.8143 26.9771V27.2771H34.0696L34.1105 27.0251L33.8143 26.9771ZM50.0499 25.0227V22.2762H49.4499V25.0227H50.0499ZM49.8331 25.3109L49.8335 25.3108L49.6663 24.7346L49.6659 24.7347L49.8331 25.3109ZM51.0495 26.2347C51.0495 25.4913 50.514 24.8721 49.8092 24.7288L49.6897 25.3168C50.1256 25.4054 50.4495 25.7874 50.4495 26.2347H51.0495ZM51.0495 27.2223V26.2347H50.4495V27.2223H51.0495ZM49.8092 28.7301C50.5139 28.5868 51.0495 27.9695 51.0495 27.2223H50.4495C50.4495 27.6734 50.1256 28.0535 49.6897 28.1421L49.8092 28.7301ZM50.0495 28.4612V28.4361H49.4495V28.4612H50.0495ZM43.185 28.7612H49.7495V28.1612H43.185V28.7612ZM38.4994 32.7195C41.0109 32.7195 43.0944 30.8935 43.4811 28.5092L42.8888 28.4132C42.5489 30.509 40.7145 32.1195 38.4994 32.1195V32.7195ZM33.5196 28.509C33.9043 30.8935 35.988 32.7195 38.4994 32.7195V32.1195C36.2843 32.1195 34.45 30.509 34.112 28.4134L33.5196 28.509ZM16.4348 28.7612H33.8158V28.1612H16.4348V28.7612ZM11.7493 32.7195C14.2608 32.7195 16.3443 30.8935 16.7309 28.5092L16.1387 28.4132C15.7988 30.509 13.9644 32.1195 11.7493 32.1195V32.7195ZM6.76755 28.509C7.15221 30.8916 9.23787 32.7195 11.7493 32.7195V32.1195C9.53407 32.1195 7.69789 30.507 7.35988 28.4134L6.76755 28.509ZM3.24927 28.7612H7.06372V28.1612H3.24927V28.7612ZM2.50199 28.7631L3.25004 28.7612L3.24849 28.1612L2.50044 28.1631L2.50199 28.7631ZM0.949268 27.2242C0.949268 28.0748 1.6468 28.7631 2.50122 28.7631V28.1631C1.97284 28.1631 1.54927 27.7382 1.54927 27.2242H0.949268ZM0.949268 26.2366V27.2242H1.54927V26.2366H0.949268ZM2.50122 24.6977C1.64936 24.6977 0.949268 25.3834 0.949268 26.2366H1.54927C1.54927 25.7213 1.97418 25.2977 2.50122 25.2977V24.6977ZM3.24927 24.6977H2.50122V25.2977H3.24927V24.6977ZM2.94927 13.8668V24.9977H3.54927V13.8668H2.94927ZM9.50127 7.37996C5.8913 7.37996 2.94927 10.2868 2.94927 13.8668H3.54927C3.54927 10.6241 6.21673 7.97996 9.50127 7.97996V7.37996ZM15.2706 7.37609L9.50107 7.37996L9.50147 7.97996L15.271 7.97609L15.2706 7.37609ZM14.9708 5.70271V7.67609H15.5708V5.70271H14.9708ZM2.25725 2.72494C2.6883 3.1515 3.34522 3.52612 4.15757 3.85871C4.97472 4.19327 5.97184 4.49431 7.10336 4.76295C9.3667 5.3003 12.1922 5.71366 15.2426 6.00139L15.2989 5.40404C12.2639 5.11776 9.46836 4.70776 7.24196 4.17918C6.12862 3.91486 5.16368 3.62229 4.38491 3.30345C3.60135 2.98264 3.02851 2.64405 2.67929 2.29846L2.25725 2.72494ZM2.06832 1.50361C1.85393 1.90889 1.93099 2.40482 2.25816 2.72584L2.67838 2.29757C2.54071 2.16248 2.50839 1.95486 2.59868 1.78417L2.06832 1.50361ZM3.18322 0.962018C2.73006 0.880974 2.28186 1.10265 2.06872 1.50286L2.59829 1.78491C2.68984 1.61302 2.8823 1.51772 3.07759 1.55265L3.18322 0.962018ZM22.7554 1.95656C15.8391 1.95656 8.12837 1.8378 3.18272 0.961929L3.07809 1.55274C8.08543 2.43953 15.8517 2.55656 22.7554 2.55656V1.95656ZM27.053 1.9469C25.6666 1.9527 24.2236 1.95656 22.7554 1.95656V2.55656C24.2247 2.55656 25.6685 2.5527 27.0555 2.5469L27.053 1.9469ZM28.0996 1.94345C27.7548 1.94464 27.4059 1.94584 27.0534 1.9469L27.0552 2.5469C27.4078 2.54584 27.7568 2.54464 28.1017 2.54345L28.0996 1.94345ZM28.0997 1.94345L28.0996 1.94345L28.1018 2.54345L28.1019 2.54344L28.0997 1.94345ZM28.0998 1.94345L28.0997 1.94345L28.1019 2.54344L28.102 2.54344L28.0998 1.94345ZM28.0999 1.94345L28.0998 1.94345L28.102 2.54344L28.1021 2.54344L28.0999 1.94345ZM28.1003 1.94345L28.0999 1.94345L28.102 2.54344L28.1024 2.54344L28.1003 1.94345ZM28.1006 1.94345L28.1004 1.94345L28.1023 2.54344L28.1025 2.54344L28.1006 1.94345ZM28.1005 1.94345L28.1004 1.94345L28.1027 2.54344L28.1028 2.54344L28.1005 1.94345ZM30.7496 1.93724C29.8998 1.93724 29.0142 1.94029 28.1006 1.94345L28.1027 2.54344C29.0165 2.54029 29.9011 2.53724 30.7496 2.53724V1.93724ZM37.1871 1.93917L30.7496 1.93724L30.7495 2.53724L37.187 2.53917L37.1871 1.93917ZM37.189 1.93917H37.1871V2.53917H37.189V1.93917ZM47.696 1.74237C44.2228 1.91018 41.5449 1.93917 37.189 1.93917V2.53917C41.5481 2.53917 44.2373 2.51017 47.725 2.34167L47.696 1.74237ZM48.7565 2.49588C48.6208 2.02738 48.1745 1.72349 47.6987 1.74226L47.7223 2.34179C47.934 2.33344 48.1244 2.47025 48.1801 2.66276L48.7565 2.49588ZM48.2605 3.69396C48.6846 3.45839 48.8914 2.96175 48.7565 2.49588L48.1801 2.66276C48.2367 2.85792 48.1505 3.0687 47.9691 3.16944L48.2605 3.69396ZM46.34 4.49408C47.0921 4.25057 47.7363 3.98458 48.2603 3.69406L47.9693 3.16933C47.4894 3.43546 46.8835 3.68743 46.1552 3.92325L46.34 4.49408ZM46.5476 5.71046V4.20867H45.9476V5.71046H46.5476ZM45.4188 7.52698C46.1228 7.17523 46.5476 6.49414 46.5476 5.71046H45.9476C45.9476 6.2643 45.6536 6.73896 45.1506 6.99024L45.4188 7.52698ZM44.4917 7.74996C44.8076 7.74996 45.1228 7.67457 45.4185 7.52709L45.1508 6.99013C44.9349 7.09778 44.7111 7.14996 44.4917 7.14996V7.74996ZM43.2768 7.3456C43.6402 7.61308 44.0638 7.74996 44.4917 7.74996V7.14996C44.1932 7.14996 43.894 7.0549 43.6325 6.86238L43.2768 7.3456ZM40.8572 5.56963L43.2771 7.34584L43.6322 6.86215L41.2123 5.08594L40.8572 5.56963ZM29.7566 6.45495C34.1511 6.35427 37.9801 6.0715 41.0776 5.62471L40.9919 5.03086C37.9254 5.47318 34.1218 5.75479 29.7429 5.85511L29.7566 6.45495ZM30.0497 7.68191V6.15503H29.4497V7.68191H30.0497ZM34.9976 7.37997L29.7496 7.38191L29.7499 7.98191L34.9979 7.97997L34.9976 7.37997ZM44.0825 10.4089C41.5558 8.50999 38.4091 7.37997 34.9977 7.37997V7.97997C38.2744 7.97997 41.2956 9.06494 43.722 10.8885L44.0825 10.4089ZM44.2908 10.5698L44.0857 10.4113L43.7188 10.8861L43.9239 11.0446L44.2908 10.5698ZM49.0471 16.9393C48.0641 14.4118 46.4057 12.2168 44.2916 10.5705L43.923 11.0439C45.9534 12.6251 47.545 14.7324 48.4879 17.1568L49.0471 16.9393ZM49.0411 16.9243L49.0352 16.9127L48.4997 17.1833L48.5056 17.1949L49.0411 16.9243ZM49.064 16.9772L49.0503 16.9444L48.4963 17.1749L48.51 17.2077L49.064 16.9772ZM49.1088 17.0944C49.0939 17.0567 49.0812 17.0245 49.0697 16.9921L48.5043 17.1928C48.52 17.237 48.5367 17.2791 48.551 17.3152L49.1088 17.0944ZM49.1085 17.0935L49.1085 17.0934L48.5514 17.3162L48.5514 17.3164L49.1085 17.0935ZM49.1098 17.0967L49.1097 17.0967L48.5502 17.3133L48.5502 17.3133L49.1098 17.0967ZM49.1086 17.0938L49.1085 17.0936L48.5515 17.3165L48.5515 17.3166L49.1086 17.0938ZM49.1099 17.097L49.1098 17.0969L48.5503 17.3135L48.5503 17.3136L49.1099 17.097ZM49.1087 17.094L49.1086 17.0939L48.5516 17.3167L48.5516 17.3168L49.1087 17.094ZM49.1489 17.1984C49.1355 17.1618 49.1215 17.1263 49.1091 17.095L48.5512 17.3159C48.5641 17.3484 48.5751 17.3764 48.5853 17.4041L49.1489 17.1984ZM49.4455 17.9597L49.1466 17.1923L48.5875 17.4101L48.8864 18.1774L49.4455 17.9597ZM49.1229 18.3685H49.1659V17.7685H49.1229V18.3685ZM50.0499 22.2762C50.0499 20.7847 49.8246 19.3423 49.4099 17.9811L48.836 18.156C49.2338 19.4619 49.4499 20.8454 49.4499 22.2762H50.0499ZM46.9315 16.286H36V16.886H46.9315V16.286ZM46.9318 16.286H46.9315V16.886H46.9318V16.286ZM43.1901 12.3659C44.6584 13.5562 45.8418 15.043 46.6624 16.718L47.2012 16.454C46.3421 14.7003 45.1036 13.1447 43.568 11.8998L43.1901 12.3659ZM36 12.4329H43.379V11.8329H36V12.4329ZM36.05 12.3803C36.05 12.4013 36.0412 12.4142 36.0355 12.4198C36.0299 12.4254 36.0182 12.4329 36 12.4329V11.8329C35.7026 11.8329 35.45 12.0783 35.45 12.3803H36.05ZM36.05 16.3386V12.3803H35.45V16.3386H36.05ZM36 16.286C36.0182 16.286 36.0299 16.2934 36.0355 16.2991C36.0412 16.3047 36.05 16.3176 36.05 16.3386H35.45C35.45 16.6406 35.7026 16.886 36 16.886V16.286ZM44.7443 6.20162C44.8314 6.15852 44.9128 6.09393 44.9706 6.00086C45.0284 5.90779 45.0499 5.80654 45.0499 5.71047H44.4499C44.4499 5.7142 44.4495 5.71252 44.4509 5.70699C44.4524 5.70112 44.4555 5.69303 44.4608 5.68438C44.4662 5.67574 44.472 5.66952 44.4765 5.66571C44.4806 5.66214 44.482 5.66197 44.4782 5.66385L44.7443 6.20162ZM44.1716 6.15111C44.2479 6.2073 44.341 6.25079 44.45 6.26054C44.5591 6.27029 44.6587 6.24397 44.7443 6.20162L44.4782 5.66385C44.4736 5.66612 44.4741 5.66525 44.4793 5.66414C44.4848 5.66295 44.4932 5.66201 44.5034 5.66292C44.5136 5.66383 44.5217 5.66625 44.5268 5.66833C44.5314 5.67025 44.5317 5.67111 44.5274 5.66798L44.1716 6.15111ZM42.9144 5.22956L44.1722 6.15151L44.5269 5.66758L43.2691 4.74564L42.9144 5.22956ZM44.6789 4.33856C44.1685 4.46291 43.6208 4.58167 43.0357 4.69288L43.1477 5.28232C43.7423 5.16933 44.3001 5.04842 44.8209 4.92151L44.6789 4.33856ZM45.0499 5.71047L45.0499 4.63004L44.4499 4.63003L44.4499 5.71047L45.0499 5.71047ZM26.0917 4.0361L26.0919 4.0361L26.0895 3.43611L26.0893 3.43611L26.0917 4.0361ZM22.7579 4.04288C23.8896 4.04288 25.0051 4.03945 26.0914 4.03611L26.0896 3.43611C25.0031 3.43945 23.8885 3.44288 22.7579 3.44288V4.04288ZM22.7312 3.44407L22.7307 3.44411L22.785 4.04165L22.7855 4.04161L22.7312 3.44407ZM9.3172 3.72332C13.5285 3.99263 18.318 4.04284 22.7583 4.04284V3.44284C18.3197 3.44284 13.5465 3.39255 9.35549 3.12454L9.3172 3.72332ZM26.0003 4.41118C19.1879 4.41118 13.404 3.87866 9.39144 3.12903L9.28125 3.71883C13.3387 4.47683 19.1608 5.01118 26.0003 5.01118V4.41118ZM41.6948 3.41189C37.7336 4.04824 32.2642 4.41118 26.0003 4.41118V5.01118C32.2825 5.01118 37.7863 4.64747 41.7899 4.00429L41.6948 3.41189ZM37.1915 4.02935C38.9187 4.02935 40.3867 4.02355 41.7458 4.00807L41.7389 3.40811C40.383 3.42355 38.9175 3.42935 37.1915 3.42935V4.02935ZM37.1896 4.02935H37.1915V3.42935H37.1896V4.02935ZM30.7498 4.02355L37.1893 4.02935L37.1899 3.42935L30.7504 3.42355L30.7498 4.02355ZM27.062 4.03321C28.3469 4.02742 29.5828 4.02355 30.7501 4.02355V3.42355C29.5815 3.42355 28.3447 3.42742 27.0593 3.43322L27.062 4.03321ZM26.0916 4.03611L27.0615 4.03321L27.0597 3.43322L26.0898 3.43611L26.0916 4.03611ZM25.9999 5.89559C22.9645 5.89559 19.7967 5.77412 16.795 5.53703L16.7478 6.13516C19.7656 6.37354 22.9493 6.49559 25.9999 6.49559V5.89559ZM28.246 5.88016C27.5107 5.8898 26.762 5.89559 25.9999 5.89559V6.49559C26.7651 6.49559 27.5164 6.48978 28.2538 6.4801L28.246 5.88016ZM28.5499 7.67994V6.18013H27.9499V7.67994H28.5499ZM16.7714 7.97994H28.2499V7.37994H16.7714V7.97994ZM16.4714 5.8361V7.67994H17.0714V5.8361H16.4714ZM11.7499 30.6354C10.1197 30.6354 8.79989 29.3249 8.79989 27.7192H8.19989C8.19989 29.6622 9.79423 31.2354 11.7499 31.2354V30.6354ZM14.6999 27.7192C14.6999 29.3249 13.3801 30.6354 11.7499 30.6354V31.2354C13.7056 31.2354 15.2999 29.6622 15.2999 27.7192H14.6999ZM11.7499 24.8031C13.3801 24.8031 14.6999 26.1136 14.6999 27.7192H15.2999C15.2999 25.7763 13.7056 24.2031 11.7499 24.2031V24.8031ZM8.79989 27.7192C8.79989 26.1136 10.1197 24.8031 11.7499 24.8031V24.2031C9.79423 24.2031 8.19989 25.7763 8.19989 27.7192H8.79989ZM34.9499 27.7192C34.9499 29.6622 36.5442 31.2354 38.4999 31.2354V30.6354C36.8697 30.6354 35.5499 29.3249 35.5499 27.7192H34.9499ZM38.4999 24.2031C36.5442 24.2031 34.9499 25.7763 34.9499 27.7192H35.5499C35.5499 26.1136 36.8697 24.8031 38.4999 24.8031V24.2031ZM42.0499 27.7192C42.0499 25.7763 40.4556 24.2031 38.4999 24.2031V24.8031C40.1301 24.8031 41.4499 26.1136 41.4499 27.7192H42.0499ZM38.4999 31.2354C40.4556 31.2354 42.0499 29.6622 42.0499 27.7192H41.4499C41.4499 29.3249 40.1301 30.6354 38.4999 30.6354V31.2354ZM43.4816 26.9293C43.097 24.5446 41.0112 22.7187 38.4999 22.7187V23.3187C40.7152 23.3187 42.5513 24.9294 42.8893 27.0248L43.4816 26.9293ZM49.2498 26.6771H43.1854V27.2771H49.2498V26.6771ZM48.9498 26.4823V26.9771H49.5498V26.4823H48.9498ZM44.7498 26.7823H49.2498V26.1823H44.7498V26.7823ZM44.4498 24.9979V26.4823H45.0498V24.9979H44.4498ZM48.2498 24.6979H44.7498V25.2979H48.2498V24.6979ZM47.9498 22.2785V24.9979H48.5498V22.2785H47.9498ZM47.263 18.1681C47.7057 19.4599 47.9498 20.8399 47.9498 22.2785H48.5498C48.5498 20.7714 48.294 19.3258 47.8305 17.9735L47.263 18.1681ZM35.9997 18.3708H47.5467V17.7708H35.9997V18.3708ZM33.9497 16.339C33.9497 17.4625 34.8722 18.3708 35.9997 18.3708V17.7708C35.1976 17.7708 34.5497 17.1252 34.5497 16.339H33.9497ZM33.9497 12.3807V16.339H34.5497V12.3807H33.9497ZM35.9997 10.3489C34.8722 10.3489 33.9497 11.2573 33.9497 12.3807H34.5497C34.5497 11.5945 35.1976 10.9489 35.9997 10.9489V10.3489ZM41.1112 10.3489H35.9997V10.9489H41.1112V10.3489ZM34.9977 9.46456C37.1514 9.46456 39.1845 9.99159 40.9736 10.9155L41.2489 10.3824C39.3774 9.41597 37.2503 8.86456 34.9977 8.86456V9.46456ZM9.50174 9.46456H34.9977V8.86456H9.50174V9.46456ZM5.04979 13.867C5.04979 11.4437 7.04344 9.46456 9.50174 9.46456V8.86456C6.71785 8.86456 4.44979 11.1066 4.44979 13.867H5.04979ZM5.04979 16.5864V13.867H4.44979V16.5864H5.04979ZM12.2848 16.2864H4.74979V16.8864H12.2848V16.2864ZM12.5848 18.0708V16.5864H11.9848V18.0708H12.5848ZM4.74979 18.3708H12.2848V17.7708H4.74979V18.3708ZM5.04979 24.9979V18.0708H4.44979V24.9979H5.04979ZM5.74979 24.6979H4.74979V25.2979H5.74979V24.6979ZM6.04979 26.4823V24.9979H5.44979V26.4823H6.04979ZM2.74979 26.7823H5.74979V26.1823H2.74979V26.7823ZM3.04979 26.9771V26.4823H2.44979V26.9771H3.04979ZM7.06424 26.6771H2.74979V27.2771H7.06424V26.6771ZM11.7498 22.7187C9.2383 22.7187 7.1548 24.5447 6.76811 26.929L7.36037 27.0251C7.70028 24.9292 9.53469 23.3187 11.7498 23.3187V22.7187ZM16.7315 26.9293C16.3469 24.5446 14.2611 22.7187 11.7498 22.7187V23.3187C13.9651 23.3187 15.8012 24.9294 16.1392 27.0248L16.7315 26.9293ZM33.8143 26.6771H16.4353V27.2771H33.8143V26.6771ZM38.4999 22.7187C35.9884 22.7187 33.9049 24.5447 33.5182 26.929L34.1105 27.0251C34.4504 24.9292 36.2848 23.3187 38.4999 23.3187V22.7187Z" fill="#222532"/>
<path fill-rule="evenodd" clip-rule="evenodd" d="M23.75 12.3803V16.3386C23.75 17.2934 22.9648 18.0704 22 18.0704H17C16.0351 18.0704 15.25 17.2934 15.25 16.3386V12.3803C15.25 11.4255 16.0351 10.6485 17 10.6485H22C22.9648 10.6485 23.75 11.4255 23.75 12.3803ZM16.75 12.3803V16.3386C16.75 16.4739 16.8652 16.586 17 16.586H22C22.1348 16.586 22.25 16.472 22.25 16.3386V12.3803C22.25 12.2469 22.1348 12.1329 22 12.1329H17C16.8652 12.1329 16.75 12.2469 16.75 12.3803Z" fill="white"/>
<path d="M24.05 16.3386V12.3803H23.45V16.3386H24.05ZM22 18.3704C23.1276 18.3704 24.05 17.462 24.05 16.3386H23.45C23.45 17.1248 22.8021 17.7704 22 17.7704V18.3704ZM17 18.3704H22V17.7704H17V18.3704ZM14.95 16.3386C14.95 17.462 15.8724 18.3704 17 18.3704V17.7704C16.1979 17.7704 15.55 17.1248 15.55 16.3386H14.95ZM14.95 12.3803V16.3386H15.55V12.3803H14.95ZM17 10.3485C15.8724 10.3485 14.95 11.2568 14.95 12.3803H15.55C15.55 11.5941 16.1979 10.9485 17 10.9485V10.3485ZM22 10.3485H17V10.9485H22V10.3485ZM24.05 12.3803C24.05 11.2568 23.1276 10.3485 22 10.3485V10.9485C22.8021 10.9485 23.45 11.5941 23.45 12.3803H24.05ZM17.05 16.3386V12.3803H16.45V16.3386H17.05ZM17 16.286C17.0167 16.286 17.0284 16.2928 17.0349 16.2992C17.0417 16.3059 17.05 16.3193 17.05 16.3386H16.45C16.45 16.644 16.704 16.886 17 16.886V16.286ZM22 16.286H17V16.886H22V16.286ZM21.95 16.3386C21.95 16.3176 21.9589 16.3047 21.9645 16.2991C21.9702 16.2934 21.9818 16.286 22 16.286V16.886C22.2975 16.886 22.55 16.6406 22.55 16.3386H21.95ZM21.95 12.3803V16.3386H22.55V12.3803H21.95ZM22 12.4329C21.9818 12.4329 21.9702 12.4254 21.9645 12.4198C21.9589 12.4142 21.95 12.4013 21.95 12.3803H22.55C22.55 12.0783 22.2975 11.8329 22 11.8329V12.4329ZM17 12.4329H22V11.8329H17V12.4329ZM17.05 12.3803C17.05 12.4013 17.0411 12.4142 17.0355 12.4198C17.0298 12.4254 17.0182 12.4329 17 12.4329V11.8329C16.7025 11.8329 16.45 12.0783 16.45 12.3803H17.05Z" fill="#222532"/>
<path fill-rule="evenodd" clip-rule="evenodd" d="M26.5 10.6485H31.5C32.4648 10.6485 33.25 11.4255 33.25 12.3803V16.3386C33.25 17.2934 32.4648 18.0704 31.5 18.0704H26.5C25.5351 18.0704 24.75 17.2934 24.75 16.3386V12.3803C24.75 11.4255 25.5351 10.6485 26.5 10.6485ZM31.5 16.586C31.6348 16.586 31.75 16.472 31.75 16.3386V12.3803C31.75 12.2469 31.6348 12.1329 31.5 12.1329H26.5C26.3652 12.1329 26.25 12.2469 26.25 12.3803V16.3386C26.25 16.472 26.3652 16.586 26.5 16.586H31.5Z" fill="white"/>
<path d="M31.5 10.3485H26.5V10.9485H31.5V10.3485ZM33.55 12.3803C33.55 11.2568 32.6276 10.3485 31.5 10.3485V10.9485C32.3021 10.9485 32.95 11.5941 32.95 12.3803H33.55ZM33.55 16.3386V12.3803H32.95V16.3386H33.55ZM31.5 18.3704C32.6276 18.3704 33.55 17.462 33.55 16.3386H32.95C32.95 17.1248 32.3021 17.7704 31.5 17.7704V18.3704ZM26.5 18.3704H31.5V17.7704H26.5V18.3704ZM24.45 16.3386C24.45 17.462 25.3724 18.3704 26.5 18.3704V17.7704C25.6979 17.7704 25.05 17.1248 25.05 16.3386H24.45ZM24.45 12.3803V16.3386H25.05V12.3803H24.45ZM26.5 10.3485C25.3724 10.3485 24.45 11.2568 24.45 12.3803H25.05C25.05 11.5941 25.6979 10.9485 26.5 10.9485V10.3485ZM31.45 16.3386C31.45 16.3176 31.4589 16.3047 31.4645 16.2991C31.4702 16.2934 31.4818 16.286 31.5 16.286V16.886C31.7975 16.886 32.05 16.6406 32.05 16.3386H31.45ZM31.45 12.3803V16.3386H32.05V12.3803H31.45ZM31.5 12.4329C31.4818 12.4329 31.4702 12.4254 31.4645 12.4198C31.4589 12.4142 31.45 12.4013 31.45 12.3803H32.05C32.05 12.0783 31.7975 11.8329 31.5 11.8329V12.4329ZM26.5 12.4329H31.5V11.8329H26.5V12.4329ZM26.55 12.3803C26.55 12.4013 26.5411 12.4142 26.5355 12.4198C26.5298 12.4254 26.5182 12.4329 26.5 12.4329V11.8329C26.2025 11.8329 25.95 12.0783 25.95 12.3803H26.55ZM26.55 16.3386V12.3803H25.95V16.3386H26.55ZM26.5 16.286C26.5182 16.286 26.5298 16.2934 26.5355 16.2991C26.5411 16.3047 26.55 16.3176 26.55 16.3386H25.95C25.95 16.6406 26.2025 16.886 26.5 16.886V16.286ZM31.5 16.286H26.5V16.886H31.5V16.286Z" fill="#222532"/>
<path fill-rule="evenodd" clip-rule="evenodd" d="M36.5 27.7188C36.5 26.6268 37.3965 25.7396 38.5 25.7396C39.6035 25.7396 40.5 26.6287 40.5 27.7188C40.5 28.8108 39.6035 29.698 38.5 29.698C37.3965 29.698 36.5 28.8108 36.5 27.7188ZM38 27.7188C38 27.9913 38.2246 28.2136 38.5 28.2136C38.7754 28.2136 39 27.9913 39 27.7188C39 27.4463 38.7754 27.224 38.5 27.224C38.2246 27.224 38 27.4463 38 27.7188Z" fill="white"/>
<path d="M38.5 25.4396C37.2338 25.4396 36.2 26.4582 36.2 27.7188H36.8C36.8 26.7954 37.5592 26.0396 38.5 26.0396V25.4396ZM40.8 27.7188C40.8 26.4603 39.7664 25.4396 38.5 25.4396V26.0396C39.4406 26.0396 40.2 26.7972 40.2 27.7188H40.8ZM38.5 29.998C39.7662 29.998 40.8 28.9794 40.8 27.7188H40.2C40.2 28.6422 39.4408 29.398 38.5 29.398V29.998ZM36.2 27.7188C36.2 28.9794 37.2338 29.998 38.5 29.998V29.398C37.5592 29.398 36.8 28.6422 36.8 27.7188H36.2ZM38.5 27.9136C38.3873 27.9136 38.3 27.8227 38.3 27.7188H37.7C37.7 28.16 38.0619 28.5136 38.5 28.5136V27.9136ZM38.7 27.7188C38.7 27.8227 38.6127 27.9136 38.5 27.9136V28.5136C38.9381 28.5136 39.3 28.16 39.3 27.7188H38.7ZM38.5 27.524C38.6127 27.524 38.7 27.6149 38.7 27.7188H39.3C39.3 27.2776 38.9381 26.924 38.5 26.924V27.524ZM38.3 27.7188C38.3 27.6149 38.3873 27.524 38.5 27.524V26.924C38.0619 26.924 37.7 27.2776 37.7 27.7188H38.3Z" fill="#222532"/>
<path fill-rule="evenodd" clip-rule="evenodd" d="M9.75 27.7188C9.75 26.6268 10.6465 25.7396 11.75 25.7396C12.8535 25.7396 13.75 26.6287 13.75 27.7188C13.75 28.8108 12.8535 29.698 11.75 29.698C10.6465 29.698 9.75 28.8089 9.75 27.7188ZM11.25 27.7188C11.25 27.9913 11.4746 28.2136 11.75 28.2136C12.0254 28.2136 12.25 27.9913 12.25 27.7188C12.25 27.4463 12.0254 27.224 11.75 27.224C11.4746 27.224 11.25 27.4463 11.25 27.7188Z" fill="white"/>
<path d="M11.75 25.4396C10.4838 25.4396 9.45 26.4582 9.45 27.7188H10.05C10.05 26.7954 10.8092 26.0396 11.75 26.0396V25.4396ZM14.05 27.7188C14.05 26.4603 13.0164 25.4396 11.75 25.4396V26.0396C12.6906 26.0396 13.45 26.7972 13.45 27.7188H14.05ZM11.75 29.998C13.0162 29.998 14.05 28.9794 14.05 27.7188H13.45C13.45 28.6422 12.6908 29.398 11.75 29.398V29.998ZM9.45 27.7188C9.45 28.9773 10.4836 29.998 11.75 29.998V29.398C10.8094 29.398 10.05 28.6404 10.05 27.7188H9.45ZM11.75 27.9136C11.6373 27.9136 11.55 27.8227 11.55 27.7188H10.95C10.95 28.16 11.3119 28.5136 11.75 28.5136V27.9136ZM11.95 27.7188C11.95 27.8227 11.8627 27.9136 11.75 27.9136V28.5136C12.1881 28.5136 12.55 28.16 12.55 27.7188H11.95ZM11.75 27.524C11.8627 27.524 11.95 27.6149 11.95 27.7188H12.55C12.55 27.2776 12.1881 26.924 11.75 26.924V27.524ZM11.55 27.7188C11.55 27.6149 11.6373 27.524 11.75 27.524V26.924C11.3119 26.924 10.95 27.2776 10.95 27.7188H11.55Z" fill="#222532"/>
<path d="M17.25 24.9974H32.75V26.4818H17.25V24.9974Z" fill="white" stroke="#222532" stroke-width="0.6"/>
</svg>
