<svg width="61" height="48" viewBox="0 0 61 48" fill="none" xmlns="http://www.w3.org/2000/svg">
<path fill-rule="evenodd" clip-rule="evenodd" d="M59.5974 43.8612C59.588 43.8896 59.5762 43.9181 59.5621 43.9442L59.5626 43.9438C59.5485 43.9723 59.5344 43.9984 59.5061 44.0174C59.4952 44.0348 59.4842 44.0501 59.4732 44.0654C59.4677 44.0731 59.4622 44.0807 59.4568 44.0886C59.4379 44.1123 59.4168 44.1385 59.3956 44.1622C59.3768 44.1812 59.358 44.2002 59.3368 44.2191C59.3133 44.2429 59.2874 44.2642 59.2616 44.2832C59.2507 44.2905 59.2387 44.2984 59.2264 44.3063C59.2146 44.3138 59.2025 44.3213 59.191 44.3283C59.184 44.3319 59.1771 44.3356 59.1702 44.3393C59.1654 44.342 59.1606 44.3447 59.1558 44.3473C59.14 44.3562 59.124 44.3652 59.1063 44.3734C59.0968 44.3782 59.0871 44.3825 59.0771 44.3864C59.0663 44.3908 59.0553 44.3948 59.0442 44.3988C59.0352 44.4021 59.0261 44.4055 59.017 44.409C59.0107 44.4114 59.0047 44.414 58.9987 44.4167C58.993 44.4192 58.9873 44.4217 58.9813 44.4239C58.9748 44.4265 58.9679 44.4287 58.9605 44.4304C58.9558 44.4315 58.9517 44.4315 58.9476 44.4315H58.9463C58.9426 44.4316 58.9389 44.4317 58.9347 44.4327C58.8618 44.4517 58.7865 44.4636 58.7089 44.4636C58.6031 44.4636 58.5655 44.4802 58.5655 44.4802C58.5222 44.5308 58.4436 44.7839 58.3939 44.9442L58.3891 44.9596C58.2056 45.5529 57.8223 46.787 56.2725 46.787C54.9469 46.787 54.2884 45.8988 53.8066 45.2489L53.8032 45.2444C53.3517 44.6297 53.18 44.4635 52.8413 44.4635C52.5027 44.4635 52.3333 44.6296 51.8794 45.2419L51.8761 45.2465C51.3943 45.8963 50.7357 46.7846 49.4078 46.7846C48.0821 46.7846 47.4236 45.8964 46.9418 45.2465L46.9384 45.2419C46.4869 44.6297 46.3152 44.4635 45.9766 44.4635C45.6403 44.4635 45.4686 44.6297 45.0147 45.2444C44.5349 45.8946 43.8741 46.787 42.5453 46.787C41.2174 46.787 40.5589 45.8988 40.0771 45.2489L40.0737 45.2444C39.6221 44.6321 39.4504 44.466 39.1118 44.466C38.7731 44.466 38.6038 44.6321 38.1499 45.2444C37.6701 45.8946 37.0116 46.787 35.6806 46.787C34.3549 46.787 33.6964 45.8988 33.2146 45.2489L33.2112 45.2444C32.7597 44.6321 32.588 44.466 32.2494 44.466C31.9131 44.466 31.7414 44.6321 31.2875 45.2468C30.8077 45.897 30.1469 46.7894 28.8182 46.7894C27.4925 46.7894 26.834 45.9012 26.3522 45.2514L26.3488 45.2468C25.8973 44.6345 25.7256 44.4684 25.3869 44.4684C25.0506 44.4684 24.8789 44.6346 24.4251 45.2492C23.9453 45.8995 23.2844 46.7918 21.9557 46.7918C21.5347 46.7918 21.1514 46.6186 20.881 46.3053C20.2248 45.5507 20.3565 44.2644 20.627 42.2281L20.6316 42.1929C20.7282 41.4561 20.8755 40.3326 20.8269 39.7861C19.0702 40.1324 16.5773 43.6854 15.2839 46.2698C15.124 46.5926 14.7971 46.792 14.4443 46.792C14.4255 46.792 14.4067 46.792 14.3879 46.7896C14.014 46.7683 13.6871 46.5238 13.5601 46.1678C13.3437 45.5645 11.4953 40.1941 13.4166 37.2228C14.1363 36.1121 15.3027 35.4737 16.7937 35.3764C18.0895 35.291 18.6821 34.9397 18.795 34.6621C18.8703 34.477 18.7503 34.1613 18.487 33.8599C17.7861 33.0554 16.2198 32.4099 14.4373 32.8988C11.9655 33.5732 9.19517 36.917 8.26153 40.3534C7.93462 41.5614 7.58182 43.797 8.91763 45.1806C9.2798 45.558 9.27039 46.1584 8.89882 46.5238C8.52489 46.8893 7.93228 46.8822 7.56777 46.5049C6.09322 44.979 5.69578 42.6153 6.44598 39.8528C7.41708 36.2739 10.4886 32.0092 13.9456 31.067C16.5207 30.3645 18.7901 31.3328 19.9002 32.6072C20.6692 33.4877 20.8996 34.5011 20.5351 35.3887C20.2177 36.16 19.3334 37.1141 16.9158 37.2731C16.0151 37.3324 15.3872 37.6575 14.9945 38.2627C14.202 39.4873 14.3854 41.6588 14.7452 43.3913C16.1563 41.1058 18.6327 37.7856 21.1961 37.8663C21.61 37.8806 21.9839 38.0609 22.2473 38.3766C22.5107 38.6898 22.64 39.0957 22.6871 39.5988C24.4179 38.443 26.944 37.2991 31.9296 36.7912C26.5251 14.6964 36.6848 2.25821 37.1457 1.71C37.1497 1.70603 37.1536 1.7029 37.1573 1.6999C37.1626 1.69571 37.1675 1.69179 37.1716 1.68626C37.1998 1.65541 37.228 1.6293 37.2586 1.6032C37.2774 1.58421 37.2962 1.5676 37.3174 1.55336C37.3463 1.53392 37.3752 1.51766 37.4054 1.50068L37.4256 1.48928C37.4444 1.47742 37.4632 1.46555 37.4844 1.45606C37.5291 1.43707 37.5737 1.42283 37.6208 1.41096C37.6318 1.40938 37.6427 1.40569 37.6537 1.402L37.6537 1.40199C37.6592 1.40014 37.6647 1.3983 37.6702 1.39673C37.7337 1.38249 37.7995 1.37537 37.8677 1.37537L38.0065 1.38011C38.284 1.38011 38.545 1.50115 38.7237 1.71474C39.1847 2.26032 49.2947 14.6349 43.9869 36.6228C57.8665 37.4439 59.5645 43.0329 59.6303 43.2773C59.6327 43.2868 59.6327 43.2987 59.635 43.3082L59.6491 43.4007C59.6538 43.434 59.6585 43.4672 59.6585 43.5004C59.6585 43.5027 59.6587 43.505 59.6589 43.5073L59.6597 43.5147C59.66 43.5172 59.6604 43.5198 59.6606 43.5223C59.6608 43.5245 59.6609 43.5267 59.6609 43.5289C59.6609 43.5352 59.6606 43.5413 59.6602 43.5473C59.6595 43.5574 59.6582 43.5673 59.6569 43.5778L59.6562 43.5835L59.656 43.5869C59.6537 43.6191 59.6513 43.6534 59.6444 43.6855C59.6432 43.6927 59.6419 43.6999 59.6405 43.7071C59.6392 43.7132 59.6379 43.7193 59.6366 43.7253C59.6332 43.7405 59.6294 43.7558 59.6256 43.771L59.6208 43.7875L59.6175 43.7991C59.6115 43.8204 59.6056 43.8413 59.5974 43.8612ZM38.8079 39.5466H41.2396C46.5947 21.8735 41.5571 9.95955 38.8079 5.22964V39.5466ZM36.9265 5.47874V39.5466H34.6336C29.3822 22.2174 34.1562 10.3792 36.9265 5.47874ZM56.5988 44.42L56.6036 44.4046L56.6029 44.4047C56.7134 44.0486 56.9015 43.4648 57.3648 43.0543C56.3233 41.7252 53.038 38.996 43.5016 38.5C43.2947 39.2523 43.0713 40.0141 42.8267 40.7878C42.702 41.1817 42.3399 41.4499 41.9307 41.4499H33.9398C33.5306 41.4499 33.1684 41.1817 33.0438 40.7878C32.818 40.0663 32.611 39.3567 32.4158 38.6566C26.3694 39.2309 24.2059 40.7617 22.5526 42.0527C22.5453 42.1083 22.5383 42.1635 22.5312 42.2192C22.5202 42.3062 22.5091 42.3944 22.4962 42.487C22.4044 43.18 22.2633 44.2479 22.2916 44.8175C22.4633 44.7155 22.6373 44.5066 22.9195 44.1222L22.9228 44.1176C23.4047 43.4678 24.0632 42.5795 25.3912 42.5795C26.7168 42.5795 27.3753 43.4677 27.8571 44.1176L27.8605 44.1222C28.312 44.7344 28.4837 44.9006 28.8224 44.9006C29.161 44.9006 29.3304 44.7345 29.7843 44.1222L29.7876 44.1176C30.2694 43.4678 30.928 42.5795 32.2559 42.5795C33.5816 42.5795 34.2401 43.4677 34.7219 44.1176L34.7253 44.1222C35.1792 44.7344 35.3509 44.9006 35.6871 44.9006C36.0258 44.9006 36.1951 44.7345 36.649 44.1222C37.1288 43.4719 37.7873 42.5795 39.1184 42.5795C40.444 42.5795 41.1025 43.4677 41.5843 44.1176L41.5877 44.1222C42.0416 44.7369 42.2133 44.903 42.5519 44.903C42.8906 44.903 43.0599 44.7369 43.5138 44.1246L43.5172 44.1201C43.999 43.4702 44.6575 42.582 45.9855 42.582C47.3111 42.582 47.9696 43.4702 48.4514 44.12L48.4548 44.1246C48.9064 44.7369 49.078 44.903 49.4167 44.903C49.7553 44.903 49.927 44.7368 50.3809 44.1222C50.8607 43.4719 51.5215 42.5795 52.8502 42.5795C54.1782 42.5795 54.8367 43.4677 55.3185 44.1176L55.3219 44.1222C55.7758 44.7344 55.9475 44.9006 56.2838 44.9006C56.3896 44.9006 56.4273 44.884 56.4273 44.884C56.4705 44.8334 56.5491 44.5804 56.5988 44.42Z" fill="white"/>
<path d="M59.5621 43.9442L59.1223 43.7065L59.88 44.3302L59.5621 43.9442ZM59.5974 43.8612L59.1352 43.6703L59.1283 43.6871L59.1226 43.7043L59.5974 43.8612ZM59.5626 43.9438L60.0106 44.1658L59.2447 43.5579L59.5626 43.9438ZM59.5061 44.0174L59.227 43.6026L59.1395 43.6615L59.0832 43.7508L59.5061 44.0174ZM59.4732 44.0654L59.8794 44.3569L59.8795 44.3569L59.4732 44.0654ZM59.4568 44.0886L59.8486 44.3992L59.8585 44.3867L59.8676 44.3736L59.4568 44.0886ZM59.3956 44.1622L59.7508 44.5141L59.76 44.5048L59.7688 44.495L59.3956 44.1622ZM59.3368 44.2191L59.0029 43.847L58.992 43.8568L58.9817 43.8672L59.3368 44.2191ZM59.2616 44.2832L59.5406 44.6981L59.5491 44.6924L59.5574 44.6863L59.2616 44.2832ZM59.2264 44.3063L58.9571 43.885L58.9571 43.885L59.2264 44.3063ZM59.191 44.3283L59.4163 44.7747L59.4335 44.766L59.45 44.756L59.191 44.3283ZM59.1702 44.3393L58.9292 43.9012L58.9291 43.9013L59.1702 44.3393ZM59.1558 44.3473L58.9115 43.9111L58.9114 43.9111L59.1558 44.3473ZM59.1063 44.3734L58.8952 43.9202L58.8881 43.9235L58.8811 43.927L59.1063 44.3734ZM59.0771 44.3864L58.891 43.9224L58.8909 43.9224L59.0771 44.3864ZM59.0442 44.3988L58.8728 43.9291L58.8728 43.9292L59.0442 44.3988ZM59.017 44.409L59.1938 44.8767L59.1979 44.8751L59.017 44.409ZM58.9987 44.4167L59.1995 44.8746L59.1997 44.8745L58.9987 44.4167ZM58.9813 44.4239L59.1606 44.8907L59.1608 44.8906L58.9813 44.4239ZM58.9605 44.4304L58.8512 43.9423L58.8381 43.9456L58.9605 44.4304ZM58.9463 44.4315V43.9315L58.9448 43.9315L58.9463 44.4315ZM58.9347 44.4327L58.8126 43.9479L58.8087 43.9489L58.9347 44.4327ZM58.5655 44.4802L58.3635 44.0228L58.2595 44.0687L58.1856 44.1551L58.5655 44.4802ZM58.3939 44.9442L58.8713 45.0926L58.8714 45.0924L58.3939 44.9442ZM58.3891 44.9596L57.9116 44.8112L57.9114 44.8119L58.3891 44.9596ZM53.8066 45.2489L53.4048 45.5465L53.405 45.5467L53.8066 45.2489ZM53.8032 45.2444L53.4002 45.5404L53.4014 45.5419L53.8032 45.2444ZM51.8794 45.2419L52.2811 45.5398L52.2811 45.5397L51.8794 45.2419ZM51.8761 45.2465L51.4745 44.9486L51.4744 44.9487L51.8761 45.2465ZM46.9418 45.2465L47.3435 44.9487L47.3434 44.9486L46.9418 45.2465ZM46.9384 45.2419L46.536 45.5387L46.5369 45.5398L46.9384 45.2419ZM45.0147 45.2444L44.6125 44.9473L44.6123 44.9475L45.0147 45.2444ZM40.0771 45.2489L40.4787 44.9511L40.4787 44.9511L40.0771 45.2489ZM40.0737 45.2444L39.6713 45.5411L39.672 45.5421L40.0737 45.2444ZM38.1499 45.2444L37.7482 44.9466L37.7476 44.9475L38.1499 45.2444ZM33.2146 45.2489L33.6163 44.9512L33.6162 44.9511L33.2146 45.2489ZM33.2112 45.2444L32.8088 45.5411L32.8096 45.5422L33.2112 45.2444ZM31.2875 45.2468L30.8853 44.9498L30.8851 44.9499L31.2875 45.2468ZM26.3522 45.2514L26.7539 44.9536L26.7538 44.9535L26.3522 45.2514ZM26.3488 45.2468L25.9464 45.5436L25.9472 45.5446L26.3488 45.2468ZM24.4251 45.2492L24.0228 44.9522L24.0227 44.9524L24.4251 45.2492ZM20.881 46.3053L21.2594 45.9786L21.2583 45.9773L20.881 46.3053ZM20.627 42.2281L21.1226 42.2939L21.1227 42.2931L20.627 42.2281ZM20.6316 42.1929L20.1358 42.1279L20.1358 42.1279L20.6316 42.1929ZM20.8269 39.7861L21.3249 39.7418L21.2757 39.188L20.7302 39.2955L20.8269 39.7861ZM15.2839 46.2698L14.8367 46.0461L14.8358 46.0479L15.2839 46.2698ZM14.3879 46.7896L14.4505 46.2935L14.4335 46.2914L14.4164 46.2904L14.3879 46.7896ZM13.5601 46.1678L14.031 45.9998L14.0307 45.999L13.5601 46.1678ZM13.4166 37.2228L12.997 36.951L12.9968 36.9513L13.4166 37.2228ZM16.7937 35.3764L16.8263 35.8754L16.8266 35.8754L16.7937 35.3764ZM18.795 34.6621L19.2582 34.8504L19.2582 34.8504L18.795 34.6621ZM18.487 33.8599L18.1099 34.1884L18.1105 34.1889L18.487 33.8599ZM14.4373 32.8988L14.5689 33.3811L14.5695 33.381L14.4373 32.8988ZM8.26153 40.3534L7.77902 40.2223L7.77889 40.2228L8.26153 40.3534ZM8.91763 45.1806L9.27837 44.8344L9.27734 44.8333L8.91763 45.1806ZM8.89882 46.5238L9.24831 46.8814L9.24944 46.8803L8.89882 46.5238ZM7.56777 46.5049L7.92738 46.1575L7.92732 46.1574L7.56777 46.5049ZM6.44598 39.8528L6.92851 39.9838L6.92854 39.9837L6.44598 39.8528ZM13.9456 31.067L14.0771 31.5494L14.0772 31.5494L13.9456 31.067ZM19.9002 32.6072L19.5231 32.9356L19.5236 32.9362L19.9002 32.6072ZM20.5351 35.3887L20.9975 35.579L20.9976 35.5786L20.5351 35.3887ZM16.9158 37.2731L16.883 36.7741L16.883 36.7741L16.9158 37.2731ZM14.9945 38.2627L14.5751 37.9905L14.5747 37.991L14.9945 38.2627ZM14.7452 43.3913L14.2556 43.493L14.511 44.7224L15.1706 43.654L14.7452 43.3913ZM21.1961 37.8663L21.2133 37.3666L21.2118 37.3666L21.1961 37.8663ZM22.2473 38.3766L21.8634 38.6969L21.8646 38.6984L22.2473 38.3766ZM22.6871 39.5988L22.1892 39.6453L22.2673 40.4803L22.9647 40.0146L22.6871 39.5988ZM31.9296 36.7912L31.9803 37.2887L32.5518 37.2304L32.4153 36.6724L31.9296 36.7912ZM37.1457 1.71L36.7906 1.35803L36.7762 1.37256L36.763 1.38822L37.1457 1.71ZM37.1573 1.6999L37.4693 2.09061L37.4694 2.09061L37.1573 1.6999ZM37.1716 1.68626L36.8027 1.34881L36.7855 1.36759L36.7703 1.38801L37.1716 1.68626ZM37.2586 1.6032L37.5833 1.98344L37.5991 1.96993L37.6138 1.95514L37.2586 1.6032ZM37.3174 1.55336L37.0383 1.1385L37.0383 1.13851L37.3174 1.55336ZM37.4054 1.50068L37.6506 1.93645L37.6511 1.93613L37.4054 1.50068ZM37.4256 1.48928L37.6713 1.92473L37.682 1.91872L37.6923 1.91219L37.4256 1.48928ZM37.4844 1.45606L37.2888 0.995784L37.2798 0.999841L37.4844 1.45606ZM37.6208 1.41096L37.5494 0.916081L37.5237 0.919792L37.4985 0.926155L37.6208 1.41096ZM37.6537 1.402L37.8131 1.87593L37.8177 1.87435L37.6537 1.402ZM37.6537 1.40199L37.4944 0.928044L37.4898 0.929631L37.6537 1.40199ZM37.6702 1.39673L37.5607 0.908845L37.5461 0.912129L37.5317 0.916284L37.6702 1.39673ZM37.8677 1.37537L37.8848 0.875658L37.8763 0.875366H37.8677V1.37537ZM38.0065 1.38011L37.9894 1.87982L37.9979 1.88011H38.0065V1.38011ZM38.7237 1.71474L38.3403 2.03562L38.3418 2.03742L38.7237 1.71474ZM43.9869 36.6228L43.5009 36.5055L43.3606 37.0867L43.9574 37.122L43.9869 36.6228ZM59.6303 43.2773L60.1158 43.1571L60.1131 43.1473L59.6303 43.2773ZM59.635 43.3082L60.1293 43.2328L60.1259 43.2102L60.1204 43.1881L59.635 43.3082ZM59.6491 43.4007L60.1442 43.3306L60.1434 43.3254L59.6491 43.4007ZM59.6589 43.5073L59.1608 43.5526L59.1621 43.5636L59.6589 43.5073ZM59.6597 43.5147L59.1629 43.5709L59.1635 43.576L59.6597 43.5147ZM59.6606 43.5223L60.1587 43.4789L60.1587 43.4786L59.6606 43.5223ZM59.6602 43.5473L59.1615 43.511L59.1615 43.5111L59.6602 43.5473ZM59.6569 43.5778L59.1608 43.5156L59.1608 43.5159L59.6569 43.5778ZM59.6562 43.5835L59.16 43.5215L59.1584 43.5348L59.1574 43.5482L59.6562 43.5835ZM59.656 43.5869L59.1572 43.5516L59.1572 43.5517L59.656 43.5869ZM59.6444 43.6855L59.1553 43.5817L59.153 43.5928L59.1511 43.6041L59.6444 43.6855ZM59.6405 43.7071L60.1306 43.8059L60.1306 43.8058L59.6405 43.7071ZM59.6366 43.7253L59.1487 43.6159L59.1487 43.616L59.6366 43.7253ZM59.6256 43.771L60.1053 43.912L60.1083 43.9017L60.1109 43.8913L59.6256 43.771ZM59.6208 43.7875L59.1411 43.6464L59.1397 43.6513L59.6208 43.7875ZM59.6175 43.7991L59.1364 43.6629L59.1362 43.6636L59.6175 43.7991ZM41.2396 39.5466V40.0466H41.6106L41.7181 39.6916L41.2396 39.5466ZM38.8079 39.5466H38.3079V40.0466H38.8079V39.5466ZM38.8079 5.22964L39.2402 4.97839L38.3079 3.3744V5.22964H38.8079ZM36.9265 39.5466V40.0466H37.4265V39.5466H36.9265ZM36.9265 5.47874H37.4265V3.57827L36.4913 5.23268L36.9265 5.47874ZM34.6336 39.5466L34.1551 39.6916L34.2627 40.0466H34.6336V39.5466ZM56.6036 44.4046L57.0812 44.5527L57.3124 43.8072L56.5385 43.9088L56.6036 44.4046ZM56.5988 44.42L57.0764 44.5683L57.0764 44.5682L56.5988 44.42ZM56.6029 44.4047L56.1254 44.2564L55.8939 45.0021L56.668 44.9004L56.6029 44.4047ZM57.3648 43.0543L57.6964 43.4285L58.0487 43.1163L57.7584 42.7458L57.3648 43.0543ZM43.5016 38.5L43.5276 38.0007L43.1262 37.9798L43.0195 38.3674L43.5016 38.5ZM42.8267 40.7878L43.3034 40.9387L43.3034 40.9385L42.8267 40.7878ZM33.0438 40.7878L32.5666 40.9371L32.567 40.9386L33.0438 40.7878ZM32.4158 38.6566L32.8975 38.5223L32.7851 38.1193L32.3685 38.1589L32.4158 38.6566ZM22.5526 42.0527L22.2449 41.6586L22.0837 41.7845L22.0569 41.9872L22.5526 42.0527ZM22.5312 42.2192L23.0273 42.2819V42.2819L22.5312 42.2192ZM22.4962 42.487L22.0009 42.418L22.0005 42.4214L22.4962 42.487ZM22.2916 44.8175L21.7922 44.8423L21.8333 45.6715L22.547 45.2474L22.2916 44.8175ZM22.9195 44.1222L22.5177 43.8245L22.5164 43.8263L22.9195 44.1222ZM22.9228 44.1176L22.5212 43.8199L22.5211 43.82L22.9228 44.1176ZM27.8571 44.1176L27.4554 44.4154L27.4555 44.4155L27.8571 44.1176ZM27.8605 44.1222L28.2629 43.8254L28.2621 43.8243L27.8605 44.1222ZM29.7843 44.1222L30.1859 44.4199L30.186 44.4198L29.7843 44.1222ZM29.7876 44.1176L29.386 43.8199L29.3859 43.82L29.7876 44.1176ZM34.7219 44.1176L34.3202 44.4154L34.3203 44.4155L34.7219 44.1176ZM34.7253 44.1222L35.1269 43.8244L35.1269 43.8243L34.7253 44.1222ZM36.649 44.1222L37.0507 44.4199L37.0514 44.419L36.649 44.1222ZM41.5843 44.1176L41.9861 43.82L41.9859 43.8198L41.5843 44.1176ZM41.5877 44.1222L41.9899 43.8252L41.9895 43.8246L41.5877 44.1222ZM43.5138 44.1246L43.1121 43.8268L43.1121 43.8269L43.5138 44.1246ZM43.5172 44.1201L43.1155 43.8223L43.1155 43.8223L43.5172 44.1201ZM48.4514 44.12L48.0498 44.4178L48.0498 44.4179L48.4514 44.12ZM48.4548 44.1246L48.8572 43.8278L48.8564 43.8268L48.4548 44.1246ZM50.3809 44.1222L50.7831 44.4192L50.7833 44.419L50.3809 44.1222ZM55.3185 44.1176L54.9169 44.4154L54.9169 44.4155L55.3185 44.1176ZM55.3219 44.1222L55.7236 43.8244L55.7235 43.8243L55.3219 44.1222ZM56.4273 44.884L56.6292 45.3414L56.7332 45.2954L56.8071 45.2091L56.4273 44.884ZM60.002 44.182C60.0326 44.1253 60.0553 44.0689 60.0722 44.018L59.1226 43.7043C59.1218 43.7069 59.1211 43.7086 59.1208 43.7093C59.1205 43.7101 59.1209 43.7091 59.1223 43.7065L60.002 44.182ZM59.2447 43.5579L59.2443 43.5583L59.88 44.3302L59.8804 44.3298L59.2447 43.5579ZM59.7852 44.4323C59.9331 44.3328 59.9956 44.196 60.0106 44.1658L59.1146 43.7219C59.1013 43.7486 59.1356 43.6641 59.227 43.6026L59.7852 44.4323ZM59.8795 44.3569C59.8895 44.3428 59.909 44.316 59.9291 44.2841L59.0832 43.7508C59.0826 43.7517 59.0813 43.7536 59.0788 43.7572C59.076 43.7613 59.0728 43.7658 59.067 43.7739L59.8795 44.3569ZM59.8676 44.3736C59.8704 44.3695 59.8736 44.3651 59.8794 44.3569L59.067 43.7739C59.0619 43.781 59.0541 43.7919 59.0459 43.8036L59.8676 44.3736ZM59.7688 44.495C59.7998 44.4602 59.8281 44.425 59.8486 44.3992L59.0649 43.778C59.0478 43.7996 59.0338 43.8167 59.0224 43.8294L59.7688 44.495ZM59.6707 44.5913C59.7044 44.5611 59.7332 44.5319 59.7508 44.5141L59.0405 43.8102C59.0204 43.8304 59.0115 43.8392 59.0029 43.847L59.6707 44.5913ZM59.5574 44.6863C59.5986 44.656 59.6456 44.6178 59.692 44.5711L58.9817 43.8672C58.9815 43.8673 58.9802 43.8686 58.9774 43.871C58.9745 43.8734 58.9707 43.8765 58.9657 43.8801L59.5574 44.6863ZM59.4956 44.7276C59.511 44.7177 59.5264 44.7077 59.5406 44.6981L58.9825 43.8683C58.9751 43.8733 58.9664 43.879 58.9571 43.885L59.4956 44.7276ZM59.45 44.756C59.4655 44.7466 59.481 44.7369 59.4957 44.7275L58.9571 43.885C58.9482 43.8907 58.9396 43.896 58.9321 43.9006L59.45 44.756ZM59.4112 44.7775C59.4152 44.7752 59.4165 44.7746 59.4163 44.7747L58.9658 43.8819C58.9514 43.8891 58.9389 43.8959 58.9292 43.9012L59.4112 44.7775ZM59.4002 44.7836C59.4052 44.7808 59.4084 44.779 59.4113 44.7774L58.9291 43.9013C58.9224 43.905 58.9161 43.9085 58.9115 43.9111L59.4002 44.7836ZM59.3175 44.8266C59.3546 44.8093 59.3864 44.7913 59.4002 44.7836L58.9114 43.9111C58.9029 43.9159 58.8991 43.918 58.8959 43.9197C58.8933 43.9211 58.8934 43.921 58.8952 43.9202L59.3175 44.8266ZM59.2633 44.8505C59.282 44.843 59.3056 44.8329 59.3316 44.8198L58.8811 43.927C58.8881 43.9235 58.8922 43.9219 58.891 43.9224L59.2633 44.8505ZM59.2156 44.8685C59.2255 44.865 59.244 44.8582 59.2634 44.8505L58.8909 43.9224C58.8887 43.9233 58.8852 43.9246 58.8728 43.9291L59.2156 44.8685ZM59.1979 44.8751C59.2015 44.8737 59.2059 44.8721 59.2157 44.8685L58.8728 43.9292C58.8645 43.9322 58.8507 43.9372 58.8361 43.9429L59.1979 44.8751ZM59.1997 44.8745C59.2032 44.8729 59.2032 44.8729 59.2027 44.8732C59.2018 44.8735 59.1985 44.8749 59.1938 44.8767L58.8401 43.9413C58.8197 43.9491 58.8019 43.957 58.7977 43.9588L59.1997 44.8745ZM59.1608 44.8906C59.1792 44.8835 59.1953 44.8764 59.1995 44.8746L58.7979 43.9587C58.7947 43.9602 58.7945 43.9602 58.7947 43.9601C58.7953 43.9599 58.7979 43.9588 58.8019 43.9573L59.1608 44.8906ZM59.0699 44.9183C59.1073 44.9099 59.1382 44.8993 59.1606 44.8907L58.8021 43.9572C58.8114 43.9536 58.8286 43.9475 58.8512 43.9425L59.0699 44.9183ZM58.9476 44.9315C58.9483 44.9315 59.0105 44.9334 59.083 44.9151L58.8381 43.9456C58.9011 43.9297 58.9551 43.9315 58.9476 43.9315V44.9315ZM58.9463 44.9315H58.9476V43.9315H58.9463V44.9315ZM59.0568 44.9176C58.9996 44.932 58.9531 44.9315 58.9479 44.9315L58.9448 43.9315C58.9321 43.9316 58.8782 43.9313 58.8126 43.9479L59.0568 44.9176ZM58.7089 44.9636C58.8377 44.9636 58.9559 44.9439 59.0607 44.9166L58.8087 43.9489C58.7676 43.9596 58.7353 43.9636 58.7089 43.9636V44.9636ZM58.5655 44.4802C58.7674 44.9376 58.7672 44.9377 58.7669 44.9378C58.7669 44.9378 58.7666 44.9379 58.7665 44.938C58.7662 44.9381 58.7659 44.9383 58.7655 44.9384C58.7649 44.9387 58.7643 44.9389 58.7637 44.9392C58.7625 44.9397 58.7613 44.9403 58.7601 44.9408C58.7577 44.9418 58.7554 44.9427 58.7531 44.9437C58.7485 44.9455 58.744 44.9472 58.7398 44.9488C58.7314 44.9519 58.7237 44.9544 58.7169 44.9564C58.7034 44.9605 58.6934 44.9626 58.6877 44.9637C58.6766 44.9657 58.6819 44.9636 58.7089 44.9636V43.9636C58.6301 43.9636 58.5637 43.9697 58.5073 43.9801C58.479 43.9853 58.4529 43.9916 58.429 43.9988C58.4171 44.0024 58.4057 44.0062 58.3947 44.0102C58.3893 44.0122 58.3839 44.0143 58.3787 44.0164C58.3761 44.0174 58.3736 44.0185 58.371 44.0195C58.3698 44.0201 58.3685 44.0206 58.3672 44.0212C58.3666 44.0214 58.366 44.0217 58.3654 44.022C58.3651 44.0221 58.3647 44.0222 58.3644 44.0224C58.3643 44.0225 58.364 44.0226 58.364 44.0226C58.3637 44.0227 58.3635 44.0228 58.5655 44.4802ZM58.8714 45.0924C58.8968 45.0105 58.9263 44.9157 58.9542 44.8357C58.9683 44.7954 58.9794 44.766 58.9873 44.7477C58.9912 44.7385 58.992 44.7375 58.9897 44.7419C58.9884 44.7443 58.9849 44.7508 58.9791 44.7599C58.9738 44.7682 58.9627 44.785 58.9453 44.8053L58.1856 44.1551C58.1183 44.2338 58.0793 44.3275 58.0675 44.3552C58.0469 44.4036 58.0272 44.457 58.01 44.5063C57.9753 44.6056 57.9407 44.7175 57.9163 44.796L58.8714 45.0924ZM58.8666 45.1079L58.8713 45.0926L57.9164 44.7959L57.9116 44.8112L58.8666 45.1079ZM56.2725 47.287C57.2048 47.287 57.8277 46.9053 58.2305 46.412C58.6121 45.9446 58.7767 45.3985 58.8668 45.1073L57.9114 44.8119C57.818 45.1141 57.6992 45.4816 57.4559 45.7795C57.2337 46.0517 56.89 46.287 56.2725 46.287V47.287ZM53.405 45.5467C53.8789 46.186 54.6725 47.287 56.2725 47.287V46.287C55.2213 46.287 54.6979 45.6116 54.2083 44.9512L53.405 45.5467ZM53.4014 45.5419L53.4048 45.5465L54.2084 44.9514L54.205 44.9468L53.4014 45.5419ZM52.8413 44.9635C52.8838 44.9635 52.8989 44.9686 52.9034 44.9702C52.9077 44.9717 52.9243 44.9778 52.9594 45.0072C53.0469 45.0802 53.1684 45.2248 53.4002 45.5404L54.2062 44.9483C53.9864 44.6492 53.7964 44.4034 53.6005 44.2397C53.3655 44.0434 53.1234 43.9635 52.8413 43.9635V44.9635ZM52.2811 45.5397C52.5146 45.2247 52.6362 45.0803 52.7241 45.0069C52.7592 44.9776 52.7757 44.9715 52.7797 44.9701C52.784 44.9686 52.7988 44.9635 52.8413 44.9635V43.9635C52.559 43.9635 52.3176 44.0436 52.0831 44.2393C51.8882 44.4021 51.6981 44.6469 51.4778 44.9442L52.2811 45.5397ZM52.2777 45.5443L52.2811 45.5398L51.4778 44.9441L51.4745 44.9486L52.2777 45.5443ZM49.4078 47.2846C51.0099 47.2846 51.8036 46.1838 52.2777 45.5442L51.4744 44.9487C50.985 45.6089 50.4615 46.2846 49.4078 46.2846V47.2846ZM46.5402 45.5443C47.0141 46.1835 47.8077 47.2846 49.4078 47.2846V46.2846C48.3565 46.2846 47.8331 45.6092 47.3435 44.9487L46.5402 45.5443ZM46.5369 45.5398L46.5403 45.5444L47.3434 44.9486L47.34 44.944L46.5369 45.5398ZM45.9766 44.9635C46.0191 44.9635 46.0342 44.9686 46.0388 44.9702C46.0433 44.9718 46.06 44.978 46.0951 45.0073C46.1826 45.0802 46.3042 45.2243 46.536 45.5387L47.3408 44.9451C47.1211 44.6473 46.9311 44.4022 46.7352 44.239C46.5004 44.0434 46.2585 43.9635 45.9766 43.9635V44.9635ZM45.4169 45.5414C45.6499 45.2258 45.7723 45.0807 45.8603 45.0072C45.8957 44.9776 45.9124 44.9714 45.9164 44.9699C45.9206 44.9685 45.935 44.9635 45.9766 44.9635V43.9635C45.6947 43.9635 45.4534 44.044 45.2192 44.2397C45.0238 44.4029 44.8333 44.6482 44.6125 44.9473L45.4169 45.5414ZM42.5453 47.287C44.1488 47.287 44.9447 46.1814 45.417 45.5412L44.6123 44.9475C44.1251 45.6078 43.5993 46.287 42.5453 46.287V47.287ZM39.6754 45.5467C40.1496 46.1863 40.9431 47.287 42.5453 47.287V46.287C41.4916 46.287 40.9682 45.6113 40.4787 44.9511L39.6754 45.5467ZM39.672 45.5421L39.6754 45.5467L40.4787 44.9511L40.4753 44.9466L39.672 45.5421ZM39.1118 44.966C39.1543 44.966 39.1695 44.971 39.1741 44.9726C39.1785 44.9742 39.1952 44.9804 39.2303 45.0097C39.3179 45.0826 39.4394 45.2267 39.6713 45.5411L40.4761 44.9476C40.2564 44.6497 40.0663 44.4046 39.8705 44.2414C39.6357 44.0458 39.3938 43.966 39.1118 43.966V44.966ZM38.5516 45.5421C38.7851 45.2271 38.9067 45.0827 38.9945 45.0094C39.0297 44.98 39.0461 44.9739 39.0502 44.9725C39.0544 44.971 39.0693 44.966 39.1118 44.966V43.966C38.8294 43.966 38.588 44.046 38.3536 44.2417C38.1586 44.4045 37.9686 44.6493 37.7482 44.9466L38.5516 45.5421ZM35.6806 47.287C37.2866 47.287 38.0801 46.1811 38.5522 45.5412L37.7476 44.9475C37.2602 45.6081 36.7367 46.287 35.6806 46.287V47.287ZM32.813 45.5467C33.2869 46.186 34.0806 47.287 35.6806 47.287V46.287C34.6293 46.287 34.106 45.6116 33.6163 44.9512L32.813 45.5467ZM32.8096 45.5422L32.813 45.5468L33.6162 44.9511L33.6128 44.9465L32.8096 45.5422ZM32.2494 44.966C32.2919 44.966 32.307 44.971 32.3117 44.9726C32.3161 44.9742 32.3328 44.9804 32.3679 45.0097C32.4554 45.0826 32.577 45.2267 32.8088 45.5411L33.6136 44.9476C33.3939 44.6497 33.2039 44.4046 33.008 44.2414C32.7732 44.0458 32.5313 43.966 32.2494 43.966V44.966ZM31.6897 45.5438C31.9227 45.2282 32.0451 45.0831 32.1331 45.0096C32.1685 44.98 32.1852 44.9738 32.1892 44.9724C32.1934 44.9709 32.2078 44.966 32.2494 44.966V43.966C31.9675 43.966 31.7262 44.0465 31.492 44.2422C31.2966 44.4054 31.1061 44.6507 30.8853 44.9498L31.6897 45.5438ZM28.8182 47.2894C30.4217 47.2894 31.2175 46.1838 31.6898 45.5436L30.8851 44.9499C30.3979 45.6103 29.8721 46.2894 28.8182 46.2894V47.2894ZM25.9506 45.5491C26.4245 46.1884 27.2181 47.2894 28.8182 47.2894V46.2894C27.7669 46.2894 27.2435 45.6141 26.7539 44.9536L25.9506 45.5491ZM25.9472 45.5446L25.9506 45.5492L26.7538 44.9535L26.7504 44.9489L25.9472 45.5446ZM25.3869 44.9684C25.4294 44.9684 25.4446 44.9734 25.4492 44.9751C25.4537 44.9766 25.4703 44.9828 25.5055 45.0121C25.593 45.0851 25.7146 45.2292 25.9464 45.5436L26.7512 44.95C26.5315 44.6521 26.3414 44.407 26.1456 44.2439C25.9108 44.0482 25.6689 43.9684 25.3869 43.9684V44.9684ZM24.8273 45.5462C25.0603 45.2307 25.1826 45.0855 25.2707 45.012C25.3061 44.9824 25.3227 44.9763 25.3268 44.9748C25.331 44.9733 25.3454 44.9684 25.3869 44.9684V43.9684C25.1051 43.9684 24.8638 44.0489 24.6295 44.2446C24.4342 44.4078 24.2437 44.6531 24.0228 44.9522L24.8273 45.5462ZM21.9557 47.2918C23.5592 47.2918 24.3551 46.1863 24.8274 45.5461L24.0227 44.9524C23.5355 45.6127 23.0096 46.2918 21.9557 46.2918V47.2918ZM20.5025 46.6321C20.87 47.0578 21.3926 47.2918 21.9557 47.2918V46.2918C21.6768 46.2918 21.4328 46.1794 21.2594 45.9786L20.5025 46.6321ZM20.1313 42.1623C19.9973 43.1717 19.8903 44.0423 19.9066 44.7587C19.9231 45.4791 20.0644 46.1282 20.5036 46.6334L21.2583 45.9773C21.0414 45.7278 20.9205 45.3565 20.9064 44.7359C20.8921 44.1114 20.9862 43.3207 21.1226 42.2939L20.1313 42.1623ZM20.1358 42.1279L20.1312 42.1631L21.1227 42.2931L21.1274 42.2578L20.1358 42.1279ZM20.3288 39.8303C20.3485 40.052 20.329 40.4272 20.286 40.8699C20.2441 41.3014 20.1843 41.7582 20.1358 42.1279L21.1274 42.2579C21.1755 41.8908 21.2376 41.4175 21.2813 40.9664C21.324 40.5265 21.3538 40.0667 21.3249 39.7418L20.3288 39.8303ZM15.731 46.4936C16.364 45.2288 17.2922 43.7249 18.272 42.5011C18.762 41.8891 19.256 41.3583 19.7238 40.9641C20.2005 40.5624 20.6075 40.3389 20.9236 40.2766L20.7302 39.2955C20.1679 39.4063 19.6045 39.7569 19.0794 40.1995C18.5452 40.6496 18.0058 41.2335 17.4913 41.8761C16.4622 43.1616 15.4972 44.7264 14.8368 46.0461L15.731 46.4936ZM14.4443 47.292C14.986 47.292 15.4871 46.9859 15.7319 46.4918L14.8358 46.0479C14.7608 46.1993 14.6082 46.292 14.4443 46.292V47.292ZM14.3253 47.2857C14.3804 47.2926 14.4306 47.292 14.4443 47.292V46.292C14.4393 46.292 14.4366 46.292 14.4342 46.2919C14.432 46.2919 14.4314 46.2919 14.4319 46.2919C14.4326 46.2919 14.4397 46.2922 14.4505 46.2935L14.3253 47.2857ZM13.0892 46.3358C13.2834 46.8803 13.784 47.256 14.3594 47.2888L14.4164 46.2904C14.2439 46.2806 14.0908 46.1673 14.031 45.9998L13.0892 46.3358ZM12.9968 36.9513C11.9328 38.5968 11.9393 40.8398 12.1915 42.6522C12.4473 44.4907 12.9762 46.0209 13.0894 46.3366L14.0307 45.999C13.9276 45.7114 13.4241 44.2548 13.182 42.5144C12.9362 40.748 12.9792 38.8202 13.8365 37.4943L12.9968 36.9513ZM16.7612 34.8775C15.1356 34.9836 13.8144 35.6894 12.997 36.951L13.8363 37.4947C14.4581 36.5349 15.4699 35.9639 16.8263 35.8754L16.7612 34.8775ZM18.3318 34.4738C18.3525 34.423 18.3333 34.5116 18.048 34.6289C17.7881 34.7356 17.3728 34.8372 16.7608 34.8775L16.8266 35.8754C17.5104 35.8303 18.0393 35.7135 18.428 35.5538C18.7911 35.4047 19.1247 35.1788 19.2582 34.8504L18.3318 34.4738ZM18.1105 34.1889C18.2126 34.3059 18.2731 34.4104 18.301 34.4834C18.3148 34.5193 18.317 34.5381 18.3172 34.5405C18.3175 34.5432 18.3146 34.5162 18.3318 34.4738L19.2582 34.8504C19.3649 34.5879 19.3083 34.3176 19.2349 34.1258C19.1559 33.9193 19.0246 33.7154 18.8634 33.5309L18.1105 34.1889ZM14.5695 33.381C16.1781 32.9398 17.5427 33.5372 18.1099 34.1884L18.864 33.5315C18.0295 32.5736 16.2616 31.88 14.305 32.4166L14.5695 33.381ZM8.74404 40.4845C9.19032 38.8419 10.0802 37.2098 11.1576 35.9093C12.2429 34.5993 13.4722 33.6803 14.5689 33.3811L14.3057 32.4164C12.9305 32.7916 11.5388 33.8817 10.3876 35.2714C9.22846 36.6705 8.26639 38.4285 7.77902 40.2223L8.74404 40.4845ZM9.27734 44.8333C8.72383 44.26 8.50044 43.491 8.4656 42.6797C8.43075 41.8682 8.58761 41.0626 8.74417 40.484L7.77889 40.2228C7.60854 40.8523 7.42555 41.7685 7.46652 42.7226C7.50751 43.677 7.77563 44.7176 8.55792 45.5279L9.27734 44.8333ZM9.24944 46.8803C9.8161 46.3229 9.83017 45.4093 9.27837 44.8344L8.55689 45.5268C8.72943 45.7066 8.72469 45.9938 8.5482 46.1674L9.24944 46.8803ZM7.20815 46.8523C7.76584 47.4296 8.67662 47.4402 9.24831 46.8814L8.54933 46.1663C8.37317 46.3385 8.09873 46.3349 7.92738 46.1575L7.20815 46.8523ZM5.96346 39.7217C5.18533 42.587 5.56956 45.1566 7.20822 46.8523L7.92732 46.1574C6.61688 44.8014 6.20623 42.6435 6.92851 39.9838L5.96346 39.7217ZM13.8141 30.5846C11.9464 31.0936 10.2322 32.4809 8.87504 34.1564C7.51323 35.8376 6.46854 37.8603 5.96343 39.7218L6.92854 39.9837C7.39451 38.2664 8.37112 36.3672 9.65209 34.7858C10.9377 33.1987 12.4878 31.9825 14.0771 31.5494L13.8141 30.5846ZM20.2772 32.2789C19.0423 30.861 16.5758 29.8312 13.814 30.5846L14.0772 31.5494C16.4657 30.8978 18.538 31.8046 19.5231 32.9356L20.2772 32.2789ZM20.9976 35.5786C21.4512 34.4744 21.1379 33.2643 20.2767 32.2783L19.5236 32.9362C20.2004 33.7111 20.3481 34.5279 20.0726 35.1987L20.9976 35.5786ZM16.9487 37.772C18.2169 37.6886 19.1287 37.3937 19.7796 36.9835C20.436 36.5698 20.8019 36.0543 20.9975 35.579L20.0728 35.1984C19.9509 35.4944 19.7159 35.8416 19.2464 36.1375C18.7714 36.4369 18.0323 36.6985 16.883 36.7741L16.9487 37.772ZM15.4139 38.5349C15.6999 38.0942 16.1628 37.8238 16.9487 37.772L16.883 36.7741C15.8674 36.8411 15.0745 37.2209 14.5751 37.9905L15.4139 38.5349ZM15.2348 43.2896C15.0591 42.4436 14.9299 41.5055 14.9377 40.641C14.9456 39.7645 15.0942 39.0289 15.4142 38.5344L14.5747 37.991C14.1023 38.7211 13.9463 39.6835 13.9377 40.632C13.9291 41.5926 14.0715 42.6064 14.2556 43.493L15.2348 43.2896ZM21.2118 37.3666C19.7156 37.3195 18.3263 38.2571 17.1866 39.3863C16.0298 40.5325 15.0337 41.9723 14.3198 43.1286L15.1706 43.654C15.8678 42.5248 16.8155 41.1617 17.8905 40.0967C18.9826 39.0146 20.1132 38.3325 21.1803 38.3661L21.2118 37.3666ZM22.6312 38.0562C22.2749 37.6293 21.7667 37.3857 21.2133 37.3666L21.1789 38.366C21.4533 38.3755 21.6929 38.4926 21.8634 38.6969L22.6312 38.0562ZM23.1849 39.5522C23.1327 38.9934 22.9832 38.4749 22.63 38.0548L21.8646 38.6984C22.0382 38.9048 22.1474 39.1979 22.1892 39.6453L23.1849 39.5522ZM31.8789 36.2938C26.8272 36.8084 24.2197 37.9742 22.4094 39.183L22.9647 40.0146C24.6161 38.9119 27.0607 37.7898 31.9803 37.2887L31.8789 36.2938ZM36.763 1.38822C36.2428 2.00695 25.988 14.6049 31.4439 36.91L32.4153 36.6724C27.0623 14.788 37.1268 2.50948 37.5284 2.03177L36.763 1.38822ZM36.8453 1.30919C36.8434 1.31076 36.8177 1.33066 36.7906 1.35803L37.5009 2.06196C37.4905 2.07239 37.4816 2.08027 37.4758 2.08524C37.4708 2.08951 37.4666 2.09278 37.4693 2.09061L36.8453 1.30919ZM36.7703 1.38801C36.7918 1.35912 36.8127 1.33815 36.8272 1.32487C36.8394 1.3137 36.8503 1.30526 36.8453 1.30919L37.4694 2.09061C37.4697 2.09035 37.4856 2.07786 37.5026 2.0623C37.5219 2.04464 37.5473 2.01894 37.5729 1.98452L36.7703 1.38801ZM36.9339 1.22296C36.8932 1.25773 36.8489 1.29828 36.8027 1.34881L37.5406 2.02372C37.5508 2.01254 37.5629 2.00088 37.5833 1.98344L36.9339 1.22296ZM37.0383 1.13851C36.9811 1.17698 36.9368 1.21764 36.9035 1.25126L37.6138 1.95514C37.6181 1.95078 37.6114 1.95822 37.5965 1.96821L37.0383 1.13851ZM37.1602 1.06491C37.1325 1.08051 37.0864 1.10617 37.0383 1.1385L37.5965 1.96822C37.6062 1.96167 37.6179 1.95481 37.6506 1.93645L37.1602 1.06491ZM37.1799 1.05383L37.1597 1.06523L37.6511 1.93613L37.6713 1.92473L37.1799 1.05383ZM37.2798 0.999841C37.2213 1.02605 37.1736 1.05709 37.1589 1.06638L37.6923 1.91219C37.6974 1.90902 37.7001 1.90728 37.7026 1.90575C37.7048 1.90436 37.7055 1.90396 37.7053 1.9041C37.7048 1.90439 37.6988 1.90788 37.689 1.91227L37.2798 0.999841ZM37.4985 0.926155C37.4318 0.942985 37.3618 0.964861 37.2889 0.995874L37.6799 1.91624C37.6963 1.90928 37.7157 1.90268 37.7431 1.89577L37.4985 0.926155ZM37.4943 0.928097C37.487 0.93056 37.4919 0.928813 37.4987 0.926846C37.5065 0.924591 37.5247 0.919643 37.5494 0.916081L37.6921 1.90585C37.7561 1.89663 37.8109 1.87666 37.8131 1.8759L37.4943 0.928097ZM37.4898 0.929631L37.4897 0.929645L37.8177 1.87435L37.8177 1.87434L37.4898 0.929631ZM37.5317 0.916284C37.5139 0.92141 37.498 0.926842 37.4944 0.928066L37.8131 1.87591C37.8163 1.87484 37.8165 1.87479 37.8162 1.87488C37.8156 1.87505 37.8128 1.87596 37.8086 1.87717L37.5317 0.916284ZM37.8677 0.875366C37.7645 0.875366 37.6618 0.886171 37.5607 0.908845L37.7796 1.88461C37.8055 1.8788 37.8345 1.87537 37.8677 1.87537V0.875366ZM38.0236 0.880405L37.8848 0.875658L37.8506 1.87507L37.9894 1.87982L38.0236 0.880405ZM39.1072 1.39386C38.8329 1.06611 38.4312 0.880112 38.0065 0.880112V1.88011C38.1368 1.88011 38.2571 1.93618 38.3403 2.03562L39.1072 1.39386ZM44.4729 36.7402C49.8314 14.5427 39.6267 2.00877 39.1057 1.39206L38.3418 2.03742C38.7426 2.51187 48.7581 14.7272 43.5009 36.5055L44.4729 36.7402ZM60.1131 43.1473C60.0529 42.9237 59.5492 41.362 57.2772 39.7579C55.0117 38.1583 51.0187 36.5379 44.0164 36.1237L43.9574 37.122C50.8348 37.5288 54.6306 39.1134 56.7004 40.5748C58.7636 42.0315 59.1419 43.3865 59.1475 43.4074L60.1131 43.1473ZM60.1204 43.1881C60.1254 43.2082 60.1277 43.2238 60.1287 43.2306C60.1292 43.2344 60.1296 43.2372 60.1297 43.2382C60.1298 43.2391 60.1299 43.2397 60.1297 43.238C60.1296 43.237 60.1292 43.2338 60.1288 43.2302C60.1283 43.2265 60.1277 43.2211 60.1268 43.2147C60.1251 43.2027 60.1218 43.182 60.1157 43.1572L59.145 43.3975C59.14 43.3774 59.1376 43.3617 59.1367 43.3549C59.1361 43.3511 59.1358 43.3484 59.1357 43.3473C59.1356 43.3464 59.1355 43.3459 59.1357 43.3475C59.1358 43.3485 59.1362 43.3518 59.1366 43.3553C59.137 43.359 59.1377 43.3644 59.1386 43.3708C59.1403 43.3828 59.1435 43.4035 59.1497 43.4283L60.1204 43.1881ZM60.1434 43.3254L60.1293 43.2328L59.1407 43.3835L59.1549 43.4761L60.1434 43.3254ZM60.1585 43.5004C60.1585 43.426 60.148 43.3577 60.1442 43.3307L59.1541 43.4708C59.1553 43.4795 59.1562 43.4856 59.1569 43.4914C59.1577 43.497 59.1581 43.5007 59.1584 43.5034C59.159 43.5089 59.1585 43.5069 59.1585 43.5004H60.1585ZM60.1568 43.4621C60.1575 43.4697 60.1585 43.4832 60.1585 43.5004H59.1585C59.1585 43.5222 59.1598 43.5403 59.1609 43.5526L60.1568 43.4621ZM60.1565 43.4584L60.1557 43.4511L59.1621 43.5636L59.1629 43.5709L60.1565 43.4584ZM60.1587 43.4786C60.1575 43.4657 60.1561 43.4543 60.1559 43.4533L59.1635 43.576C59.1637 43.5777 59.1636 43.5768 59.1634 43.5755C59.1633 43.5739 59.1629 43.5706 59.1625 43.5661L60.1587 43.4786ZM60.1609 43.5289C60.1609 43.5079 60.1597 43.4904 60.1587 43.4789L59.1625 43.5658C59.1618 43.5586 59.1609 43.5455 59.1609 43.5289H60.1609ZM60.1589 43.5835C60.16 43.5676 60.1609 43.5492 60.1609 43.5289H59.1609C59.1609 43.5212 59.1612 43.515 59.1615 43.511L60.1589 43.5835ZM60.153 43.64C60.1541 43.6317 60.157 43.6088 60.1589 43.5835L59.1615 43.5111C59.1618 43.5077 59.162 43.5059 59.1619 43.5067C59.1617 43.5079 59.1615 43.5097 59.1608 43.5156L60.153 43.64ZM60.1523 43.6454L60.1531 43.6397L59.1608 43.5159L59.16 43.5215L60.1523 43.6454ZM60.1547 43.6222L60.1549 43.6188L59.1574 43.5482L59.1572 43.5516L60.1547 43.6222ZM60.1335 43.7894C60.1488 43.7174 60.1529 43.6478 60.1547 43.6221L59.1572 43.5517C59.1566 43.56 59.1562 43.5661 59.1557 43.5719C59.1553 43.5774 59.1549 43.5813 59.1546 43.5841C59.154 43.5903 59.1539 43.5884 59.1553 43.5817L60.1335 43.7894ZM60.1306 43.8058C60.133 43.7939 60.1355 43.7809 60.1378 43.767L59.1511 43.6041C59.151 43.6045 59.1508 43.6059 59.1503 43.6085L60.1306 43.8058ZM60.1245 43.8347C60.1265 43.8257 60.1285 43.8161 60.1306 43.8059L59.1503 43.6084C59.1499 43.6103 59.1494 43.6128 59.1487 43.6159L60.1245 43.8347ZM60.1109 43.8913C60.1145 43.8769 60.1196 43.8563 60.1245 43.8347L59.1487 43.616C59.1467 43.6248 59.1443 43.6346 59.1403 43.6507L60.1109 43.8913ZM60.1005 43.9285L60.1053 43.912L59.1459 43.6299L59.1411 43.6464L60.1005 43.9285ZM60.0986 43.9353L60.1019 43.9237L59.1397 43.6513L59.1364 43.6629L60.0986 43.9353ZM60.0596 44.052C60.0808 44.0004 60.0942 43.9508 60.0988 43.9346L59.1362 43.6636C59.1346 43.6692 59.1336 43.6727 59.1327 43.676C59.1318 43.6791 59.1313 43.6807 59.1311 43.6813C59.1306 43.6829 59.132 43.6783 59.1352 43.6703L60.0596 44.052ZM41.2396 39.0466H38.8079V40.0466H41.2396V39.0466ZM38.3756 5.4809C41.072 10.1199 46.0672 21.8904 40.7611 39.4016L41.7181 39.6916C47.1223 21.8567 42.0422 9.79917 39.2402 4.97839L38.3756 5.4809ZM39.3079 39.5466V5.22964H38.3079V39.5466H39.3079ZM37.4265 39.5466V5.47874H36.4265V39.5466H37.4265ZM34.6336 40.0466H36.9265V39.0466H34.6336V40.0466ZM36.4913 5.23268C33.6696 10.2239 28.8555 22.2035 34.1551 39.6916L35.1121 39.4016C29.9088 22.2313 34.6428 10.5346 37.3618 5.7248L36.4913 5.23268ZM56.1261 44.2564L56.1213 44.2719L57.0764 44.5682L57.0812 44.5527L56.1261 44.2564ZM56.668 44.9004L56.6687 44.9003L56.5385 43.9088L56.5378 43.9089L56.668 44.9004ZM57.0332 42.6801C56.4538 43.1935 56.2341 43.9063 56.1254 44.2564L57.0804 44.5529C57.1928 44.191 57.3492 43.7362 57.6964 43.4285L57.0332 42.6801ZM43.4757 38.9993C52.929 39.491 56.0509 42.1882 56.9713 43.3627L57.7584 42.7458C56.5957 41.2623 53.1469 38.501 43.5276 38.0007L43.4757 38.9993ZM43.3034 40.9385C43.5501 40.1583 43.7752 39.3905 43.9837 38.6326L43.0195 38.3674C42.8141 39.1142 42.5925 39.8699 42.3499 40.6371L43.3034 40.9385ZM41.9307 41.9499C42.5616 41.9499 43.114 41.5368 43.3034 40.9387L42.35 40.6369C42.29 40.8266 42.1181 40.9499 41.9307 40.9499V41.9499ZM33.9398 41.9499H41.9307V40.9499H33.9398V41.9499ZM32.567 40.9386C32.7563 41.5369 33.3088 41.9499 33.9398 41.9499V40.9499C33.7523 40.9499 33.5805 40.8266 33.5205 40.637L32.567 40.9386ZM31.9342 38.7909C32.1305 39.4948 32.3389 40.2096 32.5666 40.9371L33.5209 40.6385C33.297 39.923 33.0916 39.2186 32.8975 38.5223L31.9342 38.7909ZM22.8603 42.4468C23.6729 41.8122 24.5851 41.139 26.0263 40.5486C27.4732 39.9559 29.4753 39.4382 32.4631 39.1544L32.3685 38.1589C29.31 38.4494 27.2071 38.9842 25.6472 39.6232C24.0818 40.2645 23.0856 41.0021 22.2449 41.6586L22.8603 42.4468ZM23.0273 42.2819C23.0343 42.226 23.0412 42.1722 23.0483 42.1182L22.0569 41.9872C22.0493 42.0444 22.0422 42.101 22.0352 42.1564L23.0273 42.2819ZM22.9914 42.556C23.0048 42.4598 23.0163 42.3686 23.0273 42.2819L22.0352 42.1564C22.0241 42.2439 22.0133 42.329 22.0009 42.418L22.9914 42.556ZM22.7909 44.7928C22.7656 44.2803 22.897 43.269 22.9918 42.5526L22.0005 42.4214C21.9119 43.091 21.7611 44.2156 21.7922 44.8423L22.7909 44.7928ZM22.5164 43.8263C22.2188 44.2318 22.1037 44.3475 22.0361 44.3877L22.547 45.2474C22.8228 45.0835 23.0558 44.7815 23.3226 44.418L22.5164 43.8263ZM22.5211 43.82L22.5177 43.8245L23.3212 44.4198L23.3246 44.4153L22.5211 43.82ZM25.3912 42.0795C23.789 42.0795 22.9954 43.1803 22.5212 43.8199L23.3245 44.4154C23.814 43.7552 24.3374 43.0795 25.3912 43.0795V42.0795ZM28.2587 43.8198C27.7848 43.1806 26.9912 42.0795 25.3912 42.0795V43.0795C26.4424 43.0795 26.9658 43.7549 27.4554 44.4154L28.2587 43.8198ZM28.2621 43.8243L28.2587 43.8197L27.4555 44.4155L27.4589 44.42L28.2621 43.8243ZM28.8224 44.4006C28.7799 44.4006 28.7647 44.3955 28.7601 44.3939C28.7557 44.3923 28.739 44.3861 28.7038 44.3568C28.6163 44.2839 28.4947 44.1398 28.2629 43.8254L27.4581 44.419C27.6778 44.7168 27.8679 44.9619 28.0637 45.1251C28.2985 45.3207 28.5404 45.4006 28.8224 45.4006V44.4006ZM29.3826 43.8244C29.1491 44.1394 29.0275 44.2838 28.9396 44.3572C28.9045 44.3865 28.888 44.3926 28.884 44.394C28.8797 44.3955 28.8649 44.4006 28.8224 44.4006V45.4006C29.1047 45.4006 29.3462 45.3205 29.5806 45.1248C29.7755 44.962 29.9656 44.7172 30.1859 44.4199L29.3826 43.8244ZM29.3859 43.82L29.3825 43.8245L30.186 44.4198L30.1894 44.4153L29.3859 43.82ZM32.2559 42.0795C30.6538 42.0795 29.8601 43.1803 29.386 43.8199L30.1893 44.4154C30.6787 43.7552 31.2022 43.0795 32.2559 43.0795V42.0795ZM35.1235 43.8198C34.6496 43.1806 33.8559 42.0795 32.2559 42.0795V43.0795C33.3072 43.0795 33.8305 43.7549 34.3202 44.4154L35.1235 43.8198ZM35.1269 43.8243L35.1235 43.8197L34.3203 44.4155L34.3237 44.42L35.1269 43.8243ZM35.6871 44.4006C35.6456 44.4006 35.6311 44.3956 35.6268 44.3941C35.6226 44.3926 35.6058 44.3864 35.5704 44.3568C35.4823 44.2835 35.36 44.1388 35.1269 43.8244L34.3236 44.42C34.5444 44.7178 34.7349 44.9624 34.9302 45.1251C35.1643 45.3202 35.4054 45.4006 35.6871 45.4006V44.4006ZM36.2474 43.8244C36.0138 44.1394 35.8923 44.2838 35.8044 44.3572C35.7693 44.3865 35.7528 44.3926 35.7487 44.394C35.7445 44.3955 35.7297 44.4006 35.6871 44.4006V45.4006C35.9695 45.4006 36.2109 45.3205 36.4453 45.1248C36.6403 44.962 36.8303 44.7172 37.0507 44.4199L36.2474 43.8244ZM39.1184 42.0795C37.5123 42.0795 36.7188 43.1854 36.2467 43.8253L37.0514 44.419C37.5388 43.7584 38.0623 43.0795 39.1184 43.0795V42.0795ZM41.9859 43.8198C41.512 43.1806 40.7184 42.0795 39.1184 42.0795V43.0795C40.1696 43.0795 40.693 43.7549 41.1826 44.4154L41.9859 43.8198ZM41.9895 43.8246L41.9861 43.82L41.1825 44.4152L41.1859 44.4198L41.9895 43.8246ZM42.5519 44.403C42.5094 44.403 42.4943 44.398 42.4897 44.3963C42.4853 44.3948 42.4685 44.3885 42.4332 44.3591C42.3452 44.2857 42.223 44.1408 41.9899 43.8252L41.1855 44.4192C41.4063 44.7182 41.5969 44.9638 41.7929 45.1272C42.0279 45.3231 42.2697 45.403 42.5519 45.403V44.403ZM43.1121 43.8269C42.8786 44.1419 42.757 44.2863 42.6692 44.3596C42.634 44.389 42.6176 44.395 42.6135 44.3965C42.6093 44.398 42.5944 44.403 42.5519 44.403V45.403C42.8343 45.403 43.0757 45.3229 43.3101 45.1272C43.5051 44.9644 43.6951 44.7196 43.9155 44.4224L43.1121 43.8269ZM43.1155 43.8223L43.1121 43.8268L43.9155 44.4224L43.9188 44.4179L43.1155 43.8223ZM45.9855 42.082C44.3833 42.082 43.5897 43.1827 43.1155 43.8223L43.9188 44.4179C44.4083 43.7577 44.9317 43.082 45.9855 43.082V42.082ZM48.8531 43.8222C48.3791 43.183 47.5855 42.082 45.9855 42.082V43.082C47.0368 43.082 47.5601 43.7573 48.0498 44.4178L48.8531 43.8222ZM48.8564 43.8268L48.853 43.8222L48.0498 44.4179L48.0532 44.4225L48.8564 43.8268ZM49.4167 44.403C49.3742 44.403 49.359 44.398 49.3544 44.3963C49.35 44.3947 49.3333 44.3885 49.2982 44.3593C49.2106 44.2863 49.0891 44.1422 48.8572 43.8278L48.0524 44.4214C48.2721 44.7193 48.4622 44.9644 48.658 45.1275C48.8928 45.3232 49.1347 45.403 49.4167 45.403V44.403ZM49.9787 43.8252C49.7456 44.1408 49.6234 44.2857 49.5354 44.359C49.5001 44.3885 49.4833 44.3948 49.4789 44.3963C49.4743 44.398 49.4592 44.403 49.4167 44.403V45.403C49.6989 45.403 49.9408 45.323 50.1758 45.1271C50.3717 44.9638 50.5623 44.7182 50.7831 44.4192L49.9787 43.8252ZM52.8502 42.0795C51.2467 42.0795 50.4509 43.1851 49.9786 43.8253L50.7833 44.419C51.2704 43.7587 51.7963 43.0795 52.8502 43.0795V42.0795ZM55.7202 43.8198C55.246 43.1803 54.4524 42.0795 52.8502 42.0795V43.0795C53.904 43.0795 54.4274 43.7552 54.9169 44.4154L55.7202 43.8198ZM55.7235 43.8243L55.7201 43.8197L54.9169 44.4155L54.9203 44.42L55.7235 43.8243ZM56.2838 44.4006C56.2423 44.4006 56.2277 44.3956 56.2235 44.3941C56.2192 44.3926 56.2025 44.3864 56.167 44.3568C56.079 44.2835 55.9567 44.1388 55.7236 43.8244L54.9203 44.42C55.1411 44.7178 55.3316 44.9624 55.5269 45.1251C55.761 45.3202 56.002 45.4006 56.2838 45.4006V44.4006ZM56.4273 44.884C56.2253 44.4266 56.2255 44.4265 56.2258 44.4264C56.2258 44.4263 56.2261 44.4262 56.2262 44.4262C56.2265 44.426 56.2268 44.4259 56.2271 44.4258C56.2278 44.4255 56.2284 44.4252 56.229 44.425C56.2302 44.4244 56.2314 44.4239 56.2326 44.4234C56.235 44.4224 56.2373 44.4214 56.2396 44.4205C56.2442 44.4186 56.2487 44.4169 56.2529 44.4154C56.2613 44.4123 56.269 44.4098 56.2758 44.4077C56.2893 44.4037 56.2993 44.4015 56.305 44.4005C56.3161 44.3984 56.3108 44.4006 56.2838 44.4006V45.4006C56.3626 45.4006 56.429 45.3944 56.4855 45.3841C56.5138 45.3789 56.5398 45.3726 56.5637 45.3654C56.5756 45.3618 56.5871 45.358 56.598 45.354C56.6034 45.352 56.6088 45.3499 56.614 45.3478C56.6166 45.3467 56.6192 45.3457 56.6217 45.3446C56.623 45.3441 56.6242 45.3435 56.6255 45.343C56.6261 45.3427 56.6267 45.3424 56.6274 45.3422C56.6277 45.342 56.628 45.3419 56.6283 45.3418C56.6284 45.3417 56.6287 45.3416 56.6288 45.3416C56.629 45.3415 56.6292 45.3414 56.4273 44.884ZM56.1213 44.2718C56.0959 44.3537 56.0664 44.4485 56.0385 44.5285C56.0244 44.5688 56.0133 44.5981 56.0054 44.6165C56.0015 44.6257 56.0007 44.6267 56.003 44.6223C56.0043 44.6198 56.0078 44.6133 56.0136 44.6042C56.0189 44.5959 56.03 44.5791 56.0474 44.5589L56.8071 45.2091C56.8744 45.1304 56.9134 45.0367 56.9252 45.0089C56.9458 44.9606 56.9655 44.9072 56.9827 44.8579C57.0173 44.7586 57.052 44.6467 57.0764 44.5683L56.1213 44.2718Z" fill="#222532"/>
<path d="M7.28808 31.1358C7.16815 30.9911 6.07696 29.7309 4.68004 29.7309C4.03333 29.7309 3.10908 29.999 2.38242 31.2735L1.57104 32.6975H8.59084L7.28808 31.1358Z" fill="white" stroke="#222532"/>
<path fill-rule="evenodd" clip-rule="evenodd" d="M5.46372 34.5746L6.4303 34.6766L6.30805 35.6496C5.9529 38.2792 3.2061 41.0535 3.08851 41.1722L1.81622 42.4443L1.50109 40.6643C1.12716 38.5711 1.3929 36.962 2.28892 35.8822C3.54237 34.3705 5.46372 34.5746 5.46372 34.5746ZM3.73521 37.0997C3.56823 37.2991 3.44359 37.553 3.35658 37.8521L3.35658 37.8521C3.55648 37.5507 3.74932 37.235 3.91394 36.917C3.85279 36.9716 3.79165 37.0309 3.73521 37.0997Z" fill="white"/>
<path d="M6.4303 34.6766L6.9264 34.739L6.98997 34.2329L6.4828 34.1794L6.4303 34.6766ZM5.46372 34.5746L5.4109 35.0718L5.41122 35.0718L5.46372 34.5746ZM6.30805 35.6496L6.80357 35.7166L6.80415 35.712L6.30805 35.6496ZM3.08851 41.1722L3.44204 41.5257L3.44367 41.5241L3.08851 41.1722ZM1.81622 42.4443L1.32388 42.5314L1.49117 43.4763L2.16975 42.7978L1.81622 42.4443ZM1.50109 40.6643L1.99343 40.5771L1.9933 40.5764L1.50109 40.6643ZM2.28892 35.8822L2.6737 36.2015L2.67382 36.2014L2.28892 35.8822ZM3.35658 37.8521L2.87649 37.7124L2.82239 37.8983L2.90762 38.0721L3.35658 37.8521ZM3.73521 37.0997L4.11854 37.4208L4.12182 37.4168L3.73521 37.0997ZM3.35658 37.8521L2.90762 38.0721L3.29138 38.855L3.77327 38.1284L3.35658 37.8521ZM3.91394 36.917L4.35798 37.1468L3.58099 36.544L3.91394 36.917ZM6.4828 34.1794L5.51622 34.0773L5.41122 35.0718L6.3778 35.1739L6.4828 34.1794ZM6.80415 35.712L6.9264 34.739L5.9342 34.6143L5.81195 35.5873L6.80415 35.712ZM3.44367 41.5241C3.51075 41.4564 4.24741 40.712 5.01513 39.6444C5.77343 38.5899 6.60906 37.1566 6.80355 35.7166L5.81255 35.5827C5.65189 36.7722 4.93654 38.0409 4.20326 39.0606C3.4794 40.0672 2.78386 40.7693 2.73335 40.8202L3.44367 41.5241ZM2.16975 42.7978L3.44204 41.5257L2.73499 40.8186L1.46269 42.0907L2.16975 42.7978ZM1.00874 40.7515L1.32388 42.5314L2.30856 42.3571L1.99343 40.5771L1.00874 40.7515ZM1.90414 35.5629C0.874303 36.804 0.622509 38.5894 1.00888 40.7522L1.9933 40.5764C1.63181 38.5528 1.9115 37.12 2.6737 36.2015L1.90414 35.5629ZM5.46372 34.5746C5.51654 34.0774 5.51632 34.0774 5.5161 34.0773C5.51602 34.0773 5.51579 34.0773 5.51562 34.0773C5.51529 34.0772 5.51493 34.0772 5.51453 34.0772C5.51375 34.0771 5.51284 34.077 5.51181 34.0769C5.50976 34.0767 5.50724 34.0764 5.50426 34.0762C5.49829 34.0756 5.49046 34.0749 5.48087 34.0742C5.46168 34.0727 5.43537 34.0709 5.40259 34.0693C5.33708 34.0662 5.24536 34.0639 5.13269 34.0664C4.908 34.0715 4.59619 34.0958 4.24054 34.1728C3.52998 34.3267 2.6225 34.6965 1.90402 35.5631L2.67382 36.2014C3.20878 35.5562 3.88871 35.2722 4.45218 35.1502C4.73356 35.0892 4.98042 35.0701 5.15515 35.0662C5.2422 35.0642 5.31038 35.0661 5.35484 35.0682C5.37704 35.0693 5.39324 35.0704 5.40281 35.0711C5.40759 35.0715 5.41071 35.0718 5.41209 35.0719C5.41277 35.072 5.41303 35.072 5.41283 35.072C5.41274 35.072 5.41253 35.072 5.41221 35.0719C5.41205 35.0719 5.41186 35.0719 5.41164 35.0719C5.41153 35.0718 5.41135 35.0718 5.41129 35.0718C5.4111 35.0718 5.4109 35.0718 5.46372 34.5746ZM3.83667 37.9918C3.90968 37.7408 4.00685 37.5541 4.11852 37.4208L3.35189 36.7787C3.12961 37.0441 2.9775 37.3652 2.87649 37.7124L3.83667 37.9918ZM3.80554 37.632L3.80554 37.632L2.90762 38.0721L2.90762 38.0721L3.80554 37.632ZM3.46991 36.6871C3.316 36.9845 3.13329 37.2841 2.9399 37.5757L3.77327 38.1284C3.97967 37.8172 4.18264 37.4856 4.35798 37.1468L3.46991 36.6871ZM4.12182 37.4168C4.15564 37.3755 4.19603 37.3354 4.2469 37.29L3.58099 36.544C3.50955 36.6077 3.42765 36.6863 3.34859 36.7827L4.12182 37.4168Z" fill="#222532"/>
<path fill-rule="evenodd" clip-rule="evenodd" d="M12.7064 29.2914C12.7064 30.2834 11.9045 31.0903 10.9215 31.0903C9.93849 31.0903 9.13892 30.2834 9.13892 29.2914C9.13892 28.2994 9.93849 27.4925 10.9215 27.4925C11.9069 27.4925 12.7064 28.2994 12.7064 29.2914ZM11.0203 29.2913C11.0203 29.2368 10.9756 29.1917 10.9215 29.1917C10.8674 29.1917 10.8251 29.2368 10.8251 29.2913C10.8251 29.4005 11.0203 29.4005 11.0203 29.2913Z" fill="white"/>
<path d="M10.9215 31.5903C12.1841 31.5903 13.2064 30.5561 13.2064 29.2914H12.2064C12.2064 30.0107 11.6249 30.5903 10.9215 30.5903V31.5903ZM8.63892 29.2914C8.63892 30.5552 9.65806 31.5903 10.9215 31.5903V30.5903C10.2189 30.5903 9.63892 30.0115 9.63892 29.2914H8.63892ZM10.9215 26.9925C9.65806 26.9925 8.63892 28.0275 8.63892 29.2914H9.63892C9.63892 28.5712 10.2189 27.9925 10.9215 27.9925V26.9925ZM13.2064 29.2914C13.2064 28.0271 12.1869 26.9925 10.9215 26.9925V27.9925C11.6269 27.9925 12.2064 28.5716 12.2064 29.2914H13.2064ZM10.9215 29.6917C10.6952 29.6917 10.5203 29.5086 10.5203 29.2913H11.5203C11.5203 28.9649 11.256 28.6917 10.9215 28.6917V29.6917ZM11.3251 29.2913C11.3251 29.4927 11.1633 29.6917 10.9215 29.6917V28.6917C10.5715 28.6917 10.3251 28.9808 10.3251 29.2913H11.3251ZM10.5203 29.2913C10.5203 29.1493 10.5921 29.0256 10.6909 28.9519C10.7753 28.889 10.8618 28.8732 10.9227 28.8732C10.9836 28.8732 11.07 28.889 11.1545 28.9519C11.2532 29.0256 11.3251 29.1493 11.3251 29.2913H10.3251C10.3251 29.488 10.4213 29.6526 10.5567 29.7536C10.6777 29.8438 10.813 29.8732 10.9227 29.8732C11.0324 29.8732 11.1676 29.8438 11.2887 29.7536C11.424 29.6526 11.5203 29.488 11.5203 29.2913H10.5203Z" fill="#222532"/>
</svg>
