<svg width="25" height="25" viewBox="0 0 25 25" fill="none" xmlns="http://www.w3.org/2000/svg">
<path fill-rule="evenodd" clip-rule="evenodd" d="M24.2569 24.2279C25.1584 23.3264 25.1584 21.8659 24.2569 20.9643L19.4945 16.2019C19.1565 15.8638 19.0686 15.2485 19.2962 14.8293C19.2962 14.8293 19.2804 14.8924 19.4472 14.525C20.0062 13.2922 20.3172 11.9219 20.3172 10.4794C20.3172 5.06116 15.9267 0.670654 10.5084 0.670654C5.09022 0.670654 0.699707 5.06116 0.699707 10.4794C0.699707 15.8976 5.09022 20.2881 10.5084 20.2881C11.9464 20.2881 13.3123 19.9794 14.5428 19.4227C14.9147 19.2559 14.8561 19.2694 14.8561 19.2694C15.2821 19.0418 15.8929 19.1274 16.231 19.4655L20.9933 24.2279C21.8948 25.1294 23.3553 25.1293 24.2569 24.2279ZM15.9898 10.4794C15.9898 13.5063 13.5353 15.9607 10.5084 15.9607C7.4815 15.9607 5.02707 13.5063 5.02707 10.4794C5.02707 7.45244 7.4815 4.998 10.5084 4.998C13.5353 4.998 15.9898 7.45244 15.9898 10.4794Z" fill="white"/>
</svg>
