<svg width="41" height="25" viewBox="0 0 41 25" fill="none" xmlns="http://www.w3.org/2000/svg">
<path d="M27.2498 5.03766C27.3388 4.9571 27.4277 4.87821 27.515 4.79933C27.6912 4.64324 27.8624 4.48379 28.0302 4.326C28.193 4.15817 28.3861 4.04739 28.5556 3.90473C28.7302 3.76877 28.898 3.62779 29.0692 3.50191C29.4233 3.27533 29.7523 3.02524 30.0863 2.83391C30.4203 2.64761 30.7308 2.44284 31.0396 2.30352C31.1924 2.22464 31.3384 2.14911 31.4777 2.07694C31.622 2.01316 31.7597 1.95106 31.8906 1.894C32.4159 1.65063 32.8506 1.50293 33.1494 1.39382C33.4498 1.29647 33.6109 1.24612 33.6109 1.24612L33.626 1.24108C33.6797 1.2243 33.7251 1.18066 33.7435 1.1236C33.7737 1.02793 33.72 0.925544 33.626 0.895334C33.626 0.895334 33.4448 0.83827 33.1125 0.777845C32.9463 0.750991 32.7365 0.71071 32.4931 0.695602C32.2481 0.675462 31.9627 0.645249 31.6455 0.655321C31.4861 0.656999 31.3166 0.653643 31.1403 0.663713C30.9641 0.678819 30.7795 0.695602 30.5881 0.714066C30.1987 0.74092 29.7909 0.829875 29.3461 0.920509C29.1195 0.957434 28.8996 1.02793 28.6697 1.09842C28.4381 1.17059 28.1997 1.24444 27.9564 1.31996C27.4898 1.51634 26.9796 1.71103 26.4827 1.9762C26.2377 2.11382 25.986 2.25649 25.7325 2.40922C25.6049 2.48475 25.4774 2.56195 25.3482 2.63916C25.2273 2.72811 25.1048 2.81707 24.9823 2.90602C24.7389 3.09232 24.4905 3.2803 24.237 3.47164C23.9752 3.65626 23.7671 3.89627 23.5271 4.11614C23.2938 4.3444 23.0571 4.57434 22.8188 4.80765C22.6057 5.06109 22.3925 5.31956 22.1827 5.58643C21.9763 5.85497 21.7514 6.12016 21.56 6.40546C21.3771 6.69582 21.2042 6.99626 21.0246 7.29668C20.8551 7.60383 20.6654 7.89753 20.5144 8.22313C20.3667 8.55546 20.2291 8.89449 20.0898 9.23522C19.9505 9.57425 19.8111 9.91663 19.6819 10.2607C19.593 10.5796 19.5023 10.9019 19.4117 11.2241C19.321 11.5464 19.2304 11.8703 19.1398 12.1942L18.9871 12.728L18.8679 13.1694C18.8259 13.3171 18.7924 13.4664 18.7454 13.6124L18.5859 14.0404L18.4265 14.4718C18.3711 14.6144 18.3006 14.7487 18.2385 14.8897C17.7283 16.0024 17.0535 17.0397 16.2446 17.9561C15.4339 18.8708 14.5125 19.6815 13.5256 20.3596C12.5403 21.0427 11.4981 21.5915 10.4742 22.0531C9.44708 22.5113 8.43331 22.8671 7.47829 23.1457C5.56661 23.708 3.90164 23.9665 2.73689 24.1175C1.56703 24.2635 0.895675 24.2736 0.895675 24.2736C0.810076 24.2753 0.736229 24.3391 0.724478 24.4263C0.712729 24.522 0.779866 24.611 0.877212 24.6227H0.880569C0.880569 24.6227 1.56705 24.71 2.76875 24.7352C3.3696 24.7486 4.10141 24.7419 4.94227 24.6898C5.78146 24.6378 6.73146 24.5539 7.7603 24.381C9.81128 24.0353 12.225 23.4092 14.6015 22.1169C15.7864 21.4741 16.9613 20.6667 18.0086 19.6597C19.0593 18.6611 19.9908 17.4795 20.7293 16.182C20.8216 16.0192 20.9223 15.8615 21.0079 15.6953L21.2546 15.1951C21.4208 14.8611 21.5819 14.5238 21.7162 14.1797L21.9277 13.6644L21.9797 13.5352L22.0065 13.4714L22.0133 13.4546C22.0351 13.3892 21.9898 13.5251 21.9965 13.5067L22.0082 13.4781L22.1073 13.2448C22.2415 12.936 22.3741 12.6272 22.5067 12.3201C22.6393 12.0129 22.7719 11.7074 22.9045 11.402C23.0539 11.1469 23.1915 10.8917 23.3274 10.6383C23.4634 10.3849 23.601 10.1348 23.7236 9.87971C23.8629 9.62963 24.029 9.38795 24.1751 9.14291C24.3211 8.89618 24.4671 8.65283 24.603 8.40611C24.7541 8.17114 24.9203 7.95294 25.0713 7.72638C25.2291 7.50315 25.37 7.27153 25.5228 7.05167C25.6889 6.84522 25.8518 6.64046 26.0129 6.43905C26.0934 6.33666 26.1723 6.23596 26.2529 6.13526C26.3301 6.0312 26.409 5.93049 26.4979 5.8449C26.6708 5.66195 26.8403 5.48236 27.0082 5.30446C27.087 5.21718 27.1693 5.12655 27.2498 5.03759L27.2498 5.03766Z" fill="#4AF6CD"/>
<path fill-rule="evenodd" clip-rule="evenodd" d="M39.843 23.9165C40.4859 24.2035 40.8601 24.3428 40.8601 24.3428L40.8602 24.3428C40.924 24.3663 40.9576 24.4368 40.9324 24.4972C40.9106 24.5526 40.8518 24.5845 40.7931 24.5744C40.7931 24.5744 40.392 24.4972 39.7021 24.321C39.0106 24.1481 38.0355 23.851 36.8841 23.4197C36.793 23.3837 36.7003 23.3478 36.6063 23.3114C36.4061 23.2338 36.2002 23.154 35.9912 23.0672C35.8476 23.0041 35.7018 22.9406 35.5539 22.8762C35.3872 22.8036 35.2179 22.7299 35.0463 22.6543C34.9234 22.5935 34.799 22.5322 34.6734 22.4703C34.4731 22.3716 34.2697 22.2714 34.0644 22.1693C33.819 22.0321 33.5699 21.8921 33.3169 21.75C33.2325 21.7026 33.1477 21.6549 33.0624 21.607C32.9557 21.5391 32.8486 21.4708 32.741 21.4022C32.5137 21.2573 32.2844 21.1111 32.052 20.9642C31.8139 20.7958 31.5792 20.6179 31.3418 20.438C31.2479 20.3668 31.1535 20.2954 31.0584 20.224C30.8897 20.0767 30.7206 19.9281 30.5509 19.779C30.4016 19.6477 30.2518 19.5161 30.1017 19.3848C30.0122 19.2902 29.9219 19.1958 29.8314 19.1011C29.6231 18.8833 29.4135 18.664 29.2088 18.4382L28.8009 17.9162L28.5978 17.6544L28.4938 17.5235L28.4686 17.4916L28.4552 17.4748C28.4418 17.4513 28.4804 17.5185 28.4216 17.4194L28.4166 17.411L28.3746 17.3473L28.0457 16.842C28.012 16.7877 27.978 16.7375 27.944 16.6873C27.8678 16.5746 27.7915 16.4618 27.7184 16.3016C27.6688 16.1988 27.6164 16.0957 27.5639 15.9923C27.4012 15.6723 27.2369 15.3491 27.1494 15.0193C27.135 14.9751 27.1204 14.931 27.1058 14.8869C27.0489 14.7149 26.9921 14.5431 26.948 14.3681C26.9324 14.272 26.9172 14.1761 26.902 14.0805C26.8811 13.9493 26.8603 13.8185 26.8389 13.6884C26.8343 13.644 26.8285 13.6 26.8227 13.5563C26.8135 13.4875 26.8044 13.419 26.8003 13.3493L26.8036 13.0036C26.8065 12.9381 26.808 12.873 26.8095 12.8081C26.8133 12.6448 26.817 12.4831 26.8423 12.3222C26.8707 12.1476 26.9071 11.9761 26.943 11.8067C26.9538 11.7562 26.9644 11.706 26.9748 11.6558C27.0006 11.5103 27.0577 11.3693 27.1138 11.2307C27.1418 11.1615 27.1696 11.0929 27.193 11.0247L27.3139 10.7226C27.3428 10.658 27.3807 10.5956 27.4181 10.534C27.437 10.5027 27.4558 10.4717 27.4733 10.4407C27.5078 10.3854 27.5409 10.33 27.5737 10.275C27.6496 10.148 27.724 10.0234 27.8107 9.9086C27.8215 9.89586 27.8324 9.88313 27.8432 9.87044C28.1014 9.56713 28.3469 9.27864 28.6482 9.06439C28.8666 8.8669 29.1207 8.73259 29.3604 8.60589C29.4283 8.56999 29.4951 8.53471 29.5596 8.49877C29.6733 8.44806 29.7899 8.4092 29.9031 8.37144C29.9435 8.35796 29.9835 8.34462 30.0228 8.33093C30.0379 8.32585 30.0528 8.32076 30.0677 8.31569C30.2007 8.27046 30.3284 8.22703 30.4642 8.21344C31.0415 8.09764 31.5518 8.12953 31.9429 8.20841C32.1409 8.25037 32.3104 8.29736 32.4548 8.33932C32.5974 8.40142 32.7149 8.45513 32.8072 8.50213C32.9918 8.59444 33.0842 8.64647 33.0842 8.64647C33.1446 8.68172 33.1647 8.75893 33.1295 8.81935C33.1093 8.85459 33.0758 8.87641 33.0388 8.88145L33.0221 8.8848C33.0221 8.8848 32.9197 8.89991 32.7283 8.92844C32.6525 8.94223 32.5631 8.95262 32.4628 8.96427C32.441 8.96679 32.4188 8.96938 32.396 8.97208C32.3532 8.98392 32.3082 8.99708 32.2616 9.01075C32.1694 9.03776 32.0706 9.06672 31.968 9.09124C31.861 9.1085 31.7508 9.1597 31.6375 9.21236C31.5855 9.2365 31.5329 9.26095 31.4796 9.28258C31.363 9.31846 31.2517 9.38879 31.138 9.46056C31.0816 9.49622 31.0245 9.53223 30.966 9.56455C30.8484 9.63469 30.7383 9.72848 30.6277 9.82277C30.5742 9.86837 30.5206 9.91408 30.4659 9.95729C30.4164 10.0165 30.3636 10.0718 30.3107 10.1272C30.2094 10.2333 30.1078 10.3396 30.0295 10.4742C29.7509 10.8385 29.5595 11.295 29.4521 11.7901C29.4447 11.837 29.4332 11.8822 29.4217 11.9275C29.402 12.0055 29.3822 12.0834 29.3833 12.1694C29.381 12.1994 29.3789 12.2296 29.3768 12.2597C29.3696 12.3627 29.3623 12.4663 29.348 12.5689C29.3416 12.6429 29.3458 12.7205 29.3501 12.7985C29.3535 12.8621 29.357 12.926 29.3548 12.9885C29.3548 13.0061 29.3549 13.0237 29.355 13.0413C29.3553 13.0942 29.3556 13.1475 29.3531 13.2016C29.3554 13.2518 29.3634 13.3028 29.3715 13.354C29.375 13.3765 29.3785 13.399 29.3816 13.4215C29.3895 13.4995 29.3969 13.578 29.4044 13.6567C29.4112 13.7287 29.418 13.8008 29.4252 13.873C29.4622 14.0257 29.4957 14.1818 29.5259 14.3396C29.5562 14.551 29.6148 14.7422 29.6742 14.9362C29.7072 15.044 29.7405 15.1526 29.7693 15.266C29.7861 15.3691 29.8474 15.5013 29.9086 15.6332C29.9331 15.686 29.9575 15.7388 29.9791 15.7897L30.2275 16.3385L30.2577 16.4073L30.2611 16.4124L30.2644 16.4191L30.3333 16.5366L30.4742 16.7682L30.7579 17.2382C30.8857 17.4048 31.013 17.5714 31.14 17.7377C31.2382 17.8663 31.3362 17.9946 31.4343 18.1227L32.1996 18.9484C32.4749 19.2052 32.7485 19.4603 33.0204 19.7121C33.1153 19.791 33.2099 19.8696 33.3041 19.948C33.4947 20.1065 33.6838 20.2637 33.8713 20.4187C34.165 20.6369 34.4554 20.8517 34.739 21.0615C35.0328 21.2613 35.3214 21.456 35.6017 21.6439C35.8904 21.8235 36.1707 21.9981 36.4426 22.1676C36.6171 22.2719 36.7902 22.3701 36.9595 22.4661C37.0572 22.5215 37.1536 22.5762 37.2482 22.6308C37.7702 22.9195 38.2586 23.1713 38.6967 23.3828C39.1364 23.5959 39.5225 23.7738 39.843 23.9165ZM30.2408 16.3774C30.2405 16.3769 30.24 16.3763 30.2391 16.3754L30.2475 16.3905L30.2509 16.3939C30.2475 16.3889 30.2425 16.3805 30.2408 16.3771C30.2408 16.3772 30.2408 16.3773 30.2408 16.3774Z" fill="#4AF6CD"/>
<path d="M32.4294 3.11747C31.6406 3.28028 31.1421 3.48672 31.1421 3.48672C31.1102 3.50015 31.085 3.53204 31.085 3.56896C31.0833 3.61764 31.1236 3.65792 31.1723 3.65792C31.174 3.65792 31.6942 3.66127 32.4613 3.75023C32.844 3.78715 33.2837 3.86436 33.7469 3.94492C34.2085 4.04898 34.6969 4.14297 35.1652 4.29067C35.2827 4.33095 35.4002 4.36284 35.5143 4.40648C35.6268 4.45683 35.7375 4.5055 35.8483 4.55418C36.0699 4.64985 36.278 4.75558 36.4878 4.82776C36.7009 4.89154 36.9074 4.94692 37.1105 4.98385C37.3186 5.01741 37.5166 5.0493 37.6996 5.07784C37.8859 5.10637 38.0671 5.11644 38.2316 5.12483C38.3911 5.14162 38.5388 5.15169 38.6647 5.15169C38.9181 5.15672 39.0859 5.13826 39.0859 5.13826L39.0926 5.13658C39.101 5.1349 39.1078 5.13323 39.1161 5.13155C39.1732 5.11141 39.2017 5.04763 39.1816 4.99056C39.1816 4.99056 39.1262 4.83783 38.9903 4.61292C38.9231 4.49712 38.8325 4.36788 38.72 4.22354C38.6059 4.08423 38.4632 3.9466 38.3004 3.80394C38.2199 3.73009 38.1309 3.6596 38.0386 3.5891C37.9413 3.52868 37.8439 3.45987 37.7365 3.40112C37.5284 3.27189 37.2951 3.15608 37.04 3.08726C36.7865 3.01006 36.5146 2.96977 36.236 2.95803C35.9591 2.93285 35.6805 2.9211 35.4035 2.90767C35.1283 2.8825 34.853 2.88586 34.5845 2.88082C34.316 2.87411 34.0508 2.90096 33.7973 2.91439C33.5422 2.9446 33.3006 2.95803 33.0706 2.99999C32.8423 3.03859 32.6275 3.07551 32.4294 3.11748L32.4294 3.11747Z" fill="#4AF6CD"/>
<path d="M38.1055 9.32754C38.2734 9.40306 38.4043 9.48698 38.5352 9.54741C38.7752 9.68168 38.9431 9.76224 38.9431 9.76224L38.9531 9.76728C38.9666 9.77399 38.9817 9.77735 38.9984 9.77735C39.0522 9.77567 39.0958 9.73035 39.0958 9.67496C39.0958 9.67496 39.0941 9.62965 39.0924 9.54573C39.0874 9.46181 39.0824 9.33593 39.0488 9.18319C39.0119 9.03382 38.9666 8.84416 38.8742 8.64946C38.792 8.4447 38.6678 8.2349 38.5134 8.01836C38.4345 7.91262 38.3456 7.80521 38.2532 7.69779C38.1542 7.59876 38.0552 7.48799 37.9427 7.39065C37.7212 7.19092 37.4661 7.00629 37.1824 6.86026C36.8988 6.71592 36.5866 6.61018 36.2694 6.5313C35.9522 6.4457 35.6316 6.37856 35.316 6.30472C34.6849 6.1587 34.0539 6.05632 33.4614 6.00932C32.8706 5.95393 32.3184 5.94386 31.8468 5.9489C30.9052 5.96065 30.2859 6.05464 30.2859 6.05464C30.249 6.05967 30.2188 6.08821 30.2104 6.12513C30.202 6.1738 30.2322 6.2208 30.2809 6.22919C30.2809 6.22919 30.8868 6.345 31.7713 6.5783C32.2127 6.69243 32.7213 6.8418 33.255 7.01802C33.5219 7.10362 33.7921 7.20768 34.0673 7.30503C34.3392 7.40573 34.6128 7.5165 34.878 7.63567C35.1432 7.75651 35.3999 7.89414 35.6366 8.04519C35.8766 8.19457 36.0998 8.3473 36.3248 8.47151C36.5497 8.59403 36.7662 8.70145 36.9827 8.79544C37.1958 8.89447 37.3972 8.98846 37.5835 9.07573C37.7749 9.16636 37.9511 9.25196 38.1055 9.32749L38.1055 9.32754Z" fill="#4AF6CD"/>
<path d="M37.1694 11.4343C37.1056 11.3017 37.015 11.1775 36.9143 11.0449C36.8152 10.9106 36.6877 10.8032 36.5467 10.7008C36.4057 10.6001 36.2345 10.5397 36.065 10.4742C35.8938 10.4172 35.7209 10.3618 35.5548 10.2997C35.2191 10.1872 34.8851 10.0798 34.5645 10.0228C34.2473 9.95226 33.9452 9.92037 33.69 9.89351C33.1798 9.84149 32.8341 9.8633 32.8341 9.8633C32.8089 9.86498 32.7854 9.88009 32.772 9.90526C32.7552 9.94219 32.7703 9.98583 32.8072 10.0026C32.8072 10.0026 33.111 10.1453 33.5474 10.3735C33.7639 10.4927 34.0106 10.6354 34.2691 10.7915C34.395 10.872 34.5259 10.9543 34.6568 11.0365C34.7894 11.1171 34.9153 11.2111 35.0428 11.2983C35.1654 11.3923 35.2829 11.4947 35.3903 11.6004C35.491 11.7129 35.6001 11.8102 35.7041 11.8942C35.8065 11.9781 35.9307 12.0335 36.0415 12.0905C36.1506 12.1493 36.2698 12.1912 36.3789 12.2349C36.4829 12.2802 36.5903 12.3171 36.6944 12.3473C36.7985 12.3775 36.8807 12.4128 36.9629 12.4346C37.1241 12.4833 37.2416 12.5034 37.2416 12.5034L37.2466 12.5051C37.2986 12.5152 37.349 12.4799 37.359 12.4279C37.359 12.4279 37.3792 12.3171 37.3674 12.1342C37.3607 12.0435 37.3506 11.9277 37.3171 11.8119C37.2818 11.6961 37.2348 11.5685 37.1694 11.4343H37.1694Z" fill="#4AF6CD"/>
</svg>
