<svg width="20" height="25" viewBox="0 0 20 25" fill="none" xmlns="http://www.w3.org/2000/svg">
<path d="M5.83824 16.1346C4.33547 16.1346 3.11279 14.9118 3.11279 13.4091C3.11279 13.0896 3.37311 12.8293 3.69258 12.8293C4.01206 12.8293 4.27236 13.0897 4.27236 13.4091C4.27236 14.2729 4.97639 14.977 5.8402 14.977C6.70402 14.977 7.40805 14.2729 7.40805 13.4091C7.40805 13.0896 7.66837 12.8293 7.98783 12.8293C8.30731 12.8293 8.56762 13.0897 8.56762 13.4091C8.56367 14.9119 7.34095 16.1346 5.83824 16.1346Z" fill="#4AF6CD" stroke="#4AF6CD" stroke-width="0.504861"/>
<path d="M10.1317 16.1346C8.62892 16.1346 7.40625 14.9118 7.40625 13.4091C7.40625 13.0896 7.66657 12.8293 7.98603 12.8293C8.30549 12.8293 8.56581 13.0897 8.56581 13.4091C8.56581 14.2729 9.26984 14.977 10.1337 14.977C10.9974 14.977 11.7015 14.2729 11.7015 13.4091C11.7015 13.0896 11.9618 12.8293 12.2813 12.8293C12.6008 12.8293 12.8611 13.0897 12.8611 13.4091C12.8571 14.9119 11.6344 16.1346 10.1317 16.1346Z" fill="#4AF6CD" stroke="#4AF6CD" stroke-width="0.504861"/>
<path d="M14.4251 16.1346C12.9224 16.1346 11.6997 14.9118 11.6997 13.4091C11.6997 13.0896 11.96 12.8293 12.2795 12.8293C12.599 12.8293 12.8593 13.0897 12.8593 13.4091C12.8593 14.2729 13.5633 14.977 14.4271 14.977C15.2909 14.977 15.995 14.2729 15.995 13.4091C15.995 13.0896 16.2553 12.8293 16.5747 12.8293C16.8942 12.8293 17.1545 13.0897 17.1545 13.4091C17.1506 14.9119 15.9279 16.1346 14.4251 16.1346Z" fill="#4AF6CD" stroke="#4AF6CD" stroke-width="0.504861"/>
<path fill-rule="evenodd" clip-rule="evenodd" d="M0.965332 15.4525C0.965332 20.5069 5.07692 24.6188 10.1316 24.6188L10.1318 24.6189C15.1863 24.6189 19.2981 20.5073 19.3001 15.4527C19.3001 8.55423 10.8755 1.04034 10.5165 0.722827C10.3055 0.535478 9.988 0.529561 9.7691 0.70705C9.40812 0.99684 0.965332 7.90334 0.965332 15.4525ZM10.1156 1.93154C10.1157 1.93146 10.1158 1.93139 10.1159 1.93131H10.1154C10.1154 1.93139 10.1155 1.93146 10.1156 1.93154ZM10.1156 1.93154C8.4803 3.36565 2.12291 9.32684 2.12291 15.452C2.12291 19.8676 5.71414 23.4586 10.1295 23.4586C14.5449 23.4586 18.1361 19.8674 18.1361 15.452C18.1381 9.85539 11.7371 3.46016 10.1156 1.93154Z" fill="#4AF6CD"/>
<path d="M10.1316 24.6188L10.2458 24.3937L10.192 24.3664H10.1316V24.6188ZM10.1318 24.6189L10.0176 24.844L10.0714 24.8713H10.1318V24.6189ZM19.3001 15.4527L19.5526 15.4528V15.4527H19.3001ZM10.5165 0.722827L10.349 0.9116L10.3493 0.911896L10.5165 0.722827ZM9.7691 0.70705L9.92713 0.903898L9.92808 0.903126L9.7691 0.70705ZM10.1159 1.93131L10.2827 2.12077L10.7845 1.67888H10.1159V1.93131ZM10.1154 1.93131V1.67888H9.47956L9.94221 2.115L10.1154 1.93131ZM18.1361 15.452L17.8837 15.4519V15.452H18.1361ZM10.1316 24.3664C5.21634 24.3664 1.21776 20.3675 1.21776 15.4525H0.712901C0.712901 20.6464 4.9375 24.8712 10.1316 24.8712V24.3664ZM10.2461 24.3938L10.2458 24.3937L10.0173 24.8439L10.0176 24.844L10.2461 24.3938ZM19.0477 15.4526C19.0458 20.3679 15.0469 24.3665 10.1318 24.3665V24.8713C15.3257 24.8713 19.5505 20.6467 19.5526 15.4528L19.0477 15.4526ZM10.3493 0.911896C10.5235 1.06597 12.7061 3.01185 14.8433 5.77436C16.9887 8.54761 19.0477 12.0928 19.0477 15.4527H19.5526C19.5526 11.914 17.3992 8.25312 15.2426 5.46544C13.0777 2.66702 10.8686 0.697191 10.6838 0.533757L10.3493 0.911896ZM9.92808 0.903126C10.0517 0.8029 10.231 0.806864 10.349 0.9116L10.6841 0.534053C10.38 0.264091 9.92431 0.256222 9.61012 0.510973L9.92808 0.903126ZM1.21776 15.4525C1.21776 11.7653 3.28398 8.2081 5.4293 5.51479C7.569 2.82853 9.75425 1.04268 9.92713 0.903896L9.61107 0.510203C9.42298 0.661207 7.20634 2.47351 5.0344 5.20024C2.86808 7.91992 0.712901 11.5905 0.712901 15.4525H1.21776ZM9.94905 1.74185L9.94879 1.74208L10.2824 2.121L10.2827 2.12077L9.94905 1.74185ZM10.1154 2.18374H10.1159V1.67888H10.1154V2.18374ZM10.2888 1.74785L10.2885 1.74763L9.94221 2.115L9.94246 2.11522L10.2888 1.74785ZM9.94917 1.74175C9.12479 2.4647 7.11169 4.32713 5.30277 6.78292C3.49837 9.23257 1.87048 12.3082 1.87048 15.452H2.37534C2.37534 12.4706 3.92614 9.50309 5.70926 7.08234C7.48787 4.66771 9.47111 2.83249 10.282 2.12133L9.94917 1.74175ZM1.87048 15.452C1.87048 20.007 5.57473 23.711 10.1295 23.711V23.2062C5.85355 23.2062 2.37534 19.7281 2.37534 15.452H1.87048ZM10.1295 23.711C14.6843 23.711 18.3885 20.0068 18.3885 15.452H17.8837C17.8837 19.7279 14.4055 23.2062 10.1295 23.2062V23.711ZM18.3885 15.4521C18.3895 12.5697 16.748 9.51624 14.9391 7.01822C13.1233 4.51063 11.105 2.51737 10.2888 1.74786L9.94245 2.11522C10.7477 2.87434 12.7407 4.843 14.5302 7.31432C16.3267 9.79522 17.8846 12.7376 17.8837 15.4519L18.3885 15.4521Z" fill="#4AF6CD"/>
</svg>
