<svg width="27" height="25" viewBox="0 0 27 25" fill="none" xmlns="http://www.w3.org/2000/svg">
<path d="M17.7615 9.04196H0.259277V11.2293H17.7615C20.7774 11.2293 23.2305 8.77531 23.2305 5.76036C23.2305 2.74444 20.7764 0.291382 17.7615 0.291382C14.7456 0.291382 12.2925 2.74541 12.2925 5.76036H14.4799C14.4799 3.95139 15.9525 2.47876 17.7615 2.47876C19.5705 2.47876 21.0431 3.95139 21.0431 5.76036C21.0431 7.56933 19.5705 9.04196 17.7615 9.04196Z" fill="#4AF6CD"/>
<path d="M21.0431 13.4177H0.259277V15.6051H21.0431C22.852 15.6051 24.3247 17.0777 24.3247 18.8867C24.3247 20.6957 22.852 22.1683 21.0431 22.1683C19.2341 22.1683 17.7615 20.6957 17.7615 18.8867H15.5741C15.5741 21.9026 18.0281 24.3557 21.0431 24.3557C24.059 24.3557 26.5121 21.9017 26.5121 18.8867C26.5121 15.8708 24.058 13.4177 21.0431 13.4177Z" fill="#4AF6CD"/>
</svg>
